ReLeland.261e7e90990.ufo
<glyph name="bracket" format="2">
  <advance width="528"/>
  <unicode hex="E002"/>
  <outline>
    <contour>
      <point x="210" y="-269" type="line" smooth="yes"/>
      <point x="401" y="-269"/>
      <point x="503" y="-424"/>
      <point x="504" y="-426" type="curve" smooth="yes"/>
      <point x="507" y="-429"/>
      <point x="510" y="-431"/>
      <point x="514" y="-431" type="curve" smooth="yes"/>
      <point x="516" y="-431"/>
      <point x="519" y="-430"/>
      <point x="521" y="-429" type="curve" smooth="yes"/>
      <point x="526" y="-427"/>
      <point x="528" y="-422"/>
      <point x="528" y="-417" type="curve" smooth="yes"/>
      <point x="528" y="-415"/>
      <point x="528" y="-414"/>
      <point x="527" y="-412" type="curve" smooth="yes"/>
      <point x="526" y="-409"/>
      <point x="467" y="-152"/>
      <point x="159" y="-152" type="curve" smooth="yes"/>
      <point x="108" y="-152" type="line"/>
      <point x="108" y="1153" type="line"/>
      <point x="159" y="1153" type="line" smooth="yes"/>
      <point x="466" y="1153"/>
      <point x="526" y="1410"/>
      <point x="527" y="1413" type="curve" smooth="yes"/>
      <point x="528" y="1415"/>
      <point x="528" y="1416"/>
      <point x="528" y="1418" type="curve" smooth="yes"/>
      <point x="528" y="1423"/>
      <point x="526" y="1428"/>
      <point x="521" y="1430" type="curve" smooth="yes"/>
      <point x="519" y="1431"/>
      <point x="516" y="1431"/>
      <point x="514" y="1431" type="curve" smooth="yes"/>
      <point x="510" y="1431"/>
      <point x="506" y="1429"/>
      <point x="503" y="1426" type="curve" smooth="yes"/>
      <point x="502" y="1424"/>
      <point x="401" y="1270"/>
      <point x="210" y="1270" type="curve" smooth="yes"/>
      <point x="14" y="1270" type="line" smooth="yes"/>
      <point x="6" y="1270"/>
      <point x="0" y="1264"/>
      <point x="0" y="1256" type="curve" smooth="yes"/>
      <point x="0" y="-255" type="line" smooth="yes"/>
      <point x="0" y="-263"/>
      <point x="6" y="-269"/>
      <point x="14" y="-269" type="curve" smooth="yes"/>
    </contour>
  </outline>
</glyph>
<glyph name="bracketTop" format="2">
  <advance width="491"/>
  <unicode hex="E003"/>
  <outline>
    <contour>
      <point x="484" y="277" type="curve"/>
      <point x="482" y="278"/>
      <point x="479" y="279"/>
      <point x="477" y="279" type="curve" smooth="yes"/>
      <point x="473" y="279"/>
      <point x="468" y="278"/>
      <point x="466" y="274" type="curve"/>
      <point x="464" y="271"/>
      <point x="364" y="117"/>
      <point x="173" y="117" type="curve" smooth="yes"/>
      <point x="14" y="117" type="line" smooth="yes"/>
      <point x="6" y="117"/>
      <point x="0" y="112"/>
      <point x="0" y="104" type="curve" smooth="yes"/>
      <point x="0" y="0" type="line"/>
      <point x="122" y="0" type="line" smooth="yes"/>
      <point x="430" y="0"/>
      <point x="489" y="257"/>
      <point x="490" y="260" type="curve"/>
      <point x="490" y="261"/>
      <point x="491" y="263"/>
      <point x="491" y="265" type="curve" smooth="yes"/>
      <point x="491" y="270"/>
      <point x="488" y="274"/>
    </contour>
  </outline>
</glyph>
<glyph name="reversedBracketTop" format="2">
  <advance width="491"/>
  <unicode hex="E005"/>
  <outline>
    <contour>
      <point x="7" y="277" type="curve"/>
      <point x="3" y="274"/>
      <point x="0" y="270"/>
      <point x="0" y="265" type="curve" smooth="yes"/>
      <point x="0" y="263"/>
      <point x="1" y="261"/>
      <point x="1" y="260" type="curve"/>
      <point x="2" y="257"/>
      <point x="61" y="0"/>
      <point x="369" y="0" type="curve" smooth="yes"/>
      <point x="491" y="0" type="line"/>
      <point x="491" y="104" type="line" smooth="yes"/>
      <point x="491" y="112"/>
      <point x="485" y="117"/>
      <point x="477" y="117" type="curve" smooth="yes"/>
      <point x="318" y="117" type="line" smooth="yes"/>
      <point x="127" y="117"/>
      <point x="27" y="271"/>
      <point x="25" y="274" type="curve"/>
      <point x="23" y="278"/>
      <point x="18" y="279"/>
      <point x="14" y="279" type="curve" smooth="yes"/>
      <point x="12" y="279"/>
      <point x="9" y="278"/>
    </contour>
  </outline>
</glyph>
<glyph name="reversedBracketBottom" format="2">
  <advance width="491"/>
  <unicode hex="E006"/>
  <outline>
    <contour>
      <point x="7" y="-277" type="curve"/>
      <point x="9" y="-278"/>
      <point x="12" y="-279"/>
      <point x="14" y="-279" type="curve" smooth="yes"/>
      <point x="18" y="-279"/>
      <point x="23" y="-278"/>
      <point x="25" y="-274" type="curve"/>
      <point x="27" y="-271"/>
      <point x="127" y="-117"/>
      <point x="318" y="-117" type="curve" smooth="yes"/>
      <point x="477" y="-117" type="line" smooth="yes"/>
      <point x="485" y="-117"/>
      <point x="491" y="-112"/>
      <point x="491" y="-104" type="curve" smooth="yes"/>
      <point x="491" y="0" type="line"/>
      <point x="369" y="0" type="line" smooth="yes"/>
      <point x="61" y="0"/>
      <point x="2" y="-257"/>
      <point x="1" y="-260" type="curve"/>
      <point x="1" y="-261"/>
      <point x="0" y="-263"/>
      <point x="0" y="-265" type="curve" smooth="yes"/>
      <point x="0" y="-270"/>
      <point x="3" y="-274"/>
    </contour>
  </outline>
</glyph>
<glyph name="systemDividerLong" format="2">
  <advance width="1539"/>
  <unicode hex="E008"/>
  <outline>
    <contour>
      <point x="1510" y="622" type="curve" smooth="yes"/>
      <point x="18" y="151" type="line" smooth="yes"/>
      <point x="7" y="147"/>
      <point x="0" y="138"/>
      <point x="0" y="127" type="curve" smooth="yes"/>
      <point x="0" y="-72" type="line" smooth="yes"/>
      <point x="0" y="-84"/>
      <point x="8" y="-92"/>
      <point x="20" y="-92" type="curve" smooth="yes"/>
      <point x="23" y="-92"/>
      <point x="26" y="-91"/>
      <point x="29" y="-90" type="curve" smooth="yes"/>
      <point x="1521" y="381" type="line" smooth="yes"/>
      <point x="1532" y="385"/>
      <point x="1539" y="394"/>
      <point x="1539" y="405" type="curve" smooth="yes"/>
      <point x="1539" y="604" type="line" smooth="yes"/>
      <point x="1539" y="616"/>
      <point x="1531" y="624"/>
      <point x="1519" y="624" type="curve" smooth="yes"/>
      <point x="1516" y="624"/>
      <point x="1513" y="623"/>
    </contour>
    <contour>
      <point x="1510" y="1110" type="curve" smooth="yes"/>
      <point x="18" y="639" type="line" smooth="yes"/>
      <point x="7" y="635"/>
      <point x="0" y="626"/>
      <point x="0" y="615" type="curve" smooth="yes"/>
      <point x="0" y="416" type="line" smooth="yes"/>
      <point x="0" y="404"/>
      <point x="8" y="396"/>
      <point x="20" y="396" type="curve" smooth="yes"/>
      <point x="23" y="396"/>
      <point x="26" y="397"/>
      <point x="29" y="398" type="curve" smooth="yes"/>
      <point x="1521" y="869" type="line" smooth="yes"/>
      <point x="1532" y="873"/>
      <point x="1539" y="882"/>
      <point x="1539" y="893" type="curve" smooth="yes"/>
      <point x="1539" y="1092" type="line" smooth="yes"/>
      <point x="1539" y="1104"/>
      <point x="1531" y="1112"/>
      <point x="1519" y="1112" type="curve" smooth="yes"/>
      <point x="1516" y="1112"/>
      <point x="1513" y="1111"/>
    </contour>
  </outline>
</glyph>
<glyph name="systemDividerExtraLong" format="2">
  <advance width="2276"/>
  <unicode hex="E009"/>
  <outline>
    <contour>
      <point x="2242" y="577" type="curve" smooth="yes"/>
      <point x="25" y="187" type="line" smooth="yes"/>
      <point x="9" y="184"/>
      <point x="0" y="175"/>
      <point x="0" y="161" type="curve" smooth="yes"/>
      <point x="0" y="-30" type="line" smooth="yes"/>
      <point x="0" y="-42"/>
      <point x="8" y="-50"/>
      <point x="20" y="-50" type="curve" smooth="yes"/>
      <point x="23" y="-50"/>
      <point x="30" y="-49"/>
      <point x="34" y="-48" type="curve" smooth="yes"/>
      <point x="2251" y="342" type="line" smooth="yes"/>
      <point x="2267" y="345"/>
      <point x="2276" y="354"/>
      <point x="2276" y="368" type="curve" smooth="yes"/>
      <point x="2276" y="559" type="line" smooth="yes"/>
      <point x="2276" y="571"/>
      <point x="2268" y="579"/>
      <point x="2256" y="579" type="curve" smooth="yes"/>
      <point x="2253" y="579"/>
      <point x="2246" y="578"/>
    </contour>
    <contour>
      <point x="2242" y="1052" type="curve" smooth="yes"/>
      <point x="25" y="662" type="line" smooth="yes"/>
      <point x="9" y="659"/>
      <point x="0" y="650"/>
      <point x="0" y="636" type="curve" smooth="yes"/>
      <point x="0" y="445" type="line" smooth="yes"/>
      <point x="0" y="433"/>
      <point x="8" y="425"/>
      <point x="20" y="425" type="curve" smooth="yes"/>
      <point x="23" y="425"/>
      <point x="30" y="426"/>
      <point x="34" y="427" type="curve" smooth="yes"/>
      <point x="2251" y="817" type="line" smooth="yes"/>
      <point x="2267" y="820"/>
      <point x="2276" y="829"/>
      <point x="2276" y="843" type="curve" smooth="yes"/>
      <point x="2276" y="1034" type="line" smooth="yes"/>
      <point x="2276" y="1046"/>
      <point x="2268" y="1054"/>
      <point x="2256" y="1054" type="curve" smooth="yes"/>
      <point x="2253" y="1054"/>
      <point x="2246" y="1053"/>
    </contour>
  </outline>
</glyph>
<glyph name="repeatDots" format="2">
  <advance width="104"/>
  <unicode hex="E043"/>
  <outline>
    <contour>
      <point x="104" y="625" type="curve" smooth="yes"/>
      <point x="104" y="654"/>
      <point x="81" y="678"/>
      <point x="52" y="678" type="curve" smooth="yes"/>
      <point x="23" y="678"/>
      <point x="0" y="654"/>
      <point x="0" y="625" type="curve" smooth="yes"/>
      <point x="0" y="596"/>
      <point x="23" y="572"/>
      <point x="52" y="572" type="curve" smooth="yes"/>
      <point x="81" y="572"/>
      <point x="104" y="596"/>
    </contour>
    <contour>
      <point x="104" y="375" type="curve" smooth="yes"/>
      <point x="104" y="404"/>
      <point x="81" y="428"/>
      <point x="52" y="428" type="curve" smooth="yes"/>
      <point x="23" y="428"/>
      <point x="0" y="404"/>
      <point x="0" y="375" type="curve" smooth="yes"/>
      <point x="0" y="346"/>
      <point x="23" y="322"/>
      <point x="52" y="322" type="curve" smooth="yes"/>
      <point x="81" y="322"/>
      <point x="104" y="346"/>
    </contour>
  </outline>
</glyph>
<glyph name="repeatDot" format="2">
  <advance width="104"/>
  <unicode hex="E044"/>
  <outline>
    <contour>
      <point x="104" y="0" type="curve" smooth="yes"/>
      <point x="104" y="29"/>
      <point x="81" y="53"/>
      <point x="52" y="53" type="curve" smooth="yes"/>
      <point x="23" y="53"/>
      <point x="0" y="29"/>
      <point x="0" y="0" type="curve" smooth="yes"/>
      <point x="0" y="-29"/>
      <point x="23" y="-53"/>
      <point x="52" y="-53" type="curve" smooth="yes"/>
      <point x="81" y="-53"/>
      <point x="104" y="-29"/>
    </contour>
  </outline>
</glyph>
<glyph name="segno" format="2">
  <advance width="654"/>
  <unicode hex="E047"/>
  <outline>
    <contour>
      <point x="82" y="289" type="curve" smooth="yes"/>
      <point x="116" y="289"/>
      <point x="146" y="319"/>
      <point x="146" y="353" type="curve" smooth="yes"/>
      <point x="146" y="387"/>
      <point x="116" y="417"/>
      <point x="82" y="417" type="curve" smooth="yes"/>
      <point x="47" y="417"/>
      <point x="17" y="388"/>
      <point x="17" y="353" type="curve" smooth="yes"/>
      <point x="17" y="318"/>
      <point x="47" y="289"/>
    </contour>
    <contour>
      <point x="379" y="479" type="line"/>
      <point x="582" y="838" type="line"/>
      <point x="583" y="840"/>
      <point x="584" y="842"/>
      <point x="584" y="844" type="curve" smooth="yes"/>
      <point x="584" y="848"/>
      <point x="581" y="854"/>
      <point x="578" y="856" type="curve" smooth="yes"/>
      <point x="562" y="867" type="line"/>
      <point x="560" y="868"/>
      <point x="556" y="869"/>
      <point x="554" y="869" type="curve" smooth="yes"/>
      <point x="550" y="869"/>
      <point x="544" y="866"/>
      <point x="542" y="862" type="curve"/>
      <point x="338" y="501" type="line"/>
      <point x="151" y="597" type="line" smooth="yes"/>
      <point x="102" y="623"/>
      <point x="69" y="642"/>
      <point x="69" y="691" type="curve" smooth="yes"/>
      <point x="69" y="778"/>
      <point x="124" y="809"/>
      <point x="164" y="809" type="curve" smooth="yes"/>
      <point x="200" y="809"/>
      <point x="226" y="785"/>
      <point x="238" y="745" type="curve" smooth="yes"/>
      <point x="248" y="710"/>
      <point x="281" y="686"/>
      <point x="315" y="686" type="curve" smooth="yes"/>
      <point x="350" y="686"/>
      <point x="376" y="711"/>
      <point x="376" y="747" type="curve" smooth="yes"/>
      <point x="376" y="750"/>
      <point x="376" y="753"/>
      <point x="375" y="756" type="curve"/>
      <point x="371" y="775"/>
      <point x="357" y="851"/>
      <point x="204" y="851" type="curve" smooth="yes"/>
      <point x="50" y="851"/>
      <point x="0" y="731"/>
      <point x="0" y="652" type="curve" smooth="yes"/>
      <point x="0" y="573"/>
      <point x="29" y="523"/>
      <point x="87" y="490" type="curve"/>
      <point x="276" y="391" type="line"/>
      <point x="72" y="31" type="line"/>
      <point x="71" y="29"/>
      <point x="71" y="26"/>
      <point x="71" y="24" type="curve" smooth="yes"/>
      <point x="71" y="20"/>
      <point x="74" y="15"/>
      <point x="77" y="13" type="curve"/>
      <point x="92" y="2" type="line"/>
      <point x="94" y="1"/>
      <point x="98" y="0"/>
      <point x="100" y="0" type="curve" smooth="yes"/>
      <point x="103" y="0" type="line"/>
      <point x="106" y="1"/>
      <point x="110" y="4"/>
      <point x="112" y="7" type="curve"/>
      <point x="317" y="369" type="line"/>
      <point x="489" y="280" type="line"/>
      <point x="542" y="251"/>
      <point x="585" y="221"/>
      <point x="585" y="178" type="curve" smooth="yes"/>
      <point x="585" y="91"/>
      <point x="530" y="60"/>
      <point x="490" y="60" type="curve" smooth="yes"/>
      <point x="454" y="60"/>
      <point x="428" y="83"/>
      <point x="416" y="123" type="curve" smooth="yes"/>
      <point x="406" y="158"/>
      <point x="373" y="182"/>
      <point x="339" y="182" type="curve" smooth="yes"/>
      <point x="305" y="182"/>
      <point x="279" y="157"/>
      <point x="279" y="123" type="curve" smooth="yes"/>
      <point x="279" y="119"/>
      <point x="279" y="116"/>
      <point x="280" y="113" type="curve"/>
      <point x="284" y="94"/>
      <point x="298" y="18"/>
      <point x="451" y="18" type="curve" smooth="yes"/>
      <point x="605" y="18"/>
      <point x="654" y="138"/>
      <point x="654" y="217" type="curve" smooth="yes"/>
      <point x="654" y="296"/>
      <point x="626" y="352"/>
      <point x="570" y="381" type="curve" smooth="yes"/>
    </contour>
    <contour>
      <point x="573" y="488" type="curve" smooth="yes"/>
      <point x="607" y="488"/>
      <point x="637" y="518"/>
      <point x="637" y="552" type="curve" smooth="yes"/>
      <point x="637" y="587"/>
      <point x="608" y="617"/>
      <point x="573" y="617" type="curve" smooth="yes"/>
      <point x="538" y="617"/>
      <point x="509" y="587"/>
      <point x="509" y="552" type="curve" smooth="yes"/>
      <point x="509" y="518"/>
      <point x="539" y="488"/>
    </contour>
  </outline>
</glyph>
<glyph name="coda" format="2">
  <advance width="745"/>
  <unicode hex="E048"/>
  <outline>
    <contour>
      <point x="642" y="324" type="line"/>
      <point x="636" y="484"/>
      <point x="526" y="612"/>
      <point x="389" y="622" type="curve"/>
      <point x="389" y="721" type="line" smooth="yes"/>
      <point x="389" y="729"/>
      <point x="383" y="735"/>
      <point x="375" y="735" type="curve" smooth="yes"/>
      <point x="364" y="735" type="line" smooth="yes"/>
      <point x="356" y="735"/>
      <point x="351" y="729"/>
      <point x="351" y="721" type="curve" smooth="yes"/>
      <point x="351" y="622" type="line"/>
      <point x="216" y="609"/>
      <point x="110" y="481"/>
      <point x="104" y="324" type="curve"/>
      <point x="14" y="324" type="line" smooth="yes"/>
      <point x="6" y="324"/>
      <point x="0" y="318"/>
      <point x="0" y="310" type="curve" smooth="yes"/>
      <point x="0" y="300" type="line" smooth="yes"/>
      <point x="0" y="292"/>
      <point x="6" y="286"/>
      <point x="14" y="286" type="curve" smooth="yes"/>
      <point x="104" y="286" type="line"/>
      <point x="115" y="134"/>
      <point x="220" y="12"/>
      <point x="351" y="0" type="curve"/>
      <point x="351" y="-99" type="line" smooth="yes"/>
      <point x="351" y="-107"/>
      <point x="356" y="-113"/>
      <point x="364" y="-113" type="curve" smooth="yes"/>
      <point x="375" y="-113" type="line" smooth="yes"/>
      <point x="383" y="-113"/>
      <point x="389" y="-107"/>
      <point x="389" y="-99" type="curve" smooth="yes"/>
      <point x="389" y="0" type="line"/>
      <point x="523" y="9"/>
      <point x="630" y="132"/>
      <point x="641" y="286" type="curve"/>
      <point x="732" y="286" type="line" smooth="yes"/>
      <point x="740" y="286"/>
      <point x="745" y="292"/>
      <point x="745" y="300" type="curve" smooth="yes"/>
      <point x="745" y="310" type="line" smooth="yes"/>
      <point x="745" y="318"/>
      <point x="740" y="324"/>
      <point x="732" y="324" type="curve" smooth="yes"/>
    </contour>
    <contour>
      <point x="389" y="324" type="line"/>
      <point x="389" y="592" type="line"/>
      <point x="497" y="581"/>
      <point x="537" y="466"/>
      <point x="537" y="324" type="curve"/>
    </contour>
    <contour>
      <point x="351" y="324" type="line"/>
      <point x="209" y="324" type="line"/>
      <point x="209" y="464"/>
      <point x="248" y="577"/>
      <point x="351" y="591" type="curve"/>
    </contour>
    <contour>
      <point x="351" y="286" type="line"/>
      <point x="351" y="31" type="line"/>
      <point x="254" y="45"/>
      <point x="209" y="152"/>
      <point x="209" y="286" type="curve"/>
    </contour>
    <contour>
      <point x="389" y="286" type="line"/>
      <point x="536" y="286" type="line"/>
      <point x="536" y="149"/>
      <point x="490" y="42"/>
      <point x="389" y="31" type="curve"/>
    </contour>
  </outline>
</glyph>
<glyph name="codaSquare" format="2">
  <advance width="738"/>
  <unicode hex="E049"/>
  <outline>
    <contour>
      <point x="632" y="324" type="line"/>
      <point x="632" y="599" type="line" smooth="yes"/>
      <point x="632" y="613"/>
      <point x="623" y="622"/>
      <point x="610" y="622" type="curve" smooth="yes"/>
      <point x="389" y="622" type="line"/>
      <point x="389" y="735" type="line"/>
      <point x="350" y="735" type="line"/>
      <point x="350" y="622" type="line"/>
      <point x="129" y="622" type="line" smooth="yes"/>
      <point x="115" y="622"/>
      <point x="106" y="613"/>
      <point x="106" y="599" type="curve" smooth="yes"/>
      <point x="106" y="324" type="line"/>
      <point x="0" y="324" type="line"/>
      <point x="0" y="286" type="line"/>
      <point x="106" y="286" type="line"/>
      <point x="106" y="22" type="line" smooth="yes"/>
      <point x="106" y="9"/>
      <point x="115" y="0"/>
      <point x="129" y="0" type="curve" smooth="yes"/>
      <point x="350" y="0" type="line"/>
      <point x="350" y="-113" type="line"/>
      <point x="389" y="-113" type="line"/>
      <point x="389" y="0" type="line"/>
      <point x="610" y="0" type="line" smooth="yes"/>
      <point x="623" y="0"/>
      <point x="632" y="9"/>
      <point x="632" y="22" type="curve" smooth="yes"/>
      <point x="632" y="286" type="line"/>
      <point x="738" y="286" type="line"/>
      <point x="738" y="324" type="line"/>
    </contour>
    <contour>
      <point x="526" y="324" type="line"/>
      <point x="389" y="324" type="line"/>
      <point x="389" y="592" type="line"/>
      <point x="526" y="592" type="line"/>
    </contour>
    <contour>
      <point x="350" y="324" type="line"/>
      <point x="213" y="324" type="line"/>
      <point x="213" y="592" type="line"/>
      <point x="350" y="592" type="line"/>
    </contour>
    <contour>
      <point x="213" y="286" type="line"/>
      <point x="350" y="286" type="line"/>
      <point x="350" y="30" type="line"/>
      <point x="213" y="30" type="line"/>
    </contour>
    <contour>
      <point x="389" y="286" type="line"/>
      <point x="526" y="286" type="line"/>
      <point x="526" y="30" type="line"/>
      <point x="389" y="30" type="line"/>
    </contour>
  </outline>
</glyph>
<glyph name="segnoSerpent1" format="2">
  <advance width="554"/>
  <unicode hex="E04A"/>
  <outline>
    <contour>
      <point x="279" y="1240" type="curve" smooth="yes"/>
      <point x="343" y="1240"/>
      <point x="396" y="1222"/>
      <point x="433" y="1192" type="curve"/>
      <point x="433" y="1183" type="line"/>
      <point x="345" y="1122" type="line"/>
      <point x="340" y="1110"/>
      <point x="337" y="1094"/>
      <point x="337" y="1079" type="curve" smooth="yes"/>
      <point x="337" y="1023"/>
      <point x="374" y="985"/>
      <point x="430" y="985" type="curve" smooth="yes"/>
      <point x="489" y="985"/>
      <point x="528" y="1023"/>
      <point x="528" y="1079" type="curve" smooth="yes"/>
      <point x="528" y="1200"/>
      <point x="429" y="1280"/>
      <point x="283" y="1280" type="curve" smooth="yes"/>
      <point x="126" y="1280"/>
      <point x="20" y="1187"/>
      <point x="20" y="1048" type="curve" smooth="yes"/>
      <point x="20" y="948"/>
      <point x="74" y="866"/>
      <point x="171" y="817" type="curve" smooth="yes"/>
      <point x="371" y="717" type="line" smooth="yes"/>
      <point x="439" y="683"/>
      <point x="475" y="629"/>
      <point x="475" y="562" type="curve" smooth="yes"/>
      <point x="475" y="530"/>
      <point x="466" y="504"/>
      <point x="448" y="486" type="curve"/>
      <point x="476" y="461" type="line"/>
      <point x="531" y="513"/>
      <point x="554" y="563"/>
      <point x="554" y="631" type="curve" smooth="yes"/>
      <point x="554" y="737"/>
      <point x="501" y="821"/>
      <point x="403" y="870" type="curve" smooth="yes"/>
      <point x="203" y="970" type="line" smooth="yes"/>
      <point x="137" y="1003"/>
      <point x="99" y="1055"/>
      <point x="99" y="1111" type="curve" smooth="yes"/>
      <point x="99" y="1189"/>
      <point x="172" y="1240"/>
    </contour>
    <contour>
      <point x="110" y="859" type="curve"/>
      <point x="85" y="887" type="line"/>
      <point x="27" y="836"/>
      <point x="0" y="785"/>
      <point x="0" y="711" type="curve" smooth="yes"/>
      <point x="0" y="606"/>
      <point x="55" y="524"/>
      <point x="158" y="474" type="curve" smooth="yes"/>
      <point x="366" y="374" type="line" smooth="yes"/>
      <point x="437" y="340"/>
      <point x="475" y="286"/>
      <point x="475" y="219" type="curve" smooth="yes"/>
      <point x="475" y="185"/>
      <point x="465" y="157"/>
      <point x="444" y="139" type="curve"/>
      <point x="471" y="113" type="line"/>
      <point x="531" y="170"/>
      <point x="554" y="220"/>
      <point x="554" y="288" type="curve" smooth="yes"/>
      <point x="554" y="394"/>
      <point x="499" y="478"/>
      <point x="396" y="527" type="curve" smooth="yes"/>
      <point x="188" y="627" type="line" smooth="yes"/>
      <point x="117" y="661"/>
      <point x="79" y="714"/>
      <point x="79" y="780" type="curve" smooth="yes"/>
      <point x="79" y="814"/>
      <point x="89" y="841"/>
    </contour>
    <contour>
      <point x="275" y="-241" type="curve" smooth="yes"/>
      <point x="211" y="-241"/>
      <point x="158" y="-223"/>
      <point x="121" y="-193" type="curve"/>
      <point x="121" y="-184" type="line"/>
      <point x="209" y="-123" type="line"/>
      <point x="214" y="-111"/>
      <point x="217" y="-95"/>
      <point x="217" y="-80" type="curve" smooth="yes"/>
      <point x="217" y="-24"/>
      <point x="180" y="14"/>
      <point x="124" y="14" type="curve" smooth="yes"/>
      <point x="65" y="14"/>
      <point x="26" y="-28"/>
      <point x="26" y="-97" type="curve" smooth="yes"/>
      <point x="26" y="-206"/>
      <point x="125" y="-281"/>
      <point x="269" y="-281" type="curve" smooth="yes"/>
      <point x="430" y="-281"/>
      <point x="534" y="-188"/>
      <point x="534" y="-49" type="curve" smooth="yes"/>
      <point x="534" y="51"/>
      <point x="480" y="134"/>
      <point x="383" y="182" type="curve" smooth="yes"/>
      <point x="183" y="282" type="line" smooth="yes"/>
      <point x="115" y="316"/>
      <point x="79" y="370"/>
      <point x="79" y="437" type="curve" smooth="yes"/>
      <point x="79" y="469"/>
      <point x="88" y="495"/>
      <point x="106" y="513" type="curve"/>
      <point x="78" y="538" type="line"/>
      <point x="23" y="486"/>
      <point x="0" y="436"/>
      <point x="0" y="368" type="curve" smooth="yes"/>
      <point x="0" y="262"/>
      <point x="53" y="178"/>
      <point x="151" y="129" type="curve" smooth="yes"/>
      <point x="351" y="29" type="line" smooth="yes"/>
      <point x="417" y="-4"/>
      <point x="455" y="-56"/>
      <point x="455" y="-112" type="curve" smooth="yes"/>
      <point x="455" y="-190"/>
      <point x="382" y="-241"/>
    </contour>
  </outline>
</glyph>
<glyph name="gClef15mb" format="2">
  <advance width="640"/>
  <unicode hex="E051"/>
  <outline>
    <contour>
      <point x="216" y="-707" type="line" smooth="yes"/>
      <point x="226" y="-707"/>
      <point x="230" y="-711"/>
      <point x="227" y="-721" type="curve" smooth="yes"/>
      <point x="191" y="-856" type="line" smooth="yes"/>
      <point x="188" y="-866"/>
      <point x="182" y="-870"/>
      <point x="172" y="-870" type="curve" smooth="yes"/>
      <point x="146" y="-870" type="line"/>
      <point x="143" y="-893" type="line"/>
      <point x="282" y="-893" type="line"/>
      <point x="285" y="-870" type="line"/>
      <point x="256" y="-870" type="line" smooth="yes"/>
      <point x="246" y="-870"/>
      <point x="242" y="-866"/>
      <point x="245" y="-856" type="curve" smooth="yes"/>
      <point x="296" y="-666" type="line"/>
      <point x="303" y="-666" type="line" smooth="yes"/>
      <point x="421" y="-666"/>
      <point x="500" y="-585"/>
      <point x="500" y="-470" type="curve" smooth="yes"/>
      <point x="500" y="-424"/>
      <point x="487" y="-339"/>
      <point x="469" y="-231" type="curve"/>
      <point x="574" y="-192"/>
      <point x="640" y="-102"/>
      <point x="640" y="14" type="curve" smooth="yes"/>
      <point x="640" y="152"/>
      <point x="544" y="255"/>
      <point x="416" y="255" type="curve" smooth="yes"/>
      <point x="405" y="255"/>
      <point x="394" y="255"/>
      <point x="383" y="253" type="curve"/>
      <point x="353" y="422" type="line"/>
      <point x="472" y="531"/>
      <point x="537" y="682"/>
      <point x="537" y="836" type="curve" smooth="yes"/>
      <point x="537" y="937"/>
      <point x="491" y="1048"/>
      <point x="420" y="1116" type="curve"/>
      <point x="329" y="1072"/>
      <point x="268" y="937"/>
      <point x="268" y="781" type="curve" smooth="yes"/>
      <point x="268" y="724"/>
      <point x="276" y="646"/>
      <point x="289" y="555" type="curve"/>
      <point x="228" y="497" type="line" smooth="yes"/>
      <point x="72" y="349"/>
      <point x="0" y="225"/>
      <point x="0" y="88" type="curve" smooth="yes"/>
      <point x="0" y="-106"/>
      <point x="142" y="-253"/>
      <point x="344" y="-253" type="curve" smooth="yes"/>
      <point x="374" y="-253"/>
      <point x="402" y="-250"/>
      <point x="428" y="-244" type="curve"/>
      <point x="446" y="-347"/>
      <point x="458" y="-426"/>
      <point x="458" y="-467" type="curve" smooth="yes"/>
      <point x="458" y="-561"/>
      <point x="396" y="-626"/>
      <point x="304" y="-626" type="curve" smooth="yes"/>
      <point x="278" y="-626"/>
      <point x="257" y="-621"/>
      <point x="239" y="-614" type="curve"/>
      <point x="239" y="-604" type="line"/>
      <point x="334" y="-538" type="line"/>
      <point x="340" y="-523"/>
      <point x="343" y="-505"/>
      <point x="343" y="-488" type="curve" smooth="yes"/>
      <point x="343" y="-423"/>
      <point x="302" y="-380"/>
      <point x="238" y="-380" type="curve" smooth="yes"/>
      <point x="169" y="-380"/>
      <point x="122" y="-430"/>
      <point x="122" y="-504" type="curve" smooth="yes"/>
      <point x="122" y="-587"/>
      <point x="181" y="-655"/>
      <point x="276" y="-665" type="curve"/>
      <point x="259" y="-678"/>
      <point x="227" y="-686"/>
      <point x="193" y="-686" type="curve" smooth="yes"/>
      <point x="191" y="-686" type="line"/>
      <point x="185" y="-707" type="line"/>
    </contour>
    <contour>
      <point x="98" y="46" type="curve" smooth="yes"/>
      <point x="98" y="154"/>
      <point x="155" y="248"/>
      <point x="315" y="388" type="curve"/>
      <point x="340" y="242" type="line"/>
      <point x="253" y="212"/>
      <point x="190" y="132"/>
      <point x="190" y="38" type="curve" smooth="yes"/>
      <point x="190" y="-54"/>
      <point x="249" y="-123"/>
      <point x="336" y="-141" type="curve"/>
      <point x="342" y="-112" type="line"/>
      <point x="292" y="-101"/>
      <point x="259" y="-50"/>
      <point x="259" y="7" type="curve" smooth="yes"/>
      <point x="259" y="69"/>
      <point x="298" y="117"/>
      <point x="359" y="133" type="curve"/>
      <point x="421" y="-204" type="line"/>
      <point x="400" y="-210"/>
      <point x="378" y="-213"/>
      <point x="354" y="-213" type="curve" smooth="yes"/>
      <point x="207" y="-213"/>
      <point x="98" y="-104"/>
    </contour>
    <contour>
      <point x="328" y="594" type="curve"/>
      <point x="323" y="636"/>
      <point x="320" y="671"/>
      <point x="320" y="704" type="curve" smooth="yes"/>
      <point x="320" y="834"/>
      <point x="365" y="926"/>
      <point x="456" y="983" type="curve"/>
      <point x="471" y="946"/>
      <point x="478" y="904"/>
      <point x="478" y="863" type="curve" smooth="yes"/>
      <point x="478" y="775"/>
      <point x="445" y="713"/>
    </contour>
    <contour>
      <point x="462" y="-189" type="curve"/>
      <point x="403" y="139" type="line"/>
      <point x="500" y="139"/>
      <point x="561" y="78"/>
      <point x="561" y="-20" type="curve" smooth="yes"/>
      <point x="561" y="-97"/>
      <point x="524" y="-157"/>
    </contour>
    <contour>
      <point x="329" y="-867" type="curve"/>
      <point x="331" y="-864" type="line"/>
      <point x="345" y="-856" type="line"/>
      <point x="349" y="-851"/>
      <point x="352" y="-842"/>
      <point x="352" y="-834" type="curve" smooth="yes"/>
      <point x="352" y="-820"/>
      <point x="341" y="-810"/>
      <point x="325" y="-810" type="curve" smooth="yes"/>
      <point x="305" y="-810"/>
      <point x="292" y="-824"/>
      <point x="292" y="-845" type="curve" smooth="yes"/>
      <point x="292" y="-877"/>
      <point x="319" y="-898"/>
      <point x="360" y="-898" type="curve" smooth="yes"/>
      <point x="419" y="-898"/>
      <point x="459" y="-863"/>
      <point x="459" y="-812" type="curve" smooth="yes"/>
      <point x="459" y="-771"/>
      <point x="432" y="-745"/>
      <point x="392" y="-745" type="curve" smooth="yes"/>
      <point x="377" y="-745"/>
      <point x="364" y="-748"/>
      <point x="353" y="-755" type="curve"/>
      <point x="364" y="-718" type="line"/>
      <point x="377" y="-721"/>
      <point x="391" y="-723"/>
      <point x="404" y="-723" type="curve" smooth="yes"/>
      <point x="446" y="-723"/>
      <point x="479" y="-701"/>
      <point x="479" y="-669" type="curve"/>
      <point x="472" y="-664" type="line"/>
      <point x="458" y="-670"/>
      <point x="446" y="-673"/>
      <point x="427" y="-673" type="curve" smooth="yes"/>
      <point x="406" y="-673"/>
      <point x="384" y="-670"/>
      <point x="358" y="-664" type="curve"/>
      <point x="355" y="-663" type="line"/>
      <point x="325" y="-766" type="line"/>
      <point x="317" y="-770"/>
      <point x="313" y="-776"/>
      <point x="313" y="-783" type="curve" smooth="yes"/>
      <point x="313" y="-791"/>
      <point x="318" y="-797"/>
      <point x="326" y="-797" type="curve" smooth="yes"/>
      <point x="336" y="-797"/>
      <point x="343" y="-790"/>
      <point x="345" y="-778" type="curve"/>
      <point x="351" y="-774"/>
      <point x="362" y="-771"/>
      <point x="370" y="-771" type="curve" smooth="yes"/>
      <point x="389" y="-771"/>
      <point x="401" y="-789"/>
      <point x="401" y="-817" type="curve" smooth="yes"/>
      <point x="401" y="-852"/>
      <point x="382" y="-876"/>
      <point x="353" y="-876" type="curve" smooth="yes"/>
      <point x="340" y="-876"/>
      <point x="329" y="-870"/>
    </contour>
  </outline>
</glyph>
<glyph name="gClef8va" format="2">
  <advance width="640"/>
  <unicode hex="E053"/>
  <outline>
    <contour>
      <point x="516" y="1284" type="curve" smooth="yes"/>
      <point x="516" y="1316"/>
      <point x="489" y="1337"/>
      <point x="449" y="1337" type="curve" smooth="yes"/>
      <point x="402" y="1337"/>
      <point x="366" y="1306"/>
      <point x="366" y="1266" type="curve" smooth="yes"/>
      <point x="366" y="1247"/>
      <point x="373" y="1233"/>
      <point x="387" y="1219" type="curve"/>
      <point x="354" y="1206"/>
      <point x="335" y="1184"/>
      <point x="335" y="1158" type="curve" smooth="yes"/>
      <point x="335" y="1128"/>
      <point x="359" y="1107"/>
      <point x="398" y="1104" type="curve"/>
      <point x="319" y="1050"/>
      <point x="268" y="924"/>
      <point x="268" y="781" type="curve" smooth="yes"/>
      <point x="268" y="724"/>
      <point x="276" y="646"/>
      <point x="289" y="555" type="curve"/>
      <point x="228" y="497" type="line" smooth="yes"/>
      <point x="72" y="349"/>
      <point x="0" y="225"/>
      <point x="0" y="88" type="curve" smooth="yes"/>
      <point x="0" y="-106"/>
      <point x="142" y="-253"/>
      <point x="344" y="-253" type="curve" smooth="yes"/>
      <point x="374" y="-253"/>
      <point x="402" y="-250"/>
      <point x="428" y="-244" type="curve"/>
      <point x="446" y="-347"/>
      <point x="458" y="-426"/>
      <point x="458" y="-467" type="curve" smooth="yes"/>
      <point x="458" y="-561"/>
      <point x="396" y="-626"/>
      <point x="304" y="-626" type="curve" smooth="yes"/>
      <point x="278" y="-626"/>
      <point x="257" y="-621"/>
      <point x="239" y="-614" type="curve"/>
      <point x="239" y="-604" type="line"/>
      <point x="334" y="-538" type="line"/>
      <point x="340" y="-523"/>
      <point x="343" y="-505"/>
      <point x="343" y="-488" type="curve" smooth="yes"/>
      <point x="343" y="-423"/>
      <point x="302" y="-380"/>
      <point x="238" y="-380" type="curve" smooth="yes"/>
      <point x="169" y="-380"/>
      <point x="122" y="-430"/>
      <point x="122" y="-504" type="curve" smooth="yes"/>
      <point x="122" y="-595"/>
      <point x="192" y="-666"/>
      <point x="303" y="-666" type="curve" smooth="yes"/>
      <point x="421" y="-666"/>
      <point x="500" y="-585"/>
      <point x="500" y="-470" type="curve" smooth="yes"/>
      <point x="500" y="-424"/>
      <point x="487" y="-339"/>
      <point x="469" y="-231" type="curve"/>
      <point x="574" y="-192"/>
      <point x="640" y="-102"/>
      <point x="640" y="14" type="curve" smooth="yes"/>
      <point x="640" y="152"/>
      <point x="544" y="255"/>
      <point x="416" y="255" type="curve" smooth="yes"/>
      <point x="405" y="255"/>
      <point x="394" y="255"/>
      <point x="383" y="253" type="curve"/>
      <point x="353" y="422" type="line"/>
      <point x="472" y="531"/>
      <point x="537" y="682"/>
      <point x="537" y="836" type="curve" smooth="yes"/>
      <point x="537" y="932"/>
      <point x="496" y="1036"/>
      <point x="431" y="1105" type="curve"/>
      <point x="473" y="1112"/>
      <point x="501" y="1139"/>
      <point x="501" y="1176" type="curve" smooth="yes"/>
      <point x="501" y="1199"/>
      <point x="491" y="1218"/>
      <point x="473" y="1231" type="curve"/>
      <point x="503" y="1244"/>
      <point x="516" y="1261"/>
    </contour>
    <contour>
      <point x="98" y="46" type="curve" smooth="yes"/>
      <point x="98" y="154"/>
      <point x="155" y="248"/>
      <point x="315" y="388" type="curve"/>
      <point x="340" y="242" type="line"/>
      <point x="253" y="212"/>
      <point x="190" y="132"/>
      <point x="190" y="38" type="curve" smooth="yes"/>
      <point x="190" y="-54"/>
      <point x="249" y="-123"/>
      <point x="336" y="-141" type="curve"/>
      <point x="342" y="-112" type="line"/>
      <point x="292" y="-101"/>
      <point x="259" y="-50"/>
      <point x="259" y="7" type="curve" smooth="yes"/>
      <point x="259" y="69"/>
      <point x="298" y="117"/>
      <point x="359" y="133" type="curve"/>
      <point x="421" y="-204" type="line"/>
      <point x="400" y="-210"/>
      <point x="378" y="-213"/>
      <point x="354" y="-213" type="curve" smooth="yes"/>
      <point x="207" y="-213"/>
      <point x="98" y="-104"/>
    </contour>
    <contour>
      <point x="328" y="594" type="curve"/>
      <point x="323" y="636"/>
      <point x="320" y="671"/>
      <point x="320" y="704" type="curve" smooth="yes"/>
      <point x="320" y="834"/>
      <point x="365" y="926"/>
      <point x="456" y="983" type="curve"/>
      <point x="471" y="946"/>
      <point x="478" y="904"/>
      <point x="478" y="863" type="curve" smooth="yes"/>
      <point x="478" y="775"/>
      <point x="445" y="713"/>
    </contour>
    <contour>
      <point x="462" y="-189" type="curve"/>
      <point x="403" y="139" type="line"/>
      <point x="500" y="139"/>
      <point x="561" y="78"/>
      <point x="561" y="-20" type="curve" smooth="yes"/>
      <point x="561" y="-97"/>
      <point x="524" y="-157"/>
    </contour>
    <contour>
      <point x="416" y="1124" type="curve" smooth="yes"/>
      <point x="394" y="1124"/>
      <point x="379" y="1138"/>
      <point x="379" y="1161" type="curve" smooth="yes"/>
      <point x="379" y="1179"/>
      <point x="388" y="1195"/>
      <point x="405" y="1205" type="curve"/>
      <point x="427" y="1193" type="line" smooth="yes"/>
      <point x="446" y="1182"/>
      <point x="454" y="1172"/>
      <point x="454" y="1158" type="curve" smooth="yes"/>
      <point x="454" y="1139"/>
      <point x="438" y="1124"/>
    </contour>
    <contour>
      <point x="454" y="1244" type="curve"/>
      <point x="430" y="1257" type="line" smooth="yes"/>
      <point x="415" y="1265"/>
      <point x="410" y="1273"/>
      <point x="410" y="1285" type="curve" smooth="yes"/>
      <point x="410" y="1303"/>
      <point x="424" y="1316"/>
      <point x="444" y="1316" type="curve" smooth="yes"/>
      <point x="463" y="1316"/>
      <point x="475" y="1304"/>
      <point x="475" y="1283" type="curve" smooth="yes"/>
      <point x="475" y="1267"/>
      <point x="469" y="1256"/>
    </contour>
  </outline>
</glyph>
<glyph name="gClef15ma" format="2">
  <advance width="640"/>
  <unicode hex="E054"/>
  <outline>
    <contour>
      <point x="423" y="1134" type="curve"/>
      <point x="425" y="1137" type="line"/>
      <point x="439" y="1145" type="line"/>
      <point x="443" y="1150"/>
      <point x="446" y="1159"/>
      <point x="446" y="1167" type="curve" smooth="yes"/>
      <point x="446" y="1181"/>
      <point x="435" y="1191"/>
      <point x="419" y="1191" type="curve" smooth="yes"/>
      <point x="399" y="1191"/>
      <point x="386" y="1177"/>
      <point x="386" y="1156" type="curve" smooth="yes"/>
      <point x="386" y="1137"/>
      <point x="396" y="1121"/>
      <point x="413" y="1112" type="curve"/>
      <point x="326" y="1064"/>
      <point x="268" y="933"/>
      <point x="268" y="781" type="curve" smooth="yes"/>
      <point x="268" y="724"/>
      <point x="276" y="646"/>
      <point x="289" y="555" type="curve"/>
      <point x="228" y="497" type="line" smooth="yes"/>
      <point x="72" y="349"/>
      <point x="0" y="225"/>
      <point x="0" y="88" type="curve" smooth="yes"/>
      <point x="0" y="-106"/>
      <point x="142" y="-253"/>
      <point x="344" y="-253" type="curve" smooth="yes"/>
      <point x="374" y="-253"/>
      <point x="402" y="-250"/>
      <point x="428" y="-244" type="curve"/>
      <point x="446" y="-347"/>
      <point x="458" y="-426"/>
      <point x="458" y="-467" type="curve" smooth="yes"/>
      <point x="458" y="-561"/>
      <point x="396" y="-626"/>
      <point x="304" y="-626" type="curve" smooth="yes"/>
      <point x="278" y="-626"/>
      <point x="257" y="-621"/>
      <point x="239" y="-614" type="curve"/>
      <point x="239" y="-604" type="line"/>
      <point x="334" y="-538" type="line"/>
      <point x="340" y="-523"/>
      <point x="343" y="-505"/>
      <point x="343" y="-488" type="curve" smooth="yes"/>
      <point x="343" y="-423"/>
      <point x="302" y="-380"/>
      <point x="238" y="-380" type="curve" smooth="yes"/>
      <point x="169" y="-380"/>
      <point x="122" y="-430"/>
      <point x="122" y="-504" type="curve" smooth="yes"/>
      <point x="122" y="-595"/>
      <point x="192" y="-666"/>
      <point x="303" y="-666" type="curve" smooth="yes"/>
      <point x="421" y="-666"/>
      <point x="500" y="-585"/>
      <point x="500" y="-470" type="curve" smooth="yes"/>
      <point x="500" y="-424"/>
      <point x="487" y="-339"/>
      <point x="469" y="-231" type="curve"/>
      <point x="574" y="-192"/>
      <point x="640" y="-102"/>
      <point x="640" y="14" type="curve" smooth="yes"/>
      <point x="640" y="152"/>
      <point x="544" y="255"/>
      <point x="416" y="255" type="curve" smooth="yes"/>
      <point x="405" y="255"/>
      <point x="394" y="255"/>
      <point x="383" y="253" type="curve"/>
      <point x="353" y="422" type="line"/>
      <point x="472" y="531"/>
      <point x="537" y="682"/>
      <point x="537" y="836" type="curve" smooth="yes"/>
      <point x="537" y="932"/>
      <point x="495" y="1037"/>
      <point x="430" y="1106" type="curve"/>
      <point x="437" y="1104"/>
      <point x="445" y="1103"/>
      <point x="454" y="1103" type="curve" smooth="yes"/>
      <point x="513" y="1103"/>
      <point x="553" y="1138"/>
      <point x="553" y="1189" type="curve" smooth="yes"/>
      <point x="553" y="1230"/>
      <point x="526" y="1256"/>
      <point x="486" y="1256" type="curve" smooth="yes"/>
      <point x="471" y="1256"/>
      <point x="458" y="1253"/>
      <point x="447" y="1246" type="curve"/>
      <point x="458" y="1283" type="line"/>
      <point x="471" y="1280"/>
      <point x="485" y="1278"/>
      <point x="498" y="1278" type="curve" smooth="yes"/>
      <point x="540" y="1278"/>
      <point x="573" y="1300"/>
      <point x="573" y="1332" type="curve"/>
      <point x="566" y="1337" type="line"/>
      <point x="552" y="1331"/>
      <point x="540" y="1328"/>
      <point x="521" y="1328" type="curve" smooth="yes"/>
      <point x="500" y="1328"/>
      <point x="478" y="1331"/>
      <point x="452" y="1337" type="curve"/>
      <point x="449" y="1338" type="line"/>
      <point x="419" y="1235" type="line"/>
      <point x="411" y="1231"/>
      <point x="407" y="1225"/>
      <point x="407" y="1218" type="curve" smooth="yes"/>
      <point x="407" y="1210"/>
      <point x="412" y="1204"/>
      <point x="420" y="1204" type="curve" smooth="yes"/>
      <point x="430" y="1204"/>
      <point x="437" y="1211"/>
      <point x="439" y="1223" type="curve"/>
      <point x="445" y="1227"/>
      <point x="456" y="1230"/>
      <point x="464" y="1230" type="curve" smooth="yes"/>
      <point x="483" y="1230"/>
      <point x="495" y="1212"/>
      <point x="495" y="1184" type="curve" smooth="yes"/>
      <point x="495" y="1149"/>
      <point x="476" y="1125"/>
      <point x="447" y="1125" type="curve" smooth="yes"/>
      <point x="434" y="1125"/>
      <point x="423" y="1131"/>
    </contour>
    <contour>
      <point x="98" y="46" type="curve" smooth="yes"/>
      <point x="98" y="154"/>
      <point x="155" y="248"/>
      <point x="315" y="388" type="curve"/>
      <point x="340" y="242" type="line"/>
      <point x="253" y="212"/>
      <point x="190" y="132"/>
      <point x="190" y="38" type="curve" smooth="yes"/>
      <point x="190" y="-54"/>
      <point x="249" y="-123"/>
      <point x="336" y="-141" type="curve"/>
      <point x="342" y="-112" type="line"/>
      <point x="292" y="-101"/>
      <point x="259" y="-50"/>
      <point x="259" y="7" type="curve" smooth="yes"/>
      <point x="259" y="69"/>
      <point x="298" y="117"/>
      <point x="359" y="133" type="curve"/>
      <point x="421" y="-204" type="line"/>
      <point x="400" y="-210"/>
      <point x="378" y="-213"/>
      <point x="354" y="-213" type="curve" smooth="yes"/>
      <point x="207" y="-213"/>
      <point x="98" y="-104"/>
    </contour>
    <contour>
      <point x="328" y="594" type="curve"/>
      <point x="323" y="636"/>
      <point x="320" y="671"/>
      <point x="320" y="704" type="curve" smooth="yes"/>
      <point x="320" y="834"/>
      <point x="365" y="926"/>
      <point x="456" y="983" type="curve"/>
      <point x="471" y="946"/>
      <point x="478" y="904"/>
      <point x="478" y="863" type="curve" smooth="yes"/>
      <point x="478" y="775"/>
      <point x="445" y="713"/>
    </contour>
    <contour>
      <point x="462" y="-189" type="curve"/>
      <point x="403" y="139" type="line"/>
      <point x="500" y="139"/>
      <point x="561" y="78"/>
      <point x="561" y="-20" type="curve" smooth="yes"/>
      <point x="561" y="-97"/>
      <point x="524" y="-157"/>
    </contour>
    <contour>
      <point x="372" y="1338" type="line"/>
      <point x="356" y="1324"/>
      <point x="323" y="1315"/>
      <point x="287" y="1315" type="curve" smooth="yes"/>
      <point x="285" y="1315" type="line"/>
      <point x="279" y="1294" type="line"/>
      <point x="310" y="1294" type="line" smooth="yes"/>
      <point x="320" y="1294"/>
      <point x="324" y="1290"/>
      <point x="321" y="1280" type="curve" smooth="yes"/>
      <point x="285" y="1145" type="line" smooth="yes"/>
      <point x="282" y="1135"/>
      <point x="276" y="1131"/>
      <point x="266" y="1131" type="curve" smooth="yes"/>
      <point x="240" y="1131" type="line"/>
      <point x="237" y="1108" type="line"/>
      <point x="376" y="1108" type="line"/>
      <point x="379" y="1131" type="line"/>
      <point x="350" y="1131" type="line" smooth="yes"/>
      <point x="340" y="1131"/>
      <point x="336" y="1135"/>
      <point x="339" y="1145" type="curve" smooth="yes"/>
      <point x="391" y="1338" type="line"/>
    </contour>
  </outline>
</glyph>
<glyph name="gClef8vbOld" format="2">
  <advance width="1044"/>
  <unicode hex="E055"/>
  <outline>
    <contour>
      <point x="0" y="88" type="curve" smooth="yes"/>
      <point x="0" y="-106"/>
      <point x="142" y="-253"/>
      <point x="344" y="-253" type="curve" smooth="yes"/>
      <point x="374" y="-253"/>
      <point x="402" y="-250"/>
      <point x="428" y="-244" type="curve"/>
      <point x="446" y="-347"/>
      <point x="458" y="-426"/>
      <point x="458" y="-467" type="curve" smooth="yes"/>
      <point x="458" y="-561"/>
      <point x="396" y="-626"/>
      <point x="304" y="-626" type="curve" smooth="yes"/>
      <point x="278" y="-626"/>
      <point x="257" y="-621"/>
      <point x="239" y="-614" type="curve"/>
      <point x="239" y="-604" type="line"/>
      <point x="334" y="-538" type="line"/>
      <point x="340" y="-523"/>
      <point x="343" y="-505"/>
      <point x="343" y="-488" type="curve" smooth="yes"/>
      <point x="343" y="-423"/>
      <point x="302" y="-380"/>
      <point x="238" y="-380" type="curve" smooth="yes"/>
      <point x="169" y="-380"/>
      <point x="122" y="-430"/>
      <point x="122" y="-504" type="curve" smooth="yes"/>
      <point x="122" y="-595"/>
      <point x="192" y="-666"/>
      <point x="303" y="-666" type="curve" smooth="yes"/>
      <point x="421" y="-666"/>
      <point x="500" y="-585"/>
      <point x="500" y="-470" type="curve" smooth="yes"/>
      <point x="500" y="-424"/>
      <point x="487" y="-339"/>
      <point x="469" y="-231" type="curve"/>
      <point x="496" y="-221"/>
      <point x="521" y="-207"/>
      <point x="542" y="-191" type="curve"/>
      <point x="598" y="-230"/>
      <point x="668" y="-253"/>
      <point x="748" y="-253" type="curve" smooth="yes"/>
      <point x="778" y="-253"/>
      <point x="806" y="-250"/>
      <point x="832" y="-244" type="curve"/>
      <point x="850" y="-347"/>
      <point x="862" y="-426"/>
      <point x="862" y="-467" type="curve" smooth="yes"/>
      <point x="862" y="-561"/>
      <point x="800" y="-626"/>
      <point x="708" y="-626" type="curve" smooth="yes"/>
      <point x="682" y="-626"/>
      <point x="661" y="-621"/>
      <point x="643" y="-614" type="curve"/>
      <point x="643" y="-604" type="line"/>
      <point x="738" y="-538" type="line"/>
      <point x="744" y="-523"/>
      <point x="747" y="-505"/>
      <point x="747" y="-488" type="curve" smooth="yes"/>
      <point x="747" y="-423"/>
      <point x="706" y="-380"/>
      <point x="642" y="-380" type="curve" smooth="yes"/>
      <point x="573" y="-380"/>
      <point x="526" y="-430"/>
      <point x="526" y="-504" type="curve" smooth="yes"/>
      <point x="526" y="-595"/>
      <point x="596" y="-666"/>
      <point x="707" y="-666" type="curve" smooth="yes"/>
      <point x="825" y="-666"/>
      <point x="904" y="-585"/>
      <point x="904" y="-470" type="curve" smooth="yes"/>
      <point x="904" y="-424"/>
      <point x="891" y="-339"/>
      <point x="873" y="-231" type="curve"/>
      <point x="978" y="-192"/>
      <point x="1044" y="-102"/>
      <point x="1044" y="14" type="curve" smooth="yes"/>
      <point x="1044" y="152"/>
      <point x="948" y="255"/>
      <point x="820" y="255" type="curve" smooth="yes"/>
      <point x="809" y="255"/>
      <point x="798" y="255"/>
      <point x="787" y="253" type="curve"/>
      <point x="757" y="422" type="line"/>
      <point x="876" y="531"/>
      <point x="941" y="682"/>
      <point x="941" y="836" type="curve" smooth="yes"/>
      <point x="941" y="937"/>
      <point x="895" y="1048"/>
      <point x="824" y="1116" type="curve"/>
      <point x="733" y="1072"/>
      <point x="672" y="937"/>
      <point x="672" y="781" type="curve" smooth="yes"/>
      <point x="672" y="724"/>
      <point x="680" y="646"/>
      <point x="693" y="555" type="curve"/>
      <point x="632" y="497" type="line" smooth="yes"/>
      <point x="540" y="410"/>
      <point x="478" y="331"/>
      <point x="442" y="254" type="curve"/>
      <point x="433" y="255"/>
      <point x="425" y="255"/>
      <point x="416" y="255" type="curve" smooth="yes"/>
      <point x="405" y="255"/>
      <point x="394" y="255"/>
      <point x="383" y="253" type="curve"/>
      <point x="353" y="422" type="line"/>
      <point x="472" y="531"/>
      <point x="537" y="682"/>
      <point x="537" y="836" type="curve" smooth="yes"/>
      <point x="537" y="937"/>
      <point x="491" y="1048"/>
      <point x="420" y="1116" type="curve"/>
      <point x="329" y="1072"/>
      <point x="268" y="937"/>
      <point x="268" y="781" type="curve" smooth="yes"/>
      <point x="268" y="724"/>
      <point x="276" y="646"/>
      <point x="289" y="555" type="curve"/>
      <point x="228" y="497" type="line" smooth="yes"/>
      <point x="72" y="349"/>
      <point x="0" y="225"/>
    </contour>
    <contour>
      <point x="98" y="46" type="curve" smooth="yes"/>
      <point x="98" y="154"/>
      <point x="155" y="248"/>
      <point x="315" y="388" type="curve"/>
      <point x="340" y="242" type="line"/>
      <point x="253" y="212"/>
      <point x="190" y="132"/>
      <point x="190" y="38" type="curve" smooth="yes"/>
      <point x="190" y="-54"/>
      <point x="249" y="-123"/>
      <point x="336" y="-141" type="curve"/>
      <point x="342" y="-112" type="line"/>
      <point x="292" y="-101"/>
      <point x="259" y="-50"/>
      <point x="259" y="7" type="curve" smooth="yes"/>
      <point x="259" y="69"/>
      <point x="298" y="117"/>
      <point x="359" y="133" type="curve"/>
      <point x="421" y="-204" type="line"/>
      <point x="400" y="-210"/>
      <point x="378" y="-213"/>
      <point x="354" y="-213" type="curve" smooth="yes"/>
      <point x="207" y="-213"/>
      <point x="98" y="-104"/>
    </contour>
    <contour>
      <point x="552" y="208" type="curve"/>
      <point x="587" y="262"/>
      <point x="641" y="319"/>
      <point x="719" y="388" type="curve"/>
      <point x="744" y="242" type="line"/>
      <point x="687" y="222"/>
      <point x="640" y="181"/>
      <point x="615" y="129" type="curve"/>
      <point x="600" y="160"/>
      <point x="579" y="187"/>
    </contour>
    <contour>
      <point x="320" y="704" type="curve" smooth="yes"/>
      <point x="320" y="834"/>
      <point x="365" y="926"/>
      <point x="456" y="983" type="curve"/>
      <point x="471" y="946"/>
      <point x="478" y="904"/>
      <point x="478" y="863" type="curve" smooth="yes"/>
      <point x="478" y="775"/>
      <point x="445" y="713"/>
      <point x="328" y="594" type="curve"/>
      <point x="323" y="636"/>
      <point x="320" y="671"/>
    </contour>
    <contour>
      <point x="724" y="704" type="curve" smooth="yes"/>
      <point x="724" y="834"/>
      <point x="769" y="926"/>
      <point x="860" y="983" type="curve"/>
      <point x="875" y="946"/>
      <point x="882" y="904"/>
      <point x="882" y="863" type="curve" smooth="yes"/>
      <point x="882" y="775"/>
      <point x="849" y="713"/>
      <point x="732" y="594" type="curve"/>
      <point x="727" y="636"/>
      <point x="724" y="671"/>
    </contour>
    <contour>
      <point x="407" y="139" type="line"/>
      <point x="502" y="137"/>
      <point x="561" y="76"/>
      <point x="561" y="-20" type="curve" smooth="yes"/>
      <point x="561" y="-91"/>
      <point x="526" y="-157"/>
      <point x="462" y="-189" type="curve"/>
      <point x="403" y="139" type="line"/>
    </contour>
    <contour>
      <point x="627" y="-70" type="curve"/>
      <point x="653" y="-106"/>
      <point x="692" y="-131"/>
      <point x="740" y="-141" type="curve"/>
      <point x="746" y="-112" type="line"/>
      <point x="696" y="-101"/>
      <point x="663" y="-50"/>
      <point x="663" y="7" type="curve" smooth="yes"/>
      <point x="663" y="69"/>
      <point x="702" y="117"/>
      <point x="763" y="133" type="curve"/>
      <point x="825" y="-204" type="line"/>
      <point x="804" y="-210"/>
      <point x="782" y="-213"/>
      <point x="758" y="-213" type="curve" smooth="yes"/>
      <point x="690" y="-213"/>
      <point x="630" y="-189"/>
      <point x="585" y="-149" type="curve"/>
      <point x="604" y="-126"/>
      <point x="618" y="-99"/>
    </contour>
    <contour>
      <point x="965" y="-20" type="curve" smooth="yes"/>
      <point x="965" y="-97"/>
      <point x="928" y="-157"/>
      <point x="866" y="-189" type="curve"/>
      <point x="807" y="139" type="line"/>
      <point x="904" y="139"/>
      <point x="965" y="78"/>
    </contour>
  </outline>
</glyph>
<glyph name="gClef8vbParens" format="2">
  <advance width="640"/>
  <unicode hex="E057"/>
  <outline>
    <contour>
      <point x="122" y="-504" type="curve" smooth="yes"/>
      <point x="122" y="-569"/>
      <point x="158" y="-623"/>
      <point x="218" y="-649" type="curve"/>
      <point x="168" y="-680"/>
      <point x="142" y="-726"/>
      <point x="142" y="-781" type="curve" smooth="yes"/>
      <point x="142" y="-841"/>
      <point x="172" y="-889"/>
      <point x="231" y="-920" type="curve"/>
      <point x="239" y="-904" type="line"/>
      <point x="204" y="-883"/>
      <point x="187" y="-844"/>
      <point x="187" y="-781" type="curve" smooth="yes"/>
      <point x="187" y="-718"/>
      <point x="204" y="-679"/>
      <point x="239" y="-658" type="curve"/>
      <point x="238" y="-657" type="line"/>
      <point x="258" y="-663"/>
      <point x="280" y="-666"/>
      <point x="303" y="-666" type="curve" smooth="yes"/>
      <point x="421" y="-666"/>
      <point x="500" y="-585"/>
      <point x="500" y="-470" type="curve" smooth="yes"/>
      <point x="500" y="-424"/>
      <point x="487" y="-339"/>
      <point x="469" y="-231" type="curve"/>
      <point x="574" y="-192"/>
      <point x="640" y="-102"/>
      <point x="640" y="14" type="curve" smooth="yes"/>
      <point x="640" y="152"/>
      <point x="544" y="255"/>
      <point x="416" y="255" type="curve" smooth="yes"/>
      <point x="405" y="255"/>
      <point x="394" y="255"/>
      <point x="383" y="253" type="curve"/>
      <point x="353" y="422" type="line"/>
      <point x="472" y="531"/>
      <point x="537" y="682"/>
      <point x="537" y="836" type="curve" smooth="yes"/>
      <point x="537" y="937"/>
      <point x="491" y="1048"/>
      <point x="420" y="1116" type="curve"/>
      <point x="329" y="1072"/>
      <point x="268" y="937"/>
      <point x="268" y="781" type="curve" smooth="yes"/>
      <point x="268" y="724"/>
      <point x="276" y="646"/>
      <point x="289" y="555" type="curve"/>
      <point x="228" y="497" type="line" smooth="yes"/>
      <point x="72" y="349"/>
      <point x="0" y="225"/>
      <point x="0" y="88" type="curve" smooth="yes"/>
      <point x="0" y="-106"/>
      <point x="142" y="-253"/>
      <point x="344" y="-253" type="curve" smooth="yes"/>
      <point x="374" y="-253"/>
      <point x="402" y="-250"/>
      <point x="428" y="-244" type="curve"/>
      <point x="446" y="-347"/>
      <point x="458" y="-426"/>
      <point x="458" y="-467" type="curve" smooth="yes"/>
      <point x="458" y="-561"/>
      <point x="396" y="-626"/>
      <point x="304" y="-626" type="curve" smooth="yes"/>
      <point x="278" y="-626"/>
      <point x="257" y="-621"/>
      <point x="239" y="-614" type="curve"/>
      <point x="239" y="-604" type="line"/>
      <point x="334" y="-538" type="line"/>
      <point x="340" y="-523"/>
      <point x="343" y="-505"/>
      <point x="343" y="-488" type="curve" smooth="yes"/>
      <point x="343" y="-423"/>
      <point x="302" y="-380"/>
      <point x="238" y="-380" type="curve" smooth="yes"/>
      <point x="169" y="-380"/>
      <point x="122" y="-430"/>
    </contour>
    <contour>
      <point x="98" y="46" type="curve" smooth="yes"/>
      <point x="98" y="154"/>
      <point x="155" y="248"/>
      <point x="315" y="388" type="curve"/>
      <point x="340" y="242" type="line"/>
      <point x="253" y="212"/>
      <point x="190" y="132"/>
      <point x="190" y="38" type="curve" smooth="yes"/>
      <point x="190" y="-54"/>
      <point x="249" y="-123"/>
      <point x="336" y="-141" type="curve"/>
      <point x="342" y="-112" type="line"/>
      <point x="292" y="-101"/>
      <point x="259" y="-50"/>
      <point x="259" y="7" type="curve" smooth="yes"/>
      <point x="259" y="69"/>
      <point x="298" y="117"/>
      <point x="359" y="133" type="curve"/>
      <point x="421" y="-204" type="line"/>
      <point x="400" y="-210"/>
      <point x="378" y="-213"/>
      <point x="354" y="-213" type="curve" smooth="yes"/>
      <point x="207" y="-213"/>
      <point x="98" y="-104"/>
    </contour>
    <contour>
      <point x="328" y="594" type="curve"/>
      <point x="323" y="636"/>
      <point x="320" y="671"/>
      <point x="320" y="704" type="curve" smooth="yes"/>
      <point x="320" y="834"/>
      <point x="365" y="926"/>
      <point x="456" y="983" type="curve"/>
      <point x="471" y="946"/>
      <point x="478" y="904"/>
      <point x="478" y="863" type="curve" smooth="yes"/>
      <point x="478" y="775"/>
      <point x="445" y="713"/>
    </contour>
    <contour>
      <point x="462" y="-189" type="curve"/>
      <point x="403" y="139" type="line"/>
      <point x="500" y="139"/>
      <point x="561" y="78"/>
      <point x="561" y="-20" type="curve" smooth="yes"/>
      <point x="561" y="-97"/>
      <point x="524" y="-157"/>
    </contour>
    <contour>
      <point x="423" y="-717" type="curve" smooth="yes"/>
      <point x="423" y="-685"/>
      <point x="396" y="-664"/>
      <point x="356" y="-664" type="curve" smooth="yes"/>
      <point x="309" y="-664"/>
      <point x="273" y="-695"/>
      <point x="273" y="-735" type="curve" smooth="yes"/>
      <point x="273" y="-754"/>
      <point x="280" y="-768"/>
      <point x="294" y="-782" type="curve"/>
      <point x="261" y="-795"/>
      <point x="242" y="-817"/>
      <point x="242" y="-843" type="curve" smooth="yes"/>
      <point x="242" y="-876"/>
      <point x="272" y="-898"/>
      <point x="317" y="-898" type="curve" smooth="yes"/>
      <point x="370" y="-898"/>
      <point x="408" y="-868"/>
      <point x="408" y="-825" type="curve" smooth="yes"/>
      <point x="408" y="-802"/>
      <point x="398" y="-783"/>
      <point x="380" y="-770" type="curve"/>
      <point x="410" y="-757"/>
      <point x="423" y="-740"/>
    </contour>
    <contour>
      <point x="441" y="-642" type="curve"/>
      <point x="433" y="-658" type="line"/>
      <point x="468" y="-679"/>
      <point x="485" y="-718"/>
      <point x="485" y="-781" type="curve" smooth="yes"/>
      <point x="485" y="-844"/>
      <point x="468" y="-883"/>
      <point x="433" y="-904" type="curve"/>
      <point x="441" y="-920" type="line"/>
      <point x="500" y="-889"/>
      <point x="530" y="-841"/>
      <point x="530" y="-781" type="curve" smooth="yes"/>
      <point x="530" y="-721"/>
      <point x="500" y="-673"/>
    </contour>
    <contour>
      <point x="323" y="-877" type="curve" smooth="yes"/>
      <point x="301" y="-877"/>
      <point x="286" y="-863"/>
      <point x="286" y="-840" type="curve" smooth="yes"/>
      <point x="286" y="-822"/>
      <point x="295" y="-806"/>
      <point x="312" y="-796" type="curve"/>
      <point x="334" y="-808" type="line" smooth="yes"/>
      <point x="353" y="-819"/>
      <point x="361" y="-829"/>
      <point x="361" y="-843" type="curve" smooth="yes"/>
      <point x="361" y="-862"/>
      <point x="345" y="-877"/>
    </contour>
    <contour>
      <point x="361" y="-757" type="curve"/>
      <point x="337" y="-744" type="line" smooth="yes"/>
      <point x="322" y="-736"/>
      <point x="317" y="-728"/>
      <point x="317" y="-716" type="curve" smooth="yes"/>
      <point x="317" y="-698"/>
      <point x="331" y="-685"/>
      <point x="351" y="-685" type="curve" smooth="yes"/>
      <point x="370" y="-685"/>
      <point x="382" y="-697"/>
      <point x="382" y="-718" type="curve" smooth="yes"/>
      <point x="382" y="-734"/>
      <point x="376" y="-745"/>
    </contour>
  </outline>
</glyph>
<glyph name="cClef" format="2">
  <advance width="627"/>
  <unicode hex="E05C"/>
  <outline>
    <contour>
      <point x="13" y="469" type="line" smooth="yes"/>
      <point x="6" y="469"/>
      <point x="0" y="463"/>
      <point x="0" y="456" type="curve" smooth="yes"/>
      <point x="0" y="-454" type="line" smooth="yes"/>
      <point x="0" y="-461"/>
      <point x="6" y="-467"/>
      <point x="13" y="-467" type="curve" smooth="yes"/>
      <point x="85" y="-467" type="line" smooth="yes"/>
      <point x="92" y="-467"/>
      <point x="98" y="-461"/>
      <point x="98" y="-454" type="curve" smooth="yes"/>
      <point x="98" y="456" type="line" smooth="yes"/>
      <point x="98" y="463"/>
      <point x="92" y="469"/>
      <point x="85" y="469" type="curve" smooth="yes"/>
    </contour>
    <contour>
      <point x="627" y="-261" type="curve" smooth="yes"/>
      <point x="627" y="-137"/>
      <point x="561" y="-40"/>
      <point x="430" y="-40" type="curve" smooth="yes"/>
      <point x="407" y="-40"/>
      <point x="390" y="-42"/>
      <point x="351" y="-66" type="curve"/>
      <point x="349" y="-62"/>
      <point x="329" y="-22"/>
      <point x="296" y="1" type="curve"/>
      <point x="329" y="24"/>
      <point x="349" y="64"/>
      <point x="351" y="68" type="curve"/>
      <point x="389" y="45"/>
      <point x="402" y="42"/>
      <point x="445" y="42" type="curve" smooth="yes"/>
      <point x="567" y="42"/>
      <point x="627" y="155"/>
      <point x="627" y="263" type="curve" smooth="yes"/>
      <point x="627" y="403"/>
      <point x="524" y="482"/>
      <point x="403" y="482" type="curve" smooth="yes"/>
      <point x="328" y="482"/>
      <point x="221" y="451"/>
      <point x="221" y="359" type="curve" smooth="yes"/>
      <point x="221" y="310"/>
      <point x="255" y="278"/>
      <point x="304" y="278" type="curve" smooth="yes"/>
      <point x="348" y="278"/>
      <point x="379" y="310"/>
      <point x="379" y="354" type="curve" smooth="yes"/>
      <point x="379" y="409"/>
      <point x="343" y="427"/>
      <point x="295" y="427" type="curve"/>
      <point x="318" y="443"/>
      <point x="349" y="452"/>
      <point x="380" y="452" type="curve" smooth="yes"/>
      <point x="485" y="452"/>
      <point x="502" y="368"/>
      <point x="502" y="278" type="curve" smooth="yes"/>
      <point x="502" y="201"/>
      <point x="500" y="89"/>
      <point x="412" y="89" type="curve" smooth="yes"/>
      <point x="324" y="89"/>
      <point x="306" y="184"/>
      <point x="304" y="194" type="curve"/>
      <point x="304" y="195"/>
      <point x="304" y="208"/>
      <point x="290" y="208" type="curve" smooth="yes"/>
      <point x="276" y="208"/>
      <point x="275" y="195"/>
      <point x="275" y="194" type="curve"/>
      <point x="266" y="139"/>
      <point x="239" y="43"/>
      <point x="183" y="20" type="curve"/>
      <point x="183" y="456" type="line" smooth="yes"/>
      <point x="183" y="463"/>
      <point x="178" y="469"/>
      <point x="171" y="469" type="curve" smooth="yes"/>
      <point x="164" y="469"/>
      <point x="158" y="463"/>
      <point x="158" y="456" type="curve" smooth="yes"/>
      <point x="158" y="-454" type="line" smooth="yes"/>
      <point x="158" y="-461"/>
      <point x="164" y="-467"/>
      <point x="171" y="-467" type="curve" smooth="yes"/>
      <point x="178" y="-467"/>
      <point x="183" y="-461"/>
      <point x="183" y="-454" type="curve" smooth="yes"/>
      <point x="183" y="-18" type="line"/>
      <point x="242" y="-42"/>
      <point x="264" y="-137"/>
      <point x="275" y="-193" type="curve"/>
      <point x="275" y="-194"/>
      <point x="276" y="-206"/>
      <point x="290" y="-206" type="curve" smooth="yes"/>
      <point x="304" y="-206"/>
      <point x="304" y="-194"/>
      <point x="304" y="-193" type="curve"/>
      <point x="306" y="-182"/>
      <point x="324" y="-87"/>
      <point x="412" y="-87" type="curve" smooth="yes"/>
      <point x="500" y="-87"/>
      <point x="502" y="-199"/>
      <point x="502" y="-276" type="curve" smooth="yes"/>
      <point x="502" y="-366"/>
      <point x="485" y="-450"/>
      <point x="380" y="-450" type="curve" smooth="yes"/>
      <point x="349" y="-450"/>
      <point x="318" y="-441"/>
      <point x="295" y="-425" type="curve"/>
      <point x="296" y="-425"/>
      <point x="300" y="-426"/>
      <point x="306" y="-426" type="curve" smooth="yes"/>
      <point x="350" y="-426"/>
      <point x="379" y="-395"/>
      <point x="379" y="-352" type="curve" smooth="yes"/>
      <point x="379" y="-308"/>
      <point x="348" y="-276"/>
      <point x="304" y="-276" type="curve" smooth="yes"/>
      <point x="255" y="-276"/>
      <point x="221" y="-308"/>
      <point x="221" y="-357" type="curve" smooth="yes"/>
      <point x="221" y="-449"/>
      <point x="328" y="-480"/>
      <point x="403" y="-480" type="curve" smooth="yes"/>
      <point x="524" y="-480"/>
      <point x="627" y="-401"/>
    </contour>
  </outline>
</glyph>
<glyph name="cClef8vb" format="2">
  <advance width="627"/>
  <unicode hex="E05D"/>
  <outline>
    <contour>
      <point x="257" y="-639" type="curve"/>
      <point x="261" y="-641"/>
      <point x="262" y="-641"/>
      <point x="265" y="-643" type="curve"/>
      <point x="279" y="-650" type="line"/>
      <point x="280" y="-650" type="line"/>
      <point x="299" y="-661"/>
      <point x="306" y="-672"/>
      <point x="306" y="-686" type="curve" smooth="yes"/>
      <point x="306" y="-705"/>
      <point x="290" y="-719"/>
      <point x="268" y="-719" type="curve" smooth="yes"/>
      <point x="246" y="-719"/>
      <point x="231" y="-705"/>
      <point x="231" y="-684" type="curve" smooth="yes"/>
      <point x="231" y="-665"/>
      <point x="240" y="-649"/>
    </contour>
    <contour>
      <point x="283" y="-587" type="line"/>
      <point x="267" y="-578"/>
      <point x="262" y="-571"/>
      <point x="262" y="-558" type="curve" smooth="yes"/>
      <point x="262" y="-540"/>
      <point x="276" y="-528"/>
      <point x="296" y="-528" type="curve" smooth="yes"/>
      <point x="316" y="-528"/>
      <point x="327" y="-539"/>
      <point x="327" y="-560" type="curve" smooth="yes"/>
      <point x="327" y="-576"/>
      <point x="322" y="-587"/>
      <point x="306" y="-599" type="curve"/>
    </contour>
    <contour>
      <point x="13" y="469" type="line" smooth="yes"/>
      <point x="6" y="469"/>
      <point x="0" y="463"/>
      <point x="0" y="456" type="curve" smooth="yes"/>
      <point x="0" y="-454" type="line" smooth="yes"/>
      <point x="0" y="-461"/>
      <point x="6" y="-467"/>
      <point x="13" y="-467" type="curve" smooth="yes"/>
      <point x="85" y="-467" type="line" smooth="yes"/>
      <point x="92" y="-467"/>
      <point x="98" y="-461"/>
      <point x="98" y="-454" type="curve" smooth="yes"/>
      <point x="98" y="456" type="line" smooth="yes"/>
      <point x="98" y="463"/>
      <point x="92" y="469"/>
      <point x="85" y="469" type="curve" smooth="yes"/>
    </contour>
    <contour>
      <point x="627" y="-261" type="curve" smooth="yes"/>
      <point x="627" y="-137"/>
      <point x="561" y="-40"/>
      <point x="430" y="-40" type="curve" smooth="yes"/>
      <point x="407" y="-40"/>
      <point x="390" y="-42"/>
      <point x="351" y="-66" type="curve"/>
      <point x="349" y="-62"/>
      <point x="329" y="-22"/>
      <point x="296" y="1" type="curve"/>
      <point x="329" y="24"/>
      <point x="349" y="64"/>
      <point x="351" y="68" type="curve"/>
      <point x="389" y="45"/>
      <point x="402" y="42"/>
      <point x="445" y="42" type="curve" smooth="yes"/>
      <point x="567" y="42"/>
      <point x="627" y="155"/>
      <point x="627" y="263" type="curve" smooth="yes"/>
      <point x="627" y="403"/>
      <point x="524" y="482"/>
      <point x="403" y="482" type="curve" smooth="yes"/>
      <point x="328" y="482"/>
      <point x="221" y="451"/>
      <point x="221" y="359" type="curve" smooth="yes"/>
      <point x="221" y="310"/>
      <point x="255" y="278"/>
      <point x="304" y="278" type="curve" smooth="yes"/>
      <point x="348" y="278"/>
      <point x="379" y="310"/>
      <point x="379" y="354" type="curve" smooth="yes"/>
      <point x="379" y="409"/>
      <point x="343" y="427"/>
      <point x="295" y="427" type="curve"/>
      <point x="318" y="443"/>
      <point x="349" y="452"/>
      <point x="380" y="452" type="curve" smooth="yes"/>
      <point x="485" y="452"/>
      <point x="502" y="368"/>
      <point x="502" y="278" type="curve" smooth="yes"/>
      <point x="502" y="201"/>
      <point x="500" y="89"/>
      <point x="412" y="89" type="curve" smooth="yes"/>
      <point x="324" y="89"/>
      <point x="306" y="184"/>
      <point x="304" y="194" type="curve"/>
      <point x="304" y="195"/>
      <point x="304" y="208"/>
      <point x="290" y="208" type="curve" smooth="yes"/>
      <point x="276" y="208"/>
      <point x="275" y="195"/>
      <point x="275" y="194" type="curve"/>
      <point x="266" y="139"/>
      <point x="239" y="43"/>
      <point x="183" y="20" type="curve"/>
      <point x="183" y="456" type="line" smooth="yes"/>
      <point x="183" y="463"/>
      <point x="177" y="469"/>
      <point x="170" y="469" type="curve" smooth="yes"/>
      <point x="163" y="469"/>
      <point x="158" y="463"/>
      <point x="158" y="456" type="curve" smooth="yes"/>
      <point x="158" y="-454" type="line" smooth="yes"/>
      <point x="158" y="-461"/>
      <point x="163" y="-467"/>
      <point x="170" y="-467" type="curve" smooth="yes"/>
      <point x="177" y="-467"/>
      <point x="183" y="-461"/>
      <point x="183" y="-454" type="curve" smooth="yes"/>
      <point x="183" y="-18" type="line"/>
      <point x="242" y="-42"/>
      <point x="264" y="-137"/>
      <point x="275" y="-193" type="curve"/>
      <point x="275" y="-194"/>
      <point x="276" y="-206"/>
      <point x="290" y="-206" type="curve" smooth="yes"/>
      <point x="304" y="-206"/>
      <point x="304" y="-194"/>
      <point x="304" y="-193" type="curve"/>
      <point x="306" y="-182"/>
      <point x="324" y="-87"/>
      <point x="412" y="-87" type="curve" smooth="yes"/>
      <point x="500" y="-87"/>
      <point x="502" y="-199"/>
      <point x="502" y="-276" type="curve" smooth="yes"/>
      <point x="502" y="-366"/>
      <point x="485" y="-450"/>
      <point x="380" y="-450" type="curve" smooth="yes"/>
      <point x="349" y="-450"/>
      <point x="318" y="-441"/>
      <point x="295" y="-425" type="curve"/>
      <point x="296" y="-425"/>
      <point x="300" y="-426"/>
      <point x="306" y="-426" type="curve" smooth="yes"/>
      <point x="350" y="-426"/>
      <point x="379" y="-395"/>
      <point x="379" y="-352" type="curve" smooth="yes"/>
      <point x="379" y="-308"/>
      <point x="348" y="-276"/>
      <point x="304" y="-276" type="curve" smooth="yes"/>
      <point x="255" y="-276"/>
      <point x="221" y="-308"/>
      <point x="221" y="-357" type="curve" smooth="yes"/>
      <point x="221" y="-449"/>
      <point x="328" y="-480"/>
      <point x="403" y="-480" type="curve" smooth="yes"/>
      <point x="524" y="-480"/>
      <point x="627" y="-401"/>
    </contour>
    <contour>
      <point x="368" y="-559" type="curve" smooth="yes"/>
      <point x="368" y="-524"/>
      <point x="332" y="-506"/>
      <point x="301" y="-506" type="curve" smooth="yes"/>
      <point x="259" y="-506"/>
      <point x="218" y="-532"/>
      <point x="218" y="-578" type="curve" smooth="yes"/>
      <point x="218" y="-597"/>
      <point x="225" y="-610"/>
      <point x="240" y="-624" type="curve"/>
      <point x="214" y="-636"/>
      <point x="187" y="-655"/>
      <point x="187" y="-686" type="curve" smooth="yes"/>
      <point x="187" y="-719"/>
      <point x="217" y="-740"/>
      <point x="261" y="-740" type="curve" smooth="yes"/>
      <point x="315" y="-740"/>
      <point x="353" y="-710"/>
      <point x="353" y="-667" type="curve" smooth="yes"/>
      <point x="353" y="-645"/>
      <point x="343" y="-625"/>
      <point x="325" y="-612" type="curve"/>
      <point x="354" y="-600"/>
      <point x="368" y="-583"/>
    </contour>
  </outline>
</glyph>
<glyph name="unpitchedPercussionClef1" format="2">
  <advance width="352"/>
  <unicode hex="E069"/>
  <outline>
    <contour>
      <point x="13" y="252" type="line" smooth="yes"/>
      <point x="6" y="252"/>
      <point x="0" y="246"/>
      <point x="0" y="239" type="curve" smooth="yes"/>
      <point x="0" y="-239" type="line" smooth="yes"/>
      <point x="0" y="-246"/>
      <point x="6" y="-252"/>
      <point x="13" y="-252" type="curve" smooth="yes"/>
      <point x="123" y="-252" type="line" smooth="yes"/>
      <point x="130" y="-252"/>
      <point x="136" y="-246"/>
      <point x="136" y="-239" type="curve" smooth="yes"/>
      <point x="136" y="239" type="line" smooth="yes"/>
      <point x="136" y="246"/>
      <point x="130" y="252"/>
      <point x="123" y="252" type="curve" smooth="yes"/>
    </contour>
    <contour>
      <point x="229" y="252" type="line" smooth="yes"/>
      <point x="222" y="252"/>
      <point x="216" y="246"/>
      <point x="216" y="239" type="curve" smooth="yes"/>
      <point x="216" y="-239" type="line" smooth="yes"/>
      <point x="216" y="-246"/>
      <point x="222" y="-252"/>
      <point x="229" y="-252" type="curve" smooth="yes"/>
      <point x="339" y="-252" type="line" smooth="yes"/>
      <point x="346" y="-252"/>
      <point x="352" y="-246"/>
      <point x="352" y="-239" type="curve" smooth="yes"/>
      <point x="352" y="239" type="line" smooth="yes"/>
      <point x="352" y="246"/>
      <point x="346" y="252"/>
      <point x="339" y="252" type="curve" smooth="yes"/>
    </contour>
  </outline>
</glyph>
<glyph name="unpitchedPercussionClef2" format="2">
  <advance width="304"/>
  <unicode hex="E06A"/>
  <outline>
    <contour>
      <point x="304" y="-422" type="curve" smooth="yes"/>
      <point x="304" y="423" type="line" smooth="yes"/>
      <point x="304" y="431"/>
      <point x="297" y="439"/>
      <point x="288" y="439" type="curve" smooth="yes"/>
      <point x="16" y="439" type="line" smooth="yes"/>
      <point x="7" y="439"/>
      <point x="0" y="431"/>
      <point x="0" y="423" type="curve" smooth="yes"/>
      <point x="0" y="-422" type="line" smooth="yes"/>
      <point x="0" y="-431"/>
      <point x="7" y="-438"/>
      <point x="16" y="-438" type="curve" smooth="yes"/>
      <point x="288" y="-438" type="line" smooth="yes"/>
      <point x="297" y="-438"/>
      <point x="304" y="-431"/>
    </contour>
    <contour>
      <point x="40" y="335" type="line" smooth="yes"/>
      <point x="40" y="340"/>
      <point x="44" y="345"/>
      <point x="50" y="345" type="curve" smooth="yes"/>
      <point x="254" y="345" type="line" smooth="yes"/>
      <point x="260" y="345"/>
      <point x="264" y="340"/>
      <point x="264" y="335" type="curve" smooth="yes"/>
      <point x="264" y="-334" type="line" smooth="yes"/>
      <point x="264" y="-340"/>
      <point x="259" y="-344"/>
      <point x="254" y="-344" type="curve" smooth="yes"/>
      <point x="50" y="-344" type="line" smooth="yes"/>
      <point x="44" y="-344"/>
      <point x="40" y="-340"/>
      <point x="40" y="-334" type="curve" smooth="yes"/>
    </contour>
  </outline>
</glyph>
<glyph name="_6stringTabClef" format="2">
  <advance width="439"/>
  <unicode hex="E06D"/>
  <outline>
    <contour>
      <point x="219" y="126" type="line"/>
      <point x="278" y="-56" type="line"/>
      <point x="159" y="-56" type="line"/>
    </contour>
    <contour>
      <point x="242" y="-360" type="line" smooth="yes"/>
      <point x="280" y="-360"/>
      <point x="322" y="-361"/>
      <point x="322" y="-410" type="curve" smooth="yes"/>
      <point x="322" y="-452"/>
      <point x="291" y="-462"/>
      <point x="254" y="-462" type="curve" smooth="yes"/>
      <point x="141" y="-462" type="line"/>
      <point x="141" y="-360" type="line"/>
    </contour>
    <contour>
      <point x="255" y="-539" type="line" smooth="yes"/>
      <point x="294" y="-539"/>
      <point x="331" y="-549"/>
      <point x="331" y="-596" type="curve" smooth="yes"/>
      <point x="331" y="-648"/>
      <point x="300" y="-662"/>
      <point x="254" y="-662" type="curve" smooth="yes"/>
      <point x="141" y="-662" type="line"/>
      <point x="141" y="-539" type="line"/>
    </contour>
    <contour>
      <point x="0" y="-231" type="line"/>
      <point x="101" y="-231" type="line"/>
      <point x="133" y="-136" type="line"/>
      <point x="303" y="-136" type="line"/>
      <point x="334" y="-231" type="line"/>
      <point x="439" y="-231" type="line"/>
      <point x="275" y="232" type="line"/>
      <point x="165" y="232" type="line"/>
    </contour>
    <contour>
      <point x="36" y="746" type="line"/>
      <point x="36" y="665" type="line"/>
      <point x="173" y="665" type="line"/>
      <point x="173" y="291" type="line"/>
      <point x="269" y="291" type="line"/>
      <point x="269" y="665" type="line"/>
      <point x="405" y="665" type="line"/>
      <point x="405" y="746" type="line"/>
    </contour>
    <contour>
      <point x="273" y="-279" type="curve"/>
      <point x="49" y="-279" type="line"/>
      <point x="49" y="-743" type="line"/>
      <point x="260" y="-743" type="line" smooth="yes"/>
      <point x="323" y="-743"/>
      <point x="373" y="-731"/>
      <point x="408" y="-677" type="curve" smooth="yes"/>
      <point x="422" y="-655"/>
      <point x="429" y="-630"/>
      <point x="429" y="-603" type="curve" smooth="yes"/>
      <point x="429" y="-551"/>
      <point x="407" y="-513"/>
      <point x="357" y="-494" type="curve"/>
      <point x="398" y="-474"/>
      <point x="414" y="-447"/>
      <point x="414" y="-400" type="curve" smooth="yes"/>
      <point x="414" y="-316"/>
      <point x="352" y="-280"/>
    </contour>
  </outline>
</glyph>
<glyph name="_4stringTabClef" format="2">
  <advance width="294"/>
  <unicode hex="E06E"/>
  <outline>
    <contour>
      <point x="147" y="85" type="line"/>
      <point x="186" y="-37" type="line"/>
      <point x="107" y="-37" type="line"/>
    </contour>
    <contour>
      <point x="162" y="-241" type="line" smooth="yes"/>
      <point x="177" y="-241"/>
      <point x="190" y="-242"/>
      <point x="199" y="-245" type="curve"/>
      <point x="210" y="-250"/>
      <point x="216" y="-259"/>
      <point x="216" y="-274" type="curve" smooth="yes"/>
      <point x="216" y="-288"/>
      <point x="212" y="-296"/>
      <point x="203" y="-302" type="curve"/>
      <point x="194" y="-307"/>
      <point x="184" y="-309"/>
      <point x="170" y="-309" type="curve" smooth="yes"/>
      <point x="94" y="-309" type="line"/>
      <point x="94" y="-241" type="line"/>
    </contour>
    <contour>
      <point x="171" y="-361" type="line" smooth="yes"/>
      <point x="197" y="-361"/>
      <point x="222" y="-367"/>
      <point x="222" y="-399" type="curve" smooth="yes"/>
      <point x="222" y="-418"/>
      <point x="215" y="-431"/>
      <point x="202" y="-438" type="curve"/>
      <point x="194" y="-441"/>
      <point x="184" y="-443"/>
      <point x="170" y="-443" type="curve" smooth="yes"/>
      <point x="94" y="-443" type="line"/>
      <point x="94" y="-361" type="line"/>
    </contour>
    <contour>
      <point x="0" y="-154" type="line"/>
      <point x="68" y="-154" type="line"/>
      <point x="89" y="-91" type="line"/>
      <point x="203" y="-91" type="line"/>
      <point x="224" y="-154" type="line"/>
      <point x="294" y="-154" type="line"/>
      <point x="184" y="156" type="line"/>
      <point x="111" y="156" type="line"/>
    </contour>
    <contour>
      <point x="24" y="500" type="line"/>
      <point x="24" y="446" type="line"/>
      <point x="116" y="446" type="line"/>
      <point x="116" y="195" type="line"/>
      <point x="180" y="195" type="line"/>
      <point x="180" y="446" type="line"/>
      <point x="271" y="446" type="line"/>
      <point x="271" y="500" type="line"/>
    </contour>
    <contour>
      <point x="183" y="-186" type="curve"/>
      <point x="33" y="-186" type="line"/>
      <point x="33" y="-497" type="line"/>
      <point x="174" y="-497" type="line" smooth="yes"/>
      <point x="188" y="-497"/>
      <point x="202" y="-496"/>
      <point x="216" y="-493" type="curve"/>
      <point x="230" y="-491"/>
      <point x="242" y="-485"/>
      <point x="252" y="-477" type="curve"/>
      <point x="274" y="-462"/>
      <point x="287" y="-429"/>
      <point x="287" y="-404" type="curve" smooth="yes"/>
      <point x="287" y="-367"/>
      <point x="272" y="-345"/>
      <point x="239" y="-330" type="curve"/>
      <point x="250" y="-325"/>
      <point x="258" y="-320"/>
      <point x="263" y="-313" type="curve"/>
      <point x="273" y="-302"/>
      <point x="277" y="-286"/>
      <point x="277" y="-268" type="curve" smooth="yes"/>
      <point x="277" y="-211"/>
      <point x="237" y="-187"/>
    </contour>
  </outline>
</glyph>
<glyph name="cClefChange" format="2">
  <advance width="471"/>
  <unicode hex="E07B"/>
  <outline>
    <contour>
      <point x="10" y="355" type="line" smooth="yes"/>
      <point x="5" y="355"/>
      <point x="0" y="351"/>
      <point x="0" y="346" type="curve" smooth="yes"/>
      <point x="0" y="-337" type="line" smooth="yes"/>
      <point x="0" y="-342"/>
      <point x="5" y="-347"/>
      <point x="10" y="-347" type="curve" smooth="yes"/>
      <point x="64" y="-347" type="line" smooth="yes"/>
      <point x="69" y="-347"/>
      <point x="73" y="-342"/>
      <point x="73" y="-337" type="curve" smooth="yes"/>
      <point x="73" y="346" type="line" smooth="yes"/>
      <point x="73" y="351"/>
      <point x="69" y="355"/>
      <point x="64" y="355" type="curve" smooth="yes"/>
    </contour>
    <contour>
      <point x="471" y="-192" type="curve" smooth="yes"/>
      <point x="471" y="-101"/>
      <point x="422" y="-27"/>
      <point x="325" y="-27" type="curve" smooth="yes"/>
      <point x="312" y="-27"/>
      <point x="291" y="-29"/>
      <point x="263" y="-46" type="curve"/>
      <point x="261" y="-43"/>
      <point x="247" y="-13"/>
      <point x="222" y="4" type="curve"/>
      <point x="247" y="21"/>
      <point x="261" y="51"/>
      <point x="263" y="54" type="curve"/>
      <point x="287" y="39"/>
      <point x="306" y="35"/>
      <point x="334" y="35" type="curve" smooth="yes"/>
      <point x="426" y="35"/>
      <point x="471" y="120"/>
      <point x="471" y="201" type="curve" smooth="yes"/>
      <point x="471" y="306"/>
      <point x="394" y="365"/>
      <point x="303" y="365" type="curve" smooth="yes"/>
      <point x="220" y="365"/>
      <point x="189" y="328"/>
      <point x="185" y="324" type="curve"/>
      <point x="172" y="307"/>
      <point x="165" y="290"/>
      <point x="165" y="273" type="curve" smooth="yes"/>
      <point x="165" y="237"/>
      <point x="191" y="211"/>
      <point x="228" y="211" type="curve" smooth="yes"/>
      <point x="261" y="211"/>
      <point x="284" y="238"/>
      <point x="284" y="270" type="curve" smooth="yes"/>
      <point x="284" y="280"/>
      <point x="281" y="290"/>
      <point x="276" y="300" type="curve"/>
      <point x="264" y="321"/>
      <point x="243" y="324"/>
      <point x="221" y="324" type="curve"/>
      <point x="238" y="336"/>
      <point x="262" y="342"/>
      <point x="285" y="342" type="curve" smooth="yes"/>
      <point x="364" y="342"/>
      <point x="376" y="280"/>
      <point x="376" y="212" type="curve" smooth="yes"/>
      <point x="376" y="155"/>
      <point x="375" y="70"/>
      <point x="309" y="70" type="curve" smooth="yes"/>
      <point x="243" y="70"/>
      <point x="230" y="141"/>
      <point x="228" y="149" type="curve"/>
      <point x="228" y="150"/>
      <point x="228" y="160"/>
      <point x="217" y="160" type="curve" smooth="yes"/>
      <point x="206" y="160"/>
      <point x="206" y="150"/>
      <point x="206" y="149" type="curve"/>
      <point x="200" y="110"/>
      <point x="179" y="34"/>
      <point x="138" y="18" type="curve"/>
      <point x="138" y="346" type="line" smooth="yes"/>
      <point x="138" y="351"/>
      <point x="133" y="355"/>
      <point x="128" y="355" type="curve" smooth="yes"/>
      <point x="123" y="355"/>
      <point x="118" y="351"/>
      <point x="118" y="346" type="curve" smooth="yes"/>
      <point x="118" y="-337" type="line" smooth="yes"/>
      <point x="118" y="-342"/>
      <point x="123" y="-347"/>
      <point x="128" y="-347" type="curve" smooth="yes"/>
      <point x="133" y="-347"/>
      <point x="138" y="-342"/>
      <point x="138" y="-337" type="curve" smooth="yes"/>
      <point x="138" y="-10" type="line"/>
      <point x="151" y="-15"/>
      <point x="168" y="-28"/>
      <point x="180" y="-56" type="curve" smooth="yes"/>
      <point x="200" y="-102"/>
      <point x="205" y="-137"/>
      <point x="206" y="-141" type="curve"/>
      <point x="206" y="-142"/>
      <point x="206" y="-151"/>
      <point x="217" y="-151" type="curve" smooth="yes"/>
      <point x="228" y="-151"/>
      <point x="228" y="-142"/>
      <point x="228" y="-141" type="curve"/>
      <point x="230" y="-133"/>
      <point x="243" y="-62"/>
      <point x="309" y="-62" type="curve" smooth="yes"/>
      <point x="375" y="-62"/>
      <point x="376" y="-145"/>
      <point x="376" y="-203" type="curve" smooth="yes"/>
      <point x="376" y="-271"/>
      <point x="364" y="-333"/>
      <point x="285" y="-333" type="curve" smooth="yes"/>
      <point x="262" y="-333"/>
      <point x="238" y="-327"/>
      <point x="221" y="-315" type="curve"/>
      <point x="243" y="-315"/>
      <point x="264" y="-312"/>
      <point x="276" y="-291" type="curve"/>
      <point x="281" y="-281"/>
      <point x="284" y="-271"/>
      <point x="284" y="-261" type="curve" smooth="yes"/>
      <point x="284" y="-229"/>
      <point x="260" y="-203"/>
      <point x="228" y="-203" type="curve" smooth="yes"/>
      <point x="192" y="-203"/>
      <point x="165" y="-228"/>
      <point x="165" y="-264" type="curve" smooth="yes"/>
      <point x="165" y="-281"/>
      <point x="172" y="-298"/>
      <point x="185" y="-315" type="curve"/>
      <point x="189" y="-319"/>
      <point x="220" y="-357"/>
      <point x="303" y="-357" type="curve" smooth="yes"/>
      <point x="394" y="-357"/>
      <point x="471" y="-297"/>
    </contour>
  </outline>
</glyph>
<glyph name="fClefChange" format="2">
  <advance width="497"/>
  <unicode hex="E07C"/>
  <outline>
    <contour>
      <point x="348" y="131" type="curve"/>
      <point x="342" y="138"/>
      <point x="331" y="148"/>
      <point x="323" y="154" type="curve"/>
      <point x="319" y="158" type="line"/>
      <point x="311" y="164"/>
      <point x="296" y="171"/>
      <point x="287" y="175" type="curve"/>
      <point x="286" y="176"/>
      <point x="285" y="176"/>
      <point x="284" y="177" type="curve"/>
      <point x="257" y="188"/>
      <point x="226" y="195"/>
      <point x="190" y="195" type="curve" smooth="yes"/>
      <point x="133" y="195"/>
      <point x="87" y="162"/>
      <point x="87" y="162" type="curve"/>
      <point x="44" y="130"/>
      <point x="14" y="81"/>
      <point x="14" y="27" type="curve" smooth="yes"/>
      <point x="14" y="-15"/>
      <point x="30" y="-51"/>
      <point x="73" y="-65" type="curve"/>
      <point x="81" y="-67"/>
      <point x="93" y="-70"/>
      <point x="101" y="-70" type="curve" smooth="yes"/>
      <point x="149" y="-70"/>
      <point x="187" y="-36"/>
      <point x="187" y="13" type="curve" smooth="yes"/>
      <point x="187" y="56"/>
      <point x="148" y="90"/>
      <point x="106" y="90" type="curve" smooth="yes"/>
      <point x="84" y="90"/>
      <point x="66" y="80"/>
      <point x="57" y="71" type="curve"/>
      <point x="66" y="134"/>
      <point x="123" y="168"/>
      <point x="183" y="168" type="curve" smooth="yes"/>
      <point x="260" y="168"/>
      <point x="297" y="106"/>
      <point x="297" y="-20" type="curve" smooth="yes"/>
      <point x="297" y="-27"/>
      <point x="296" y="-33"/>
      <point x="296" y="-40" type="curve" smooth="yes"/>
      <point x="296" y="-43"/>
      <point x="295" y="-47"/>
      <point x="295" y="-50" type="curve"/>
      <point x="288" y="-138"/>
      <point x="226" y="-265"/>
      <point x="161" y="-324" type="curve" smooth="yes"/>
      <point x="83" y="-395"/>
      <point x="10" y="-429"/>
      <point x="9" y="-429" type="curve"/>
      <point x="9" y="-429"/>
      <point x="0" y="-434"/>
      <point x="0" y="-443" type="curve"/>
      <point x="0" y="-444"/>
      <point x="1" y="-446"/>
      <point x="1" y="-447" type="curve"/>
      <point x="3" y="-454"/>
      <point x="10" y="-456"/>
      <point x="14" y="-456" type="curve"/>
      <point x="15" y="-456"/>
      <point x="17" y="-455"/>
      <point x="18" y="-455" type="curve"/>
      <point x="19" y="-455"/>
      <point x="104" y="-419"/>
      <point x="172" y="-366" type="curve"/>
      <point x="276" y="-293"/>
      <point x="396" y="-155"/>
      <point x="396" y="-20" type="curve" smooth="yes"/>
      <point x="396" y="43"/>
      <point x="379" y="93"/>
      <point x="349" y="129" type="curve"/>
      <point x="348" y="130"/>
      <point x="349" y="130"/>
    </contour>
    <contour>
      <point x="462" y="-55" type="curve" smooth="yes"/>
      <point x="442" y="-55"/>
      <point x="426" y="-72"/>
      <point x="426" y="-93" type="curve" smooth="yes"/>
      <point x="426" y="-114"/>
      <point x="442" y="-131"/>
      <point x="462" y="-131" type="curve" smooth="yes"/>
      <point x="482" y="-131"/>
      <point x="498" y="-114"/>
      <point x="498" y="-93" type="curve" smooth="yes"/>
      <point x="498" y="-72"/>
      <point x="482" y="-55"/>
    </contour>
    <contour>
      <point x="462" y="61" type="curve" smooth="yes"/>
      <point x="482" y="61"/>
      <point x="498" y="78"/>
      <point x="498" y="99" type="curve" smooth="yes"/>
      <point x="498" y="120"/>
      <point x="482" y="137"/>
      <point x="462" y="137" type="curve" smooth="yes"/>
      <point x="442" y="137"/>
      <point x="426" y="120"/>
      <point x="426" y="99" type="curve" smooth="yes"/>
      <point x="426" y="78"/>
      <point x="442" y="61"/>
    </contour>
    <contour>
      <point x="341" y="137" type="curve"/>
      <point x="340" y="138"/>
      <point x="340" y="138"/>
      <point x="339" y="139" type="curve"/>
      <point x="340" y="138"/>
      <point x="340" y="138"/>
    </contour>
    <contour>
      <point x="365" y="106" type="curve"/>
      <point x="364" y="107"/>
      <point x="363" y="109"/>
      <point x="362" y="110" type="curve"/>
      <point x="363" y="109"/>
      <point x="364" y="107"/>
    </contour>
    <contour>
      <point x="381" y="70" type="curve"/>
      <point x="381" y="71"/>
      <point x="380" y="71"/>
      <point x="380" y="72" type="curve"/>
      <point x="380" y="71"/>
      <point x="381" y="71"/>
    </contour>
  </outline>
</glyph>
<glyph name="timeSig0" format="2">
  <advance width="404"/>
  <unicode hex="E080"/>
  <outline>
    <contour>
      <point x="202" y="255" type="curve" smooth="yes"/>
      <point x="96" y="255"/>
      <point x="15" y="145"/>
      <point x="15" y="0" type="curve" smooth="yes"/>
      <point x="15" y="-145"/>
      <point x="96" y="-254"/>
      <point x="202" y="-254" type="curve" smooth="yes"/>
      <point x="308" y="-254"/>
      <point x="389" y="-145"/>
      <point x="389" y="0" type="curve" smooth="yes"/>
      <point x="389" y="145"/>
      <point x="308" y="255"/>
    </contour>
    <contour>
      <point x="261" y="-139" type="line" smooth="yes"/>
      <point x="261" y="-175"/>
      <point x="245" y="-214"/>
      <point x="202" y="-214" type="curve" smooth="yes"/>
      <point x="159" y="-214"/>
      <point x="143" y="-175"/>
      <point x="143" y="-139" type="curve" smooth="yes"/>
      <point x="143" y="139" type="line" smooth="yes"/>
      <point x="143" y="175"/>
      <point x="159" y="214"/>
      <point x="202" y="214" type="curve" smooth="yes"/>
      <point x="245" y="214"/>
      <point x="261" y="175"/>
      <point x="261" y="139" type="curve" smooth="yes"/>
    </contour>
  </outline>
</glyph>
<glyph name="timeSig1" format="2">
  <advance width="351"/>
  <unicode hex="E081"/>
  <outline>
    <contour>
      <point x="249" y="-197" type="line"/>
      <point x="249" y="233" type="line" smooth="yes"/>
      <point x="249" y="240"/>
      <point x="244" y="245"/>
      <point x="237" y="245" type="curve" smooth="yes"/>
      <point x="138" y="245" type="line" smooth="yes"/>
      <point x="136" y="245"/>
      <point x="134" y="244"/>
      <point x="132" y="243" type="curve"/>
      <point x="128" y="239" type="line"/>
      <point x="16" y="45" type="line"/>
      <point x="15" y="43"/>
      <point x="15" y="41"/>
      <point x="15" y="39" type="curve" smooth="yes"/>
      <point x="15" y="35"/>
      <point x="18" y="31"/>
      <point x="21" y="29" type="curve"/>
      <point x="40" y="18" type="line"/>
      <point x="42" y="17"/>
      <point x="44" y="16"/>
      <point x="46" y="16" type="curve" smooth="yes"/>
      <point x="50" y="16"/>
      <point x="54" y="19"/>
      <point x="56" y="22" type="curve"/>
      <point x="127" y="144" type="line"/>
      <point x="127" y="-197" type="line"/>
      <point x="51" y="-197" type="line" smooth="yes"/>
      <point x="44" y="-197"/>
      <point x="39" y="-202"/>
      <point x="39" y="-209" type="curve" smooth="yes"/>
      <point x="39" y="-231" type="line" smooth="yes"/>
      <point x="39" y="-238"/>
      <point x="44" y="-243"/>
      <point x="51" y="-243" type="curve" smooth="yes"/>
      <point x="325" y="-243" type="line" smooth="yes"/>
      <point x="332" y="-243"/>
      <point x="336" y="-238"/>
      <point x="336" y="-231" type="curve" smooth="yes"/>
      <point x="336" y="-209" type="line" smooth="yes"/>
      <point x="336" y="-202"/>
      <point x="332" y="-197"/>
      <point x="325" y="-197" type="curve" smooth="yes"/>
    </contour>
  </outline>
</glyph>
<glyph name="timeSig2" format="2">
  <advance width="392"/>
  <unicode hex="E082"/>
  <outline>
    <contour>
      <point x="342" y="-39" type="curve"/>
      <point x="334" y="-61"/>
      <point x="314" y="-133"/>
      <point x="265" y="-133" type="curve" smooth="yes"/>
      <point x="200" y="-133"/>
      <point x="186" y="-93"/>
      <point x="132" y="-93" type="curve" smooth="yes"/>
      <point x="124" y="-93"/>
      <point x="116" y="-94"/>
      <point x="106" y="-96" type="curve"/>
      <point x="106" y="-96"/>
      <point x="131" y="-58"/>
      <point x="237" y="-25" type="curve" smooth="yes"/>
      <point x="343" y="8"/>
      <point x="370" y="60"/>
      <point x="370" y="120" type="curve" smooth="yes"/>
      <point x="370" y="162"/>
      <point x="351" y="245"/>
      <point x="200" y="245" type="curve" smooth="yes"/>
      <point x="49" y="245"/>
      <point x="21" y="154"/>
      <point x="21" y="108" type="curve" smooth="yes"/>
      <point x="21" y="67"/>
      <point x="55" y="34"/>
      <point x="96" y="34" type="curve" smooth="yes"/>
      <point x="137" y="34"/>
      <point x="170" y="67"/>
      <point x="170" y="108" type="curve" smooth="yes"/>
      <point x="170" y="136"/>
      <point x="150" y="167"/>
      <point x="124" y="177" type="curve"/>
      <point x="121" y="178"/>
      <point x="117" y="183"/>
      <point x="117" y="188" type="curve" smooth="yes"/>
      <point x="117" y="194"/>
      <point x="122" y="201"/>
      <point x="140" y="206" type="curve"/>
      <point x="145" y="208"/>
      <point x="159" y="211"/>
      <point x="174" y="211" type="curve" smooth="yes"/>
      <point x="231" y="211"/>
      <point x="242" y="176"/>
      <point x="242" y="125" type="curve" smooth="yes"/>
      <point x="242" y="8"/>
      <point x="103" y="-17"/>
      <point x="45" y="-104" type="curve"/>
      <point x="45" y="-104"/>
      <point x="15" y="-146"/>
      <point x="15" y="-193" type="curve" smooth="yes"/>
      <point x="15" y="-240"/>
      <point x="39" y="-243"/>
      <point x="51" y="-243" type="curve" smooth="yes"/>
      <point x="67" y="-243"/>
      <point x="84" y="-230"/>
      <point x="84" y="-212" type="curve" smooth="yes"/>
      <point x="84" y="-208"/>
      <point x="83" y="-204"/>
      <point x="81" y="-199" type="curve" smooth="yes"/>
      <point x="75" y="-185"/>
      <point x="73" y="-174"/>
      <point x="73" y="-166" type="curve" smooth="yes"/>
      <point x="73" y="-163"/>
      <point x="73" y="-160"/>
      <point x="74" y="-157" type="curve"/>
      <point x="75" y="-151"/>
      <point x="83" y="-141"/>
      <point x="107" y="-141" type="curve" smooth="yes"/>
      <point x="136" y="-141"/>
      <point x="147" y="-175"/>
      <point x="165" y="-201" type="curve" smooth="yes"/>
      <point x="183" y="-227"/>
      <point x="211" y="-243"/>
      <point x="243" y="-243" type="curve" smooth="yes"/>
      <point x="275" y="-243"/>
      <point x="318" y="-220"/>
      <point x="336" y="-183" type="curve" smooth="yes"/>
      <point x="354" y="-146"/>
      <point x="377" y="-71"/>
      <point x="377" y="-44" type="curve" smooth="yes"/>
      <point x="377" y="-31"/>
      <point x="369" y="-25"/>
      <point x="360" y="-25" type="curve" smooth="yes"/>
      <point x="353" y="-25"/>
      <point x="346" y="-29"/>
    </contour>
  </outline>
</glyph>
<glyph name="timeSig6" format="2">
  <advance width="402"/>
  <unicode hex="E086"/>
  <outline>
    <contour>
      <point x="210" y="-202" type="curve" smooth="yes"/>
      <point x="177" y="-202"/>
      <point x="150" y="-157"/>
      <point x="150" y="-101" type="curve" smooth="yes"/>
      <point x="150" y="-45"/>
      <point x="177" y="1"/>
      <point x="210" y="1" type="curve" smooth="yes"/>
      <point x="243" y="1"/>
      <point x="271" y="-45"/>
      <point x="271" y="-101" type="curve" smooth="yes"/>
      <point x="271" y="-157"/>
      <point x="243" y="-202"/>
    </contour>
    <contour>
      <point x="247" y="48" type="curve" smooth="yes"/>
      <point x="186" y="48"/>
      <point x="164" y="30"/>
      <point x="150" y="15" type="curve"/>
      <point x="147" y="36"/>
      <point x="145" y="52"/>
      <point x="145" y="68" type="curve" smooth="yes"/>
      <point x="145" y="125"/>
      <point x="165" y="199"/>
      <point x="235" y="199" type="curve" smooth="yes"/>
      <point x="260" y="199"/>
      <point x="275" y="191"/>
      <point x="285" y="180" type="curve"/>
      <point x="264" y="171"/>
      <point x="247" y="144"/>
      <point x="247" y="121" type="curve" smooth="yes"/>
      <point x="247" y="85"/>
      <point x="275" y="57"/>
      <point x="311" y="57" type="curve" smooth="yes"/>
      <point x="347" y="57"/>
      <point x="376" y="85"/>
      <point x="376" y="121" type="curve" smooth="yes"/>
      <point x="376" y="124" type="line" smooth="yes"/>
      <point x="376" y="133"/>
      <point x="374" y="148"/>
      <point x="370" y="156" type="curve"/>
      <point x="357" y="192"/>
      <point x="315" y="245"/>
      <point x="215" y="245" type="curve" smooth="yes"/>
      <point x="125" y="245"/>
      <point x="60" y="159"/>
      <point x="40" y="113" type="curve" smooth="yes"/>
      <point x="30" y="89"/>
      <point x="15" y="40"/>
      <point x="15" y="-16" type="curve" smooth="yes"/>
      <point x="15" y="-77"/>
      <point x="32" y="-146"/>
      <point x="91" y="-198" type="curve"/>
      <point x="149" y="-242"/>
      <point x="186" y="-244"/>
      <point x="221" y="-244" type="curve" smooth="yes"/>
      <point x="256" y="-244"/>
      <point x="387" y="-203"/>
      <point x="387" y="-87" type="curve" smooth="yes"/>
      <point x="387" y="11"/>
      <point x="310" y="48"/>
    </contour>
  </outline>
</glyph>
<glyph name="timeSig8" format="2">
  <advance width="408"/>
  <unicode hex="E088"/>
  <outline>
    <contour>
      <point x="268" y="45" type="curve"/>
      <point x="200" y="67"/>
      <point x="125" y="100"/>
      <point x="125" y="145" type="curve" smooth="yes"/>
      <point x="125" y="184"/>
      <point x="161" y="200"/>
      <point x="204" y="200" type="curve" smooth="yes"/>
      <point x="266" y="200"/>
      <point x="308" y="171"/>
      <point x="308" y="125" type="curve" smooth="yes"/>
      <point x="308" y="77"/>
      <point x="286" y="54"/>
    </contour>
    <contour>
      <point x="204" y="-192" type="curve" smooth="yes"/>
      <point x="140" y="-192"/>
      <point x="85" y="-157"/>
      <point x="85" y="-101" type="curve" smooth="yes"/>
      <point x="85" y="-34"/>
      <point x="137" y="-18"/>
      <point x="137" y="-18" type="curve"/>
      <point x="205" y="-41"/>
      <point x="302" y="-75"/>
      <point x="302" y="-130" type="curve" smooth="yes"/>
      <point x="302" y="-157"/>
      <point x="267" y="-192"/>
    </contour>
    <contour>
      <point x="324" y="18" type="curve"/>
      <point x="357" y="43"/>
      <point x="380" y="75"/>
      <point x="380" y="115" type="curve" smooth="yes"/>
      <point x="380" y="187"/>
      <point x="301" y="246"/>
      <point x="204" y="246" type="curve" smooth="yes"/>
      <point x="107" y="246"/>
      <point x="28" y="187"/>
      <point x="28" y="115" type="curve" smooth="yes"/>
      <point x="28" y="75"/>
      <point x="38" y="39"/>
      <point x="85" y="9" type="curve"/>
      <point x="40" y="-17"/>
      <point x="15" y="-54"/>
      <point x="15" y="-102" type="curve" smooth="yes"/>
      <point x="15" y="-183"/>
      <point x="100" y="-248"/>
      <point x="204" y="-248" type="curve" smooth="yes"/>
      <point x="308" y="-248"/>
      <point x="393" y="-183"/>
      <point x="393" y="-102" type="curve" smooth="yes"/>
      <point x="393" y="-54"/>
      <point x="376" y="-9"/>
    </contour>
  </outline>
</glyph>
<glyph name="timeSigCutCommon" format="2">
  <advance width="463"/>
  <unicode hex="E08B"/>
  <outline>
    <contour>
      <point x="136" y="102" type="line" smooth="yes"/>
      <point x="136" y="149"/>
      <point x="150" y="201"/>
      <point x="207" y="217" type="curve"/>
      <point x="207" y="-215" type="line"/>
      <point x="159" y="-198"/>
      <point x="136" y="-155"/>
      <point x="136" y="-89" type="curve" smooth="yes"/>
    </contour>
    <contour>
      <point x="424" y="-83" type="line" smooth="yes"/>
      <point x="420" y="-83"/>
      <point x="416" y="-87"/>
      <point x="416" y="-91" type="curve"/>
      <point x="412" y="-174"/>
      <point x="353" y="-224"/>
      <point x="265" y="-224" type="curve" smooth="yes"/>
      <point x="256" y="-224" type="line"/>
      <point x="256" y="222" type="line"/>
      <point x="297" y="220"/>
      <point x="316" y="203"/>
      <point x="326" y="187" type="curve"/>
      <point x="327" y="185"/>
      <point x="327" y="184"/>
      <point x="327" y="183" type="curve"/>
      <point x="327" y="181"/>
      <point x="327" y="180"/>
      <point x="325" y="179" type="curve"/>
      <point x="300" y="163"/>
      <point x="282" y="134"/>
      <point x="282" y="102" type="curve" smooth="yes"/>
      <point x="282" y="98"/>
      <point x="282" y="94"/>
      <point x="283" y="90" type="curve"/>
      <point x="288" y="49"/>
      <point x="322" y="17"/>
      <point x="363" y="12" type="curve"/>
      <point x="373" y="12" type="line" smooth="yes"/>
      <point x="423" y="12"/>
      <point x="463" y="52"/>
      <point x="463" y="102" type="curve" smooth="yes"/>
      <point x="463" y="108" type="line" smooth="yes"/>
      <point x="463" y="112"/>
      <point x="462" y="119"/>
      <point x="461" y="123" type="curve"/>
      <point x="452" y="164"/>
      <point x="415" y="253"/>
      <point x="256" y="257" type="curve"/>
      <point x="256" y="377" type="line" smooth="yes"/>
      <point x="256" y="383"/>
      <point x="251" y="388"/>
      <point x="245" y="388" type="curve" smooth="yes"/>
      <point x="218" y="388" type="line" smooth="yes"/>
      <point x="212" y="388"/>
      <point x="207" y="383"/>
      <point x="207" y="377" type="curve" smooth="yes"/>
      <point x="207" y="256" type="line"/>
      <point x="22" y="237"/>
      <point x="0" y="73"/>
      <point x="0" y="12" type="curve" smooth="yes"/>
      <point x="0" y="-97"/>
      <point x="12" y="-232"/>
      <point x="207" y="-253" type="curve"/>
      <point x="207" y="-365" type="line" smooth="yes"/>
      <point x="207" y="-371"/>
      <point x="212" y="-376"/>
      <point x="218" y="-376" type="curve" smooth="yes"/>
      <point x="245" y="-376" type="line" smooth="yes"/>
      <point x="251" y="-376"/>
      <point x="256" y="-371"/>
      <point x="256" y="-365" type="curve" smooth="yes"/>
      <point x="256" y="-256" type="line"/>
      <point x="265" y="-256" type="line" smooth="yes"/>
      <point x="364" y="-256"/>
      <point x="441" y="-198"/>
      <point x="445" y="-91" type="curve"/>
      <point x="445" y="-86"/>
      <point x="442" y="-83"/>
      <point x="437" y="-83" type="curve" smooth="yes"/>
    </contour>
  </outline>
</glyph>
<glyph name="timeSigPlus" format="2">
  <advance width="408"/>
  <unicode hex="E08C"/>
  <outline>
    <contour>
      <point x="227" y="23" type="line"/>
      <point x="227" y="191" type="line" smooth="yes"/>
      <point x="227" y="198"/>
      <point x="221" y="204"/>
      <point x="214" y="204" type="curve" smooth="yes"/>
      <point x="194" y="204" type="line" smooth="yes"/>
      <point x="187" y="204"/>
      <point x="181" y="198"/>
      <point x="181" y="191" type="curve" smooth="yes"/>
      <point x="181" y="23" type="line"/>
      <point x="13" y="23" type="line" smooth="yes"/>
      <point x="6" y="23"/>
      <point x="0" y="17"/>
      <point x="0" y="10" type="curve" smooth="yes"/>
      <point x="0" y="-9" type="line" smooth="yes"/>
      <point x="0" y="-16"/>
      <point x="6" y="-23"/>
      <point x="13" y="-23" type="curve" smooth="yes"/>
      <point x="181" y="-23" type="line"/>
      <point x="181" y="-190" type="line" smooth="yes"/>
      <point x="181" y="-197"/>
      <point x="187" y="-204"/>
      <point x="194" y="-204" type="curve" smooth="yes"/>
      <point x="214" y="-204" type="line" smooth="yes"/>
      <point x="221" y="-204"/>
      <point x="227" y="-197"/>
      <point x="227" y="-190" type="curve" smooth="yes"/>
      <point x="227" y="-23" type="line"/>
      <point x="394" y="-23" type="line" smooth="yes"/>
      <point x="401" y="-23"/>
      <point x="408" y="-16"/>
      <point x="408" y="-9" type="curve" smooth="yes"/>
      <point x="408" y="10" type="line" smooth="yes"/>
      <point x="408" y="17"/>
      <point x="401" y="23"/>
      <point x="394" y="23" type="curve" smooth="yes"/>
    </contour>
  </outline>
</glyph>
<glyph name="noteheadHalf" format="2">
  <advance width="325"/>
  <unicode hex="E0A3"/>
  <outline>
    <contour>
      <point x="75" y="-86" type="curve" smooth="yes"/>
      <point x="42" y="-86"/>
      <point x="35" y="-59"/>
      <point x="35" y="-50" type="curve" smooth="yes"/>
      <point x="35" y="-1"/>
      <point x="203" y="85"/>
      <point x="250" y="85" type="curve" smooth="yes"/>
      <point x="274" y="85"/>
      <point x="290" y="71"/>
      <point x="290" y="49" type="curve" smooth="yes"/>
      <point x="290" y="-1"/>
      <point x="121" y="-86"/>
    </contour>
    <contour>
      <point x="213" y="132" type="curve" smooth="yes"/>
      <point x="116" y="132"/>
      <point x="0" y="51"/>
      <point x="0" y="-42" type="curve" smooth="yes"/>
      <point x="0" y="-85"/>
      <point x="31" y="-133"/>
      <point x="112" y="-133" type="curve" smooth="yes"/>
      <point x="216" y="-133"/>
      <point x="325" y="-48"/>
      <point x="325" y="40" type="curve" smooth="yes"/>
      <point x="325" y="99"/>
      <point x="275" y="132"/>
    </contour>
  </outline>
</glyph>
<glyph name="noteheadPlusBlack" format="2">
  <advance width="325"/>
  <unicode hex="E0AF"/>
  <outline>
    <contour>
      <point x="186" y="23" type="line"/>
      <point x="186" y="123" type="line" smooth="yes"/>
      <point x="186" y="128"/>
      <point x="180" y="132"/>
      <point x="172" y="132" type="curve" smooth="yes"/>
      <point x="153" y="132" type="line" smooth="yes"/>
      <point x="145" y="132"/>
      <point x="139" y="128"/>
      <point x="139" y="123" type="curve" smooth="yes"/>
      <point x="139" y="23" type="line"/>
      <point x="11" y="23" type="line" smooth="yes"/>
      <point x="5" y="23"/>
      <point x="0" y="17"/>
      <point x="0" y="9" type="curve" smooth="yes"/>
      <point x="0" y="-10" type="line" smooth="yes"/>
      <point x="0" y="-17"/>
      <point x="5" y="-23"/>
      <point x="11" y="-23" type="curve" smooth="yes"/>
      <point x="140" y="-23" type="line"/>
      <point x="140" y="-124" type="line" smooth="yes"/>
      <point x="140" y="-128"/>
      <point x="146" y="-132"/>
      <point x="153" y="-132" type="curve" smooth="yes"/>
      <point x="172" y="-132" type="line" smooth="yes"/>
      <point x="180" y="-132"/>
      <point x="186" y="-128"/>
      <point x="186" y="-124" type="curve" smooth="yes"/>
      <point x="186" y="-23" type="line"/>
      <point x="314" y="-23" type="line" smooth="yes"/>
      <point x="320" y="-23"/>
      <point x="325" y="-17"/>
      <point x="325" y="-10" type="curve" smooth="yes"/>
      <point x="325" y="9" type="line" smooth="yes"/>
      <point x="325" y="17"/>
      <point x="320" y="23"/>
      <point x="314" y="23" type="curve" smooth="yes"/>
    </contour>
  </outline>
</glyph>
<glyph name="noteheadCircleX" format="2">
  <advance width="325"/>
  <unicode hex="E0B3"/>
  <outline>
    <contour>
      <point x="184" y="0" type="line"/>
      <point x="274" y="73" type="line"/>
      <point x="288" y="52"/>
      <point x="296" y="27"/>
      <point x="296" y="0" type="curve" smooth="yes"/>
      <point x="296" y="-30"/>
      <point x="286" y="-58"/>
      <point x="269" y="-80" type="curve"/>
    </contour>
    <contour>
      <point x="162" y="-19" type="line"/>
      <point x="250" y="-101" type="line"/>
      <point x="227" y="-121"/>
      <point x="196" y="-133"/>
      <point x="163" y="-133" type="curve" smooth="yes"/>
      <point x="127" y="-133"/>
      <point x="93" y="-119"/>
      <point x="69" y="-95" type="curve"/>
    </contour>
    <contour>
      <point x="140" y="1" type="line"/>
      <point x="51" y="-73" type="line"/>
      <point x="37" y="-52"/>
      <point x="29" y="-27"/>
      <point x="29" y="0" type="curve" smooth="yes"/>
      <point x="29" y="30"/>
      <point x="39" y="58"/>
      <point x="56" y="80" type="curve"/>
    </contour>
    <contour>
      <point x="163" y="20" type="line"/>
      <point x="75" y="101" type="line"/>
      <point x="98" y="121"/>
      <point x="129" y="134"/>
      <point x="162" y="134" type="curve" smooth="yes"/>
      <point x="198" y="134"/>
      <point x="232" y="120"/>
      <point x="256" y="96" type="curve"/>
    </contour>
    <contour>
      <point x="162" y="163" type="curve" smooth="yes"/>
      <point x="72" y="163"/>
      <point x="0" y="90"/>
      <point x="0" y="0" type="curve" smooth="yes"/>
      <point x="0" y="-90"/>
      <point x="72" y="-162"/>
      <point x="162" y="-162" type="curve" smooth="yes"/>
      <point x="252" y="-162"/>
      <point x="325" y="-90"/>
      <point x="325" y="0" type="curve" smooth="yes"/>
      <point x="325" y="90"/>
      <point x="252" y="163"/>
    </contour>
  </outline>
</glyph>
<glyph name="noteheadSquareBlack" format="2">
  <advance width="310"/>
  <unicode hex="E0B9"/>
  <outline>
    <contour>
      <point x="310" y="125" type="line"/>
      <point x="0" y="125" type="line"/>
      <point x="0" y="-125" type="line"/>
      <point x="310" y="-125" type="line"/>
    </contour>
  </outline>
</glyph>
<glyph name="noteheadTriangleUpBlack" format="2">
  <advance width="310"/>
  <unicode hex="E0BE"/>
  <outline>
    <contour>
      <point x="155" y="122" type="line"/>
      <point x="0" y="-136" type="line"/>
      <point x="310" y="-136" type="line"/>
    </contour>
  </outline>
</glyph>
<glyph name="noteheadTriangleLeftWhite" format="2">
  <advance width="339"/>
  <unicode hex="E0BF"/>
  <outline>
    <contour>
      <point x="0" y="122" type="line"/>
      <point x="0" y="-136" type="line"/>
      <point x="339" y="-136" type="line"/>
    </contour>
    <contour>
      <point x="204" y="-65" type="line"/>
      <point x="206" y="-66"/>
      <point x="207" y="-68"/>
      <point x="207" y="-70" type="curve" smooth="yes"/>
      <point x="207" y="-74"/>
      <point x="204" y="-78"/>
      <point x="200" y="-78" type="curve" smooth="yes"/>
      <point x="32" y="-78" type="line" smooth="yes"/>
      <point x="28" y="-78"/>
      <point x="25" y="-74"/>
      <point x="25" y="-71" type="curve" smooth="yes"/>
      <point x="25" y="57" type="line" smooth="yes"/>
      <point x="25" y="61"/>
      <point x="29" y="64"/>
      <point x="32" y="64" type="curve" smooth="yes"/>
      <point x="34" y="64"/>
      <point x="35" y="64"/>
      <point x="36" y="63" type="curve"/>
    </contour>
  </outline>
</glyph>
<glyph name="noteheadMoonWhite" format="2">
  <advance width="310"/>
  <unicode hex="E0CA"/>
  <outline>
    <contour>
      <point x="0" y="125" type="line"/>
      <point x="0" y="0" type="line" smooth="yes"/>
      <point x="0" y="-69"/>
      <point x="69" y="-125"/>
      <point x="155" y="-125" type="curve" smooth="yes"/>
      <point x="241" y="-125"/>
      <point x="310" y="-69"/>
      <point x="310" y="0" type="curve" smooth="yes"/>
      <point x="310" y="125" type="line"/>
    </contour>
    <contour>
      <point x="155" y="-89" type="curve" smooth="yes"/>
      <point x="105" y="-89"/>
      <point x="36" y="-58"/>
      <point x="36" y="0" type="curve" smooth="yes"/>
      <point x="36" y="89" type="line"/>
      <point x="274" y="89" type="line"/>
      <point x="274" y="0" type="line" smooth="yes"/>
      <point x="274" y="-58"/>
      <point x="206" y="-89"/>
    </contour>
  </outline>
</glyph>
<glyph name="noteheadMoonBlack" format="2">
  <advance width="310"/>
  <unicode hex="E0CB"/>
  <outline>
    <contour>
      <point x="0" y="125" type="line"/>
      <point x="0" y="0" type="line" smooth="yes"/>
      <point x="0" y="-69"/>
      <point x="69" y="-125"/>
      <point x="155" y="-125" type="curve" smooth="yes"/>
      <point x="241" y="-125"/>
      <point x="310" y="-69"/>
      <point x="310" y="0" type="curve" smooth="yes"/>
      <point x="310" y="125" type="line"/>
    </contour>
  </outline>
</glyph>
<glyph name="noteheadTriangleRoundDownWhite" format="2">
  <advance width="310"/>
  <unicode hex="E0CC"/>
  <outline>
    <contour>
      <point x="157" y="-136" type="line"/>
      <point x="310" y="44" type="line"/>
      <point x="310" y="44"/>
      <point x="267" y="122"/>
      <point x="157" y="122" type="curve" smooth="yes"/>
      <point x="47" y="122"/>
      <point x="0" y="44"/>
      <point x="0" y="44" type="curve"/>
    </contour>
    <contour>
      <point x="157" y="74" type="curve" smooth="yes"/>
      <point x="197" y="74"/>
      <point x="238" y="59"/>
      <point x="264" y="27" type="curve"/>
      <point x="157" y="-99" type="line"/>
      <point x="47" y="27" type="line"/>
      <point x="60" y="42"/>
      <point x="95" y="74"/>
    </contour>
  </outline>
</glyph>
<glyph name="noteheadTriangleRoundDownBlack" format="2">
  <advance width="310"/>
  <unicode hex="E0CD"/>
  <outline>
    <contour>
      <point x="157" y="-136" type="line"/>
      <point x="310" y="44" type="line"/>
      <point x="310" y="44"/>
      <point x="267" y="122"/>
      <point x="157" y="122" type="curve" smooth="yes"/>
      <point x="47" y="122"/>
      <point x="0" y="44"/>
      <point x="0" y="44" type="curve"/>
    </contour>
  </outline>
</glyph>
<glyph name="noteheadSlashedBlack1" format="2">
  <advance width="325"/>
  <unicode hex="E0CF"/>
  <outline>
    <contour>
      <point x="421" y="207" type="curve"/>
      <point x="418" y="210"/>
      <point x="415" y="212"/>
      <point x="411" y="212" type="curve" smooth="yes"/>
      <point x="408" y="212"/>
      <point x="405" y="211"/>
      <point x="403" y="209" type="curve"/>
      <point x="286" y="112" type="line"/>
      <point x="266" y="125"/>
      <point x="241" y="132"/>
      <point x="213" y="132" type="curve" smooth="yes"/>
      <point x="116" y="132"/>
      <point x="0" y="50"/>
      <point x="0" y="-42" type="curve" smooth="yes"/>
      <point x="0" y="-62"/>
      <point x="7" y="-83"/>
      <point x="22" y="-100" type="curve"/>
      <point x="-93" y="-190" type="line"/>
      <point x="-96" y="-193"/>
      <point x="-98" y="-197"/>
      <point x="-98" y="-200" type="curve" smooth="yes"/>
      <point x="-98" y="-208"/>
      <point x="-93" y="-213"/>
      <point x="-85" y="-213" type="curve" smooth="yes"/>
      <point x="-82" y="-213"/>
      <point x="-79" y="-213"/>
      <point x="-77" y="-211" type="curve"/>
      <point x="39" y="-114" type="line"/>
      <point x="57" y="-126"/>
      <point x="81" y="-133"/>
      <point x="112" y="-133" type="curve" smooth="yes"/>
      <point x="216" y="-133"/>
      <point x="325" y="-49"/>
      <point x="325" y="40" type="curve" smooth="yes"/>
      <point x="325" y="63"/>
      <point x="317" y="83"/>
      <point x="303" y="98" type="curve"/>
      <point x="419" y="188" type="line"/>
      <point x="422" y="191"/>
      <point x="424" y="195"/>
      <point x="424" y="198" type="curve" smooth="yes"/>
      <point x="424" y="201"/>
      <point x="423" y="204"/>
    </contour>
  </outline>
</glyph>
<glyph name="noteheadSlashedHalf1" format="2">
  <advance width="325"/>
  <unicode hex="E0D1"/>
  <outline>
    <contour>
      <point x="39" y="-68" type="curve"/>
      <point x="36" y="-63"/>
      <point x="34" y="-57"/>
      <point x="34" y="-51" type="curve" smooth="yes"/>
      <point x="34" y="-40"/>
      <point x="41" y="-27"/>
      <point x="52" y="-16" type="curve" smooth="yes"/>
      <point x="86" y="18"/>
      <point x="203" y="84"/>
      <point x="251" y="84" type="curve"/>
      <point x="156" y="6" type="line"/>
      <point x="48" y="-79" type="line"/>
      <point x="45" y="-76"/>
      <point x="42" y="-72"/>
    </contour>
    <contour>
      <point x="285" y="65" type="curve"/>
      <point x="288" y="60"/>
      <point x="289" y="54"/>
      <point x="289" y="48" type="curve" smooth="yes"/>
      <point x="289" y="37"/>
      <point x="283" y="25"/>
      <point x="272" y="13" type="curve"/>
      <point x="241" y="-18"/>
      <point x="119" y="-87"/>
      <point x="74" y="-87" type="curve"/>
      <point x="74" y="-87"/>
      <point x="73" y="-87"/>
      <point x="72" y="-87" type="curve"/>
      <point x="170" y="-6" type="line"/>
      <point x="275" y="77" type="line"/>
      <point x="279" y="74"/>
      <point x="283" y="70"/>
    </contour>
    <contour>
      <point x="411" y="212" type="curve" smooth="yes"/>
      <point x="408" y="212"/>
      <point x="405" y="211"/>
      <point x="403" y="209" type="curve"/>
      <point x="286" y="113" type="line"/>
      <point x="266" y="125"/>
      <point x="241" y="132"/>
      <point x="213" y="132" type="curve" smooth="yes"/>
      <point x="123" y="132"/>
      <point x="0" y="55"/>
      <point x="0" y="-42" type="curve" smooth="yes"/>
      <point x="0" y="-56"/>
      <point x="3" y="-70"/>
      <point x="10" y="-83" type="curve"/>
      <point x="14" y="-89"/>
      <point x="18" y="-94"/>
      <point x="22" y="-99" type="curve"/>
      <point x="-93" y="-190" type="line"/>
      <point x="-96" y="-192"/>
      <point x="-98" y="-196"/>
      <point x="-98" y="-200" type="curve" smooth="yes"/>
      <point x="-98" y="-203"/>
      <point x="-97" y="-206"/>
      <point x="-95" y="-208" type="curve"/>
      <point x="-93" y="-211"/>
      <point x="-89" y="-213"/>
      <point x="-85" y="-213" type="curve" smooth="yes"/>
      <point x="-82" y="-213"/>
      <point x="-79" y="-212"/>
      <point x="-77" y="-210" type="curve"/>
      <point x="39" y="-114" type="line"/>
      <point x="59" y="-126"/>
      <point x="84" y="-133"/>
      <point x="112" y="-133" type="curve" smooth="yes"/>
      <point x="203" y="-133"/>
      <point x="325" y="-59"/>
      <point x="325" y="40" type="curve" smooth="yes"/>
      <point x="325" y="60"/>
      <point x="318" y="83"/>
      <point x="303" y="98" type="curve"/>
      <point x="419" y="189" type="line"/>
      <point x="422" y="191"/>
      <point x="424" y="195"/>
      <point x="424" y="199" type="curve" smooth="yes"/>
      <point x="424" y="206"/>
      <point x="418" y="212"/>
    </contour>
  </outline>
</glyph>
<glyph name="noteheadSlashedDoubleWhole1" format="2">
  <advance width="390"/>
  <unicode hex="E0D5"/>
  <outline>
    <contour>
      <point x="37" y="-113" type="line"/>
      <point x="37" y="-86" type="line"/>
      <point x="42" y="-91"/>
      <point x="47" y="-96"/>
      <point x="53" y="-100" type="curve"/>
    </contour>
    <contour>
      <point x="187" y="103" type="curve" smooth="yes"/>
      <point x="215" y="103"/>
      <point x="232" y="97"/>
      <point x="247" y="70" type="curve"/>
      <point x="248" y="67"/>
      <point x="250" y="63"/>
      <point x="252" y="59" type="curve"/>
      <point x="131" y="-39" type="line"/>
      <point x="121" y="-10"/>
      <point x="112" y="28"/>
      <point x="111" y="46" type="curve"/>
      <point x="111" y="95"/>
      <point x="145" y="103"/>
    </contour>
    <contour>
      <point x="279" y="-47" type="curve" smooth="yes"/>
      <point x="279" y="-98"/>
      <point x="240" y="-103"/>
      <point x="199" y="-103" type="curve" smooth="yes"/>
      <point x="173" y="-103"/>
      <point x="156" y="-94"/>
      <point x="144" y="-70" type="curve"/>
      <point x="142" y="-67"/>
      <point x="140" y="-63"/>
      <point x="138" y="-58" type="curve"/>
      <point x="259" y="39" type="line"/>
      <point x="270" y="9"/>
      <point x="279" y="-28"/>
    </contour>
    <contour>
      <point x="354" y="86" type="line"/>
      <point x="349" y="91"/>
      <point x="343" y="95"/>
      <point x="337" y="100" type="curve"/>
      <point x="354" y="113" type="line"/>
    </contour>
    <contour>
      <point x="453" y="207" type="curve"/>
      <point x="451" y="211"/>
      <point x="447" y="212"/>
      <point x="443" y="212" type="curve" smooth="yes"/>
      <point x="440" y="212"/>
      <point x="437" y="211"/>
      <point x="435" y="209" type="curve"/>
      <point x="389" y="172" type="line"/>
      <point x="387" y="176"/>
      <point x="382" y="178"/>
      <point x="377" y="178" type="curve" smooth="yes"/>
      <point x="368" y="178" type="line" smooth="yes"/>
      <point x="360" y="178"/>
      <point x="354" y="172"/>
      <point x="354" y="164" type="curve" smooth="yes"/>
      <point x="354" y="142" type="line"/>
      <point x="316" y="112" type="line"/>
      <point x="287" y="126"/>
      <point x="247" y="135"/>
      <point x="195" y="135" type="curve" smooth="yes"/>
      <point x="117" y="135"/>
      <point x="67" y="115"/>
      <point x="37" y="86" type="curve"/>
      <point x="37" y="164" type="line" smooth="yes"/>
      <point x="37" y="176"/>
      <point x="29" y="178"/>
      <point x="20" y="178" type="curve" smooth="yes"/>
      <point x="10" y="178"/>
      <point x="0" y="177"/>
      <point x="0" y="164" type="curve" smooth="yes"/>
      <point x="0" y="-142" type="line"/>
      <point x="-61" y="-189" type="line"/>
      <point x="-64" y="-192"/>
      <point x="-66" y="-196"/>
      <point x="-66" y="-200" type="curve" smooth="yes"/>
      <point x="-66" y="-202"/>
      <point x="-65" y="-205"/>
      <point x="-63" y="-208" type="curve"/>
      <point x="-60" y="-211"/>
      <point x="-57" y="-213"/>
      <point x="-53" y="-213" type="curve" smooth="yes"/>
      <point x="-50" y="-213"/>
      <point x="-47" y="-212"/>
      <point x="-45" y="-210" type="curve"/>
      <point x="2" y="-172" type="line"/>
      <point x="4" y="-176"/>
      <point x="8" y="-179"/>
      <point x="14" y="-179" type="curve" smooth="yes"/>
      <point x="23" y="-179"/>
      <point x="36" y="-177"/>
      <point x="37" y="-165" type="curve"/>
      <point x="37" y="-143" type="line"/>
      <point x="74" y="-112" type="line"/>
      <point x="103" y="-127"/>
      <point x="143" y="-136"/>
      <point x="195" y="-136" type="curve" smooth="yes"/>
      <point x="273" y="-136"/>
      <point x="323" y="-115"/>
      <point x="354" y="-86" type="curve"/>
      <point x="354" y="-165" type="line" smooth="yes"/>
      <point x="354" y="-172"/>
      <point x="360" y="-179"/>
      <point x="368" y="-179" type="curve" smooth="yes"/>
      <point x="377" y="-179"/>
      <point x="391" y="-177"/>
      <point x="391" y="-165" type="curve" smooth="yes"/>
      <point x="391" y="-159"/>
      <point x="391" y="68"/>
      <point x="391" y="142" type="curve"/>
      <point x="451" y="189" type="line" smooth="yes"/>
      <point x="455" y="192"/>
      <point x="456" y="196"/>
      <point x="456" y="200" type="curve" smooth="yes"/>
      <point x="456" y="202"/>
      <point x="455" y="205"/>
    </contour>
  </outline>
</glyph>
<glyph name="noteheadSlashedDoubleWhole2" format="2">
  <advance width="390"/>
  <unicode hex="E0D6"/>
  <outline>
    <contour>
      <point x="54" y="100" type="line"/>
      <point x="48" y="95"/>
      <point x="42" y="91"/>
      <point x="37" y="86" type="curve"/>
      <point x="37" y="113" type="line"/>
    </contour>
    <contour>
      <point x="247" y="-98" type="curve"/>
      <point x="235" y="-101"/>
      <point x="219" y="-103"/>
      <point x="204" y="-103" type="curve" smooth="yes"/>
      <point x="176" y="-103"/>
      <point x="157" y="-95"/>
      <point x="144" y="-70" type="curve" smooth="yes"/>
      <point x="131" y="-45"/>
      <point x="111" y="22"/>
      <point x="111" y="50" type="curve" smooth="yes"/>
      <point x="111" y="52"/>
      <point x="111" y="53"/>
      <point x="112" y="54" type="curve"/>
      <point x="188" y="-6" type="line"/>
      <point x="274" y="-76" type="line"/>
      <point x="269" y="-86"/>
      <point x="260" y="-93"/>
    </contour>
    <contour>
      <point x="144" y="97" type="curve"/>
      <point x="156" y="100"/>
      <point x="172" y="103"/>
      <point x="187" y="103" type="curve" smooth="yes"/>
      <point x="215" y="103"/>
      <point x="233" y="97"/>
      <point x="247" y="70" type="curve" smooth="yes"/>
      <point x="263" y="39"/>
      <point x="279" y="-19"/>
      <point x="279" y="-54" type="curve"/>
      <point x="203" y="6" type="line"/>
      <point x="117" y="76" type="line"/>
      <point x="122" y="86"/>
      <point x="131" y="93"/>
    </contour>
    <contour>
      <point x="337" y="-100" type="line"/>
      <point x="343" y="-96"/>
      <point x="349" y="-91"/>
      <point x="354" y="-86" type="curve"/>
      <point x="354" y="-113" type="line"/>
    </contour>
    <contour>
      <point x="391" y="-142" type="line"/>
      <point x="391" y="164" type="line" smooth="yes"/>
      <point x="391" y="173"/>
      <point x="385" y="178"/>
      <point x="377" y="178" type="curve" smooth="yes"/>
      <point x="368" y="178" type="line" smooth="yes"/>
      <point x="360" y="178"/>
      <point x="354" y="172"/>
      <point x="354" y="164" type="curve" smooth="yes"/>
      <point x="354" y="86" type="line"/>
      <point x="324" y="115"/>
      <point x="273" y="135"/>
      <point x="195" y="135" type="curve" smooth="yes"/>
      <point x="144" y="135"/>
      <point x="104" y="126"/>
      <point x="74" y="112" type="curve"/>
      <point x="37" y="142" type="line"/>
      <point x="37" y="164" type="line" smooth="yes"/>
      <point x="37" y="173"/>
      <point x="31" y="178"/>
      <point x="23" y="178" type="curve" smooth="yes"/>
      <point x="14" y="178" type="line" smooth="yes"/>
      <point x="8" y="178"/>
      <point x="4" y="176"/>
      <point x="2" y="171" type="curve"/>
      <point x="-44" y="209" type="line"/>
      <point x="-47" y="211"/>
      <point x="-50" y="212"/>
      <point x="-53" y="212" type="curve" smooth="yes"/>
      <point x="-56" y="212"/>
      <point x="-60" y="211"/>
      <point x="-63" y="207" type="curve"/>
      <point x="-65" y="205"/>
      <point x="-66" y="202"/>
      <point x="-66" y="199" type="curve" smooth="yes"/>
      <point x="-66" y="195"/>
      <point x="-64" y="192"/>
      <point x="-61" y="189" type="curve"/>
      <point x="0" y="142" type="line"/>
      <point x="0" y="-165" type="line" smooth="yes"/>
      <point x="0" y="-172"/>
      <point x="6" y="-179"/>
      <point x="14" y="-179" type="curve" smooth="yes"/>
      <point x="23" y="-179" type="line" smooth="yes"/>
      <point x="30" y="-179"/>
      <point x="37" y="-171"/>
      <point x="37" y="-165" type="curve" smooth="yes"/>
      <point x="37" y="-86" type="line"/>
      <point x="67" y="-115"/>
      <point x="118" y="-136"/>
      <point x="195" y="-136" type="curve" smooth="yes"/>
      <point x="247" y="-136"/>
      <point x="287" y="-127"/>
      <point x="317" y="-112" type="curve"/>
      <point x="354" y="-143" type="line"/>
      <point x="354" y="-165" type="line" smooth="yes"/>
      <point x="354" y="-172"/>
      <point x="360" y="-179"/>
      <point x="368" y="-179" type="curve" smooth="yes"/>
      <point x="377" y="-179" type="line" smooth="yes"/>
      <point x="381" y="-179"/>
      <point x="386" y="-175"/>
      <point x="389" y="-171" type="curve"/>
      <point x="435" y="-210" type="line"/>
      <point x="438" y="-212"/>
      <point x="440" y="-213"/>
      <point x="443" y="-213" type="curve" smooth="yes"/>
      <point x="448" y="-213"/>
      <point x="451" y="-211"/>
      <point x="454" y="-208" type="curve"/>
      <point x="455" y="-205"/>
      <point x="456" y="-203"/>
      <point x="456" y="-200" type="curve" smooth="yes"/>
      <point x="456" y="-196"/>
      <point x="455" y="-192"/>
      <point x="452" y="-189" type="curve"/>
    </contour>
  </outline>
</glyph>
<glyph name="noteheadDiamondDoubleWhole" format="2">
  <advance width="373"/>
  <unicode hex="E0D7"/>
  <outline>
    <contour>
      <point x="153" y="-80" type="line"/>
      <point x="71" y="-23" type="line"/>
      <point x="220" y="81" type="line"/>
      <point x="302" y="24" type="line"/>
    </contour>
    <contour>
      <point x="350" y="179" type="line" smooth="yes"/>
      <point x="343" y="179"/>
      <point x="336" y="172"/>
      <point x="336" y="165" type="curve" smooth="yes"/>
      <point x="336" y="32" type="line"/>
      <point x="288" y="66"/>
      <point x="198" y="129"/>
      <point x="196" y="130" type="curve"/>
      <point x="194" y="132"/>
      <point x="191" y="133"/>
      <point x="186" y="133" type="curve" smooth="yes"/>
      <point x="182" y="133"/>
      <point x="179" y="132"/>
      <point x="177" y="130" type="curve"/>
      <point x="36" y="31" type="line"/>
      <point x="36" y="165" type="line" smooth="yes"/>
      <point x="36" y="172"/>
      <point x="30" y="179"/>
      <point x="23" y="179" type="curve" smooth="yes"/>
      <point x="14" y="179" type="line" smooth="yes"/>
      <point x="6" y="179"/>
      <point x="0" y="172"/>
      <point x="0" y="165" type="curve" smooth="yes"/>
      <point x="0" y="-164" type="line" smooth="yes"/>
      <point x="0" y="-172"/>
      <point x="6" y="-178"/>
      <point x="14" y="-178" type="curve" smooth="yes"/>
      <point x="23" y="-178" type="line" smooth="yes"/>
      <point x="30" y="-178"/>
      <point x="36" y="-172"/>
      <point x="36" y="-164" type="curve" smooth="yes"/>
      <point x="36" y="-31" type="line"/>
      <point x="173" y="-126" type="line"/>
      <point x="179" y="-131"/>
      <point x="183" y="-132"/>
      <point x="186" y="-132" type="curve" smooth="yes"/>
      <point x="190" y="-132"/>
      <point x="194" y="-131"/>
      <point x="196" y="-129" type="curve"/>
      <point x="198" y="-128"/>
      <point x="287" y="-65"/>
      <point x="336" y="-30" type="curve"/>
      <point x="336" y="-164" type="line" smooth="yes"/>
      <point x="336" y="-172"/>
      <point x="343" y="-178"/>
      <point x="350" y="-178" type="curve" smooth="yes"/>
      <point x="359" y="-178" type="line" smooth="yes"/>
      <point x="367" y="-178"/>
      <point x="373" y="-172"/>
      <point x="373" y="-164" type="curve" smooth="yes"/>
      <point x="373" y="165" type="line" smooth="yes"/>
      <point x="373" y="172"/>
      <point x="367" y="179"/>
      <point x="359" y="179" type="curve" smooth="yes"/>
    </contour>
  </outline>
</glyph>
<glyph name="noteheadDiamondWhole" format="2">
  <advance width="373"/>
  <unicode hex="E0D8"/>
  <outline>
    <contour>
      <point x="153" y="-81" type="line"/>
      <point x="71" y="-24" type="line"/>
      <point x="220" y="80" type="line"/>
      <point x="302" y="23" type="line"/>
    </contour>
    <contour>
      <point x="196" y="-130" type="curve"/>
      <point x="198" y="-129"/>
      <point x="351" y="-21"/>
      <point x="368" y="-9" type="curve"/>
      <point x="371" y="-7"/>
      <point x="373" y="-4"/>
      <point x="373" y="0" type="curve" smooth="yes"/>
      <point x="373" y="3"/>
      <point x="371" y="7"/>
      <point x="368" y="9" type="curve"/>
      <point x="351" y="21"/>
      <point x="199" y="127"/>
      <point x="196" y="129" type="curve"/>
      <point x="194" y="131"/>
      <point x="191" y="132"/>
      <point x="186" y="132" type="curve" smooth="yes"/>
      <point x="182" y="132"/>
      <point x="179" y="131"/>
      <point x="177" y="129" type="curve"/>
      <point x="5" y="8" type="line" smooth="yes"/>
      <point x="2" y="6"/>
      <point x="0" y="3"/>
      <point x="0" y="-1" type="curve" smooth="yes"/>
      <point x="0" y="-4"/>
      <point x="1" y="-7"/>
      <point x="3" y="-9" type="curve"/>
      <point x="173" y="-127" type="line"/>
      <point x="179" y="-132"/>
      <point x="183" y="-133"/>
      <point x="186" y="-133" type="curve" smooth="yes"/>
      <point x="190" y="-133"/>
      <point x="194" y="-132"/>
    </contour>
  </outline>
</glyph>
<glyph name="noteheadDiamondBlack" format="2">
  <advance width="335"/>
  <unicode hex="E0DB"/>
  <outline>
    <contour>
      <point x="330" y="-10" type="line"/>
      <point x="333" y="-7"/>
      <point x="335" y="-4"/>
      <point x="335" y="-1" type="curve" smooth="yes"/>
      <point x="335" y="3"/>
      <point x="333" y="7"/>
      <point x="330" y="9" type="curve"/>
      <point x="176" y="130" type="line"/>
      <point x="174" y="132"/>
      <point x="171" y="133"/>
      <point x="167" y="133" type="curve" smooth="yes"/>
      <point x="164" y="133"/>
      <point x="161" y="132"/>
      <point x="159" y="130" type="curve"/>
      <point x="5" y="9" type="line"/>
      <point x="2" y="7"/>
      <point x="0" y="3"/>
      <point x="0" y="0" type="curve" smooth="yes"/>
      <point x="0" y="-4"/>
      <point x="2" y="-7"/>
      <point x="5" y="-10" type="curve"/>
      <point x="159" y="-129" type="line"/>
      <point x="161" y="-131"/>
      <point x="164" y="-132"/>
      <point x="167" y="-132" type="curve" smooth="yes"/>
      <point x="171" y="-132"/>
      <point x="174" y="-131"/>
      <point x="176" y="-129" type="curve"/>
    </contour>
  </outline>
</glyph>
<glyph name="noteheadCircledXLarge" format="2">
  <advance width="460"/>
  <unicode hex="E0EC"/>
  <outline>
    <contour>
      <point x="230" y="230" type="curve" smooth="yes"/>
      <point x="103" y="230"/>
      <point x="0" y="127"/>
      <point x="0" y="0" type="curve" smooth="yes"/>
      <point x="0" y="-127"/>
      <point x="103" y="-230"/>
      <point x="230" y="-230" type="curve" smooth="yes"/>
      <point x="357" y="-230"/>
      <point x="460" y="-127"/>
      <point x="460" y="0" type="curve" smooth="yes"/>
      <point x="460" y="127"/>
      <point x="357" y="230"/>
    </contour>
    <contour>
      <point x="230" y="-206" type="curve" smooth="yes"/>
      <point x="116" y="-206"/>
      <point x="24" y="-113"/>
      <point x="24" y="0" type="curve" smooth="yes"/>
      <point x="24" y="114"/>
      <point x="117" y="206"/>
      <point x="230" y="206" type="curve" smooth="yes"/>
      <point x="344" y="206"/>
      <point x="436" y="113"/>
      <point x="436" y="0" type="curve" smooth="yes"/>
      <point x="436" y="-114"/>
      <point x="345" y="-206"/>
    </contour>
    <contour>
      <point x="388" y="96" type="line"/>
      <point x="391" y="98"/>
      <point x="393" y="102"/>
      <point x="393" y="106" type="curve"/>
      <point x="393" y="107" type="line"/>
      <point x="393" y="111"/>
      <point x="391" y="114"/>
      <point x="389" y="116" type="curve" smooth="yes"/>
      <point x="377" y="128" type="line"/>
      <point x="374" y="130"/>
      <point x="371" y="132"/>
      <point x="367" y="132" type="curve" smooth="yes"/>
      <point x="364" y="132"/>
      <point x="360" y="131"/>
      <point x="358" y="129" type="curve"/>
      <point x="231" y="28" type="line"/>
      <point x="103" y="129" type="line"/>
      <point x="101" y="131"/>
      <point x="97" y="132"/>
      <point x="94" y="132" type="curve" smooth="yes"/>
      <point x="90" y="132"/>
      <point x="88" y="130"/>
      <point x="85" y="128" type="curve"/>
      <point x="72" y="116" type="line"/>
      <point x="70" y="114"/>
      <point x="68" y="110"/>
      <point x="68" y="106" type="curve" smooth="yes"/>
      <point x="68" y="102"/>
      <point x="70" y="98"/>
      <point x="73" y="96" type="curve"/>
      <point x="195" y="0" type="line"/>
      <point x="73" y="-96" type="line"/>
      <point x="70" y="-98"/>
      <point x="68" y="-102"/>
      <point x="68" y="-106" type="curve" smooth="yes"/>
      <point x="68" y="-109"/>
      <point x="70" y="-113"/>
      <point x="72" y="-115" type="curve"/>
      <point x="84" y="-128" type="line"/>
      <point x="86" y="-131"/>
      <point x="90" y="-132"/>
      <point x="94" y="-132" type="curve" smooth="yes"/>
      <point x="97" y="-132"/>
      <point x="101" y="-131"/>
      <point x="103" y="-129" type="curve"/>
      <point x="231" y="-28" type="line"/>
      <point x="358" y="-129" type="line"/>
      <point x="360" y="-131"/>
      <point x="364" y="-132"/>
      <point x="367" y="-132" type="curve" smooth="yes"/>
      <point x="371" y="-132"/>
      <point x="375" y="-131"/>
      <point x="377" y="-128" type="curve"/>
      <point x="389" y="-115" type="line"/>
      <point x="391" y="-113"/>
      <point x="393" y="-109"/>
      <point x="393" y="-106" type="curve" smooth="yes"/>
      <point x="393" y="-102"/>
      <point x="391" y="-98"/>
      <point x="388" y="-96" type="curve"/>
      <point x="266" y="0" type="line"/>
    </contour>
  </outline>
</glyph>
<glyph name="noteheadParenthesisLeft" format="2">
  <advance width="98"/>
  <unicode hex="E0F5"/>
  <outline>
    <contour>
      <point x="85" y="-207" type="curve"/>
      <point x="86" y="-208"/>
      <point x="89" y="-210"/>
      <point x="92" y="-210" type="curve" smooth="yes"/>
      <point x="95" y="-210"/>
      <point x="98" y="-206"/>
      <point x="98" y="-203" type="curve"/>
      <point x="98" y="-202"/>
      <point x="98" y="-201"/>
      <point x="97" y="-198" type="curve"/>
      <point x="88" y="-176"/>
      <point x="42" y="-105"/>
      <point x="42" y="0" type="curve" smooth="yes"/>
      <point x="42" y="57"/>
      <point x="56" y="129"/>
      <point x="97" y="199" type="curve"/>
      <point x="98" y="200"/>
      <point x="98" y="202"/>
      <point x="98" y="204" type="curve" smooth="yes"/>
      <point x="98" y="207"/>
      <point x="95" y="211"/>
      <point x="92" y="211" type="curve" smooth="yes"/>
      <point x="89" y="211"/>
      <point x="87" y="210"/>
      <point x="85" y="208" type="curve"/>
      <point x="83" y="204"/>
      <point x="0" y="150"/>
      <point x="0" y="0" type="curve" smooth="yes"/>
      <point x="0" y="-150"/>
      <point x="82" y="-203"/>
    </contour>
  </outline>
</glyph>
<glyph name="noteheadParenthesisRight" format="2">
  <advance width="98"/>
  <unicode hex="E0F6"/>
  <outline>
    <contour>
      <point x="13" y="-207" type="curve"/>
      <point x="16" y="-203"/>
      <point x="98" y="-150"/>
      <point x="98" y="0" type="curve" smooth="yes"/>
      <point x="98" y="150"/>
      <point x="15" y="204"/>
      <point x="13" y="208" type="curve"/>
      <point x="11" y="210"/>
      <point x="9" y="211"/>
      <point x="6" y="211" type="curve" smooth="yes"/>
      <point x="3" y="211"/>
      <point x="0" y="207"/>
      <point x="0" y="204" type="curve" smooth="yes"/>
      <point x="0" y="202"/>
      <point x="0" y="200"/>
      <point x="1" y="199" type="curve"/>
      <point x="42" y="129"/>
      <point x="56" y="57"/>
      <point x="56" y="0" type="curve" smooth="yes"/>
      <point x="56" y="-105"/>
      <point x="10" y="-176"/>
      <point x="1" y="-198" type="curve"/>
      <point x="0" y="-201"/>
      <point x="0" y="-202"/>
      <point x="0" y="-203" type="curve"/>
      <point x="0" y="-206"/>
      <point x="3" y="-210"/>
      <point x="6" y="-210" type="curve" smooth="yes"/>
      <point x="9" y="-210"/>
      <point x="12" y="-208"/>
    </contour>
  </outline>
</glyph>
<glyph name="noteheadHalfFilled" format="2">
  <advance width="325"/>
  <unicode hex="E0FB"/>
  <outline>
    <contour>
      <point x="213" y="132" type="curve" smooth="yes"/>
      <point x="116" y="132"/>
      <point x="0" y="51"/>
      <point x="0" y="-42" type="curve" smooth="yes"/>
      <point x="0" y="-85"/>
      <point x="31" y="-133"/>
      <point x="112" y="-133" type="curve" smooth="yes"/>
      <point x="216" y="-133"/>
      <point x="325" y="-48"/>
      <point x="325" y="40" type="curve" smooth="yes"/>
      <point x="325" y="99"/>
      <point x="275" y="132"/>
    </contour>
  </outline>
</glyph>
<glyph name="noteheadRoundWhiteDoubleSlashed" format="2">
  <advance width="265"/>
  <unicode hex="E11D"/>
  <outline>
    <contour>
      <point x="133" y="101" type="curve" smooth="yes"/>
      <point x="156" y="101"/>
      <point x="177" y="92"/>
      <point x="195" y="79" type="curve"/>
      <point x="53" y="-62" type="line"/>
      <point x="40" y="-45"/>
      <point x="32" y="-23"/>
      <point x="32" y="0" type="curve" smooth="yes"/>
      <point x="32" y="55"/>
      <point x="77" y="101"/>
    </contour>
    <contour>
      <point x="133" y="-101" type="curve" smooth="yes"/>
      <point x="109" y="-101"/>
      <point x="88" y="-92"/>
      <point x="70" y="-79" type="curve"/>
      <point x="212" y="62" type="line"/>
      <point x="225" y="45"/>
      <point x="233" y="23"/>
      <point x="233" y="0" type="curve" smooth="yes"/>
      <point x="233" y="-55"/>
      <point x="188" y="-101"/>
    </contour>
    <contour>
      <point x="337" y="204" type="curve"/>
      <point x="335" y="207"/>
      <point x="331" y="208"/>
      <point x="328" y="208" type="curve" smooth="yes"/>
      <point x="325" y="208"/>
      <point x="322" y="207"/>
      <point x="320" y="204" type="curve"/>
      <point x="228" y="112" type="line"/>
      <point x="143" y="198" type="line"/>
      <point x="140" y="200"/>
      <point x="137" y="201"/>
      <point x="134" y="201" type="curve" smooth="yes"/>
      <point x="127" y="201"/>
      <point x="122" y="196"/>
      <point x="122" y="189" type="curve" smooth="yes"/>
      <point x="122" y="186"/>
      <point x="123" y="183"/>
      <point x="126" y="181" type="curve"/>
      <point x="184" y="122" type="line"/>
      <point x="168" y="129"/>
      <point x="151" y="133"/>
      <point x="133" y="133" type="curve" smooth="yes"/>
      <point x="59" y="133"/>
      <point x="0" y="73"/>
      <point x="0" y="0" type="curve" smooth="yes"/>
      <point x="0" y="-18"/>
      <point x="4" y="-36"/>
      <point x="10" y="-52" type="curve"/>
      <point x="-48" y="7" type="line" smooth="yes"/>
      <point x="-50" y="9"/>
      <point x="-53" y="10"/>
      <point x="-57" y="10" type="curve" smooth="yes"/>
      <point x="-60" y="10"/>
      <point x="-63" y="9"/>
      <point x="-65" y="7" type="curve"/>
      <point x="-67" y="4"/>
      <point x="-69" y="1"/>
      <point x="-69" y="-2" type="curve" smooth="yes"/>
      <point x="-69" y="-5"/>
      <point x="-67" y="-8"/>
      <point x="-65" y="-10" type="curve" smooth="yes"/>
      <point x="20" y="-95" type="line"/>
      <point x="-72" y="-187" type="line"/>
      <point x="-74" y="-190"/>
      <point x="-75" y="-193"/>
      <point x="-75" y="-196" type="curve" smooth="yes"/>
      <point x="-75" y="-199"/>
      <point x="-74" y="-202"/>
      <point x="-72" y="-204" type="curve"/>
      <point x="-70" y="-207"/>
      <point x="-66" y="-208"/>
      <point x="-63" y="-208" type="curve" smooth="yes"/>
      <point x="-60" y="-208"/>
      <point x="-57" y="-207"/>
      <point x="-55" y="-204" type="curve"/>
      <point x="37" y="-112" type="line"/>
      <point x="122" y="-198" type="line"/>
      <point x="125" y="-200"/>
      <point x="128" y="-201"/>
      <point x="131" y="-201" type="curve" smooth="yes"/>
      <point x="138" y="-201"/>
      <point x="143" y="-196"/>
      <point x="143" y="-189" type="curve" smooth="yes"/>
      <point x="143" y="-186"/>
      <point x="142" y="-183"/>
      <point x="139" y="-181" type="curve"/>
      <point x="81" y="-122" type="line"/>
      <point x="97" y="-129"/>
      <point x="114" y="-133"/>
      <point x="133" y="-133" type="curve" smooth="yes"/>
      <point x="206" y="-133"/>
      <point x="265" y="-73"/>
      <point x="265" y="0" type="curve" smooth="yes"/>
      <point x="265" y="18"/>
      <point x="261" y="36"/>
      <point x="255" y="52" type="curve"/>
      <point x="313" y="-7" type="line" smooth="yes"/>
      <point x="315" y="-9"/>
      <point x="318" y="-10"/>
      <point x="322" y="-10" type="curve" smooth="yes"/>
      <point x="325" y="-10"/>
      <point x="328" y="-9"/>
      <point x="330" y="-7" type="curve"/>
      <point x="332" y="-4"/>
      <point x="334" y="-1"/>
      <point x="334" y="2" type="curve" smooth="yes"/>
      <point x="334" y="5"/>
      <point x="332" y="8"/>
      <point x="330" y="10" type="curve" smooth="yes"/>
      <point x="245" y="95" type="line"/>
      <point x="337" y="187" type="line"/>
      <point x="339" y="190"/>
      <point x="340" y="193"/>
      <point x="340" y="196" type="curve" smooth="yes"/>
      <point x="340" y="199"/>
      <point x="339" y="202"/>
    </contour>
  </outline>
</glyph>
<glyph name="noteheadClusterSquareWhite" format="2">
  <advance width="325"/>
  <unicode hex="E120"/>
  <outline>
    <contour>
      <point x="0" y="-126" type="line"/>
      <point x="325" y="-126" type="line"/>
      <point x="325" y="626" type="line"/>
      <point x="0" y="626" type="line"/>
    </contour>
    <contour>
      <point x="50" y="576" type="line"/>
      <point x="275" y="576" type="line"/>
      <point x="275" y="-76" type="line"/>
      <point x="50" y="-76" type="line"/>
    </contour>
  </outline>
</glyph>
<glyph name="noteheadClusterSquareBlack" format="2">
  <advance width="325"/>
  <unicode hex="E121"/>
  <outline>
    <contour>
      <point x="0" y="-126" type="line"/>
      <point x="325" y="-126" type="line"/>
      <point x="325" y="626" type="line"/>
      <point x="0" y="626" type="line"/>
    </contour>
  </outline>
</glyph>
<glyph name="noteDoubleWholeSquare" format="2">
  <advance width="432"/>
  <unicode hex="E1D1"/>
  <outline>
    <contour>
      <point x="410" y="177" type="line" smooth="yes"/>
      <point x="402" y="177"/>
      <point x="396" y="171"/>
      <point x="396" y="163" type="curve" smooth="yes"/>
      <point x="396" y="141" type="line"/>
      <point x="37" y="141" type="line"/>
      <point x="37" y="163" type="line" smooth="yes"/>
      <point x="37" y="171"/>
      <point x="31" y="177"/>
      <point x="23" y="177" type="curve" smooth="yes"/>
      <point x="14" y="177" type="line" smooth="yes"/>
      <point x="6" y="177"/>
      <point x="0" y="171"/>
      <point x="0" y="163" type="curve" smooth="yes"/>
      <point x="0" y="-160" type="line" smooth="yes"/>
      <point x="0" y="-168"/>
      <point x="6" y="-174"/>
      <point x="14" y="-174" type="curve" smooth="yes"/>
      <point x="23" y="-174" type="line" smooth="yes"/>
      <point x="31" y="-174"/>
      <point x="37" y="-168"/>
      <point x="37" y="-160" type="curve" smooth="yes"/>
      <point x="37" y="-139" type="line"/>
      <point x="396" y="-139" type="line"/>
      <point x="396" y="-165" type="line" smooth="yes"/>
      <point x="396" y="-173"/>
      <point x="402" y="-179"/>
      <point x="410" y="-179" type="curve" smooth="yes"/>
      <point x="419" y="-179" type="line" smooth="yes"/>
      <point x="427" y="-179"/>
      <point x="432" y="-173"/>
      <point x="432" y="-165" type="curve" smooth="yes"/>
      <point x="432" y="163" type="line" smooth="yes"/>
      <point x="432" y="171"/>
      <point x="427" y="177"/>
      <point x="419" y="177" type="curve" smooth="yes"/>
    </contour>
    <contour>
      <point x="396" y="-70" type="line"/>
      <point x="37" y="-70" type="line"/>
      <point x="37" y="73" type="line"/>
      <point x="396" y="73" type="line"/>
    </contour>
  </outline>
</glyph>
<glyph name="noteHalfUp" format="2">
  <advance width="325"/>
  <unicode hex="E1D3"/>
  <outline>
    <contour>
      <point x="300" y="102" type="line"/>
      <point x="279" y="122"/>
      <point x="248" y="133"/>
      <point x="213" y="133" type="curve" smooth="yes"/>
      <point x="116" y="133"/>
      <point x="0" y="52"/>
      <point x="0" y="-41" type="curve" smooth="yes"/>
      <point x="0" y="-84"/>
      <point x="31" y="-132"/>
      <point x="112" y="-132" type="curve" smooth="yes"/>
      <point x="216" y="-132"/>
      <point x="325" y="-47"/>
      <point x="325" y="41" type="curve" smooth="yes"/>
      <point x="325" y="875" type="line"/>
      <point x="300" y="875" type="line"/>
    </contour>
    <contour>
      <point x="75" y="-85" type="curve" smooth="yes"/>
      <point x="42" y="-85"/>
      <point x="35" y="-58"/>
      <point x="35" y="-49" type="curve" smooth="yes"/>
      <point x="35" y="0"/>
      <point x="203" y="86"/>
      <point x="250" y="86" type="curve" smooth="yes"/>
      <point x="274" y="86"/>
      <point x="290" y="72"/>
      <point x="290" y="50" type="curve" smooth="yes"/>
      <point x="290" y="0"/>
      <point x="121" y="-85"/>
    </contour>
  </outline>
</glyph>
<glyph name="noteHalfDown" format="2">
  <advance width="325"/>
  <unicode hex="E1D4"/>
  <outline>
    <contour>
      <point x="25" y="-102" type="line"/>
      <point x="46" y="-122"/>
      <point x="77" y="-133"/>
      <point x="112" y="-133" type="curve" smooth="yes"/>
      <point x="209" y="-133"/>
      <point x="325" y="-51"/>
      <point x="325" y="41" type="curve" smooth="yes"/>
      <point x="325" y="84"/>
      <point x="294" y="132"/>
      <point x="213" y="132" type="curve" smooth="yes"/>
      <point x="109" y="132"/>
      <point x="0" y="47"/>
      <point x="0" y="-41" type="curve" smooth="yes"/>
      <point x="0" y="-875" type="line"/>
      <point x="25" y="-875" type="line"/>
    </contour>
    <contour>
      <point x="139" y="43" type="curve"/>
      <point x="143" y="45"/>
      <point x="215" y="85"/>
      <point x="250" y="85" type="curve" smooth="yes"/>
      <point x="283" y="85"/>
      <point x="290" y="58"/>
      <point x="290" y="49" type="curve" smooth="yes"/>
      <point x="290" y="7"/>
      <point x="190" y="-42"/>
      <point x="186" y="-44" type="curve"/>
      <point x="183" y="-46"/>
      <point x="111" y="-86"/>
      <point x="75" y="-86" type="curve" smooth="yes"/>
      <point x="51" y="-86"/>
      <point x="35" y="-71"/>
      <point x="35" y="-50" type="curve" smooth="yes"/>
      <point x="35" y="-7"/>
      <point x="136" y="41"/>
    </contour>
  </outline>
</glyph>
<glyph name="noteQuarterUp" format="2">
  <advance width="325"/>
  <unicode hex="E1D5"/>
  <outline>
    <contour>
      <point x="300" y="875" type="line"/>
      <point x="300" y="103" type="line"/>
      <point x="279" y="123"/>
      <point x="248" y="134"/>
      <point x="213" y="134" type="curve" smooth="yes"/>
      <point x="116" y="134"/>
      <point x="0" y="52"/>
      <point x="0" y="-40" type="curve" smooth="yes"/>
      <point x="0" y="-83"/>
      <point x="31" y="-131"/>
      <point x="112" y="-131" type="curve" smooth="yes"/>
      <point x="216" y="-131"/>
      <point x="325" y="-46"/>
      <point x="325" y="42" type="curve" smooth="yes"/>
      <point x="325" y="875" type="line"/>
    </contour>
  </outline>
</glyph>
<glyph name="noteQuarterDown" format="2">
  <advance width="325"/>
  <unicode hex="E1D6"/>
  <outline>
    <contour>
      <point x="25" y="-875" type="line"/>
      <point x="25" y="-102" type="line"/>
      <point x="45" y="-122"/>
      <point x="77" y="-133"/>
      <point x="112" y="-133" type="curve" smooth="yes"/>
      <point x="209" y="-133"/>
      <point x="325" y="-52"/>
      <point x="325" y="41" type="curve" smooth="yes"/>
      <point x="325" y="84"/>
      <point x="294" y="132"/>
      <point x="213" y="132" type="curve" smooth="yes"/>
      <point x="109" y="132"/>
      <point x="0" y="47"/>
      <point x="0" y="-41" type="curve" smooth="yes"/>
      <point x="0" y="-875" type="line"/>
    </contour>
  </outline>
</glyph>
<glyph name="note8thDown" format="2">
  <advance width="325"/>
  <unicode hex="E1D8"/>
  <outline>
    <contour>
      <point x="0" y="-875" type="line" smooth="yes"/>
      <point x="0" y="-883"/>
      <point x="6" y="-888"/>
      <point x="13" y="-888" type="curve" smooth="yes"/>
      <point x="18" y="-888"/>
      <point x="24" y="-885"/>
      <point x="25" y="-881" type="curve"/>
      <point x="25" y="-879"/>
      <point x="34" y="-844"/>
      <point x="35" y="-841" type="curve"/>
      <point x="36" y="-837"/>
      <point x="45" y="-799"/>
      <point x="80" y="-741" type="curve" smooth="yes"/>
      <point x="120" y="-675"/>
      <point x="180" y="-628"/>
      <point x="230" y="-559" type="curve" smooth="yes"/>
      <point x="279" y="-489"/>
      <point x="309" y="-423"/>
      <point x="309" y="-334" type="curve" smooth="yes"/>
      <point x="309" y="-249"/>
      <point x="291" y="-177"/>
      <point x="245" y="-89" type="curve"/>
      <point x="291" y="-56"/>
      <point x="325" y="-10"/>
      <point x="325" y="40" type="curve" smooth="yes"/>
      <point x="325" y="83"/>
      <point x="294" y="131"/>
      <point x="213" y="131" type="curve" smooth="yes"/>
      <point x="114" y="131"/>
      <point x="11" y="55"/>
      <point x="1" y="-29" type="curve"/>
      <point x="0" y="-31"/>
      <point x="0" y="-33"/>
      <point x="0" y="-35" type="curve" smooth="yes"/>
      <point x="0" y="-38"/>
      <point x="0" y="-41"/>
      <point x="0" y="-44" type="curve" smooth="yes"/>
    </contour>
    <contour>
      <point x="25" y="-103" type="line"/>
      <point x="46" y="-123"/>
      <point x="77" y="-134"/>
      <point x="112" y="-134" type="curve" smooth="yes"/>
      <point x="147" y="-134"/>
      <point x="185" y="-123"/>
      <point x="219" y="-105" type="curve"/>
      <point x="254" y="-185"/>
      <point x="267" y="-236"/>
      <point x="267" y="-302" type="curve" smooth="yes"/>
      <point x="267" y="-386"/>
      <point x="238" y="-428"/>
      <point x="220" y="-459" type="curve" smooth="yes"/>
      <point x="162" y="-557"/>
      <point x="74" y="-611"/>
      <point x="25" y="-632" type="curve"/>
    </contour>
  </outline>
</glyph>
<glyph name="note16thUp" format="2">
  <advance width="575"/>
  <unicode hex="E1D9"/>
  <outline>
    <contour>
      <point x="579" y="405" type="curve" smooth="yes"/>
      <point x="579" y="457"/>
      <point x="565" y="504"/>
      <point x="531" y="549" type="curve" smooth="yes"/>
      <point x="484" y="610"/>
      <point x="433" y="662"/>
      <point x="395" y="717" type="curve" smooth="yes"/>
      <point x="357" y="772"/>
      <point x="332" y="864"/>
      <point x="329" y="875" type="curve"/>
      <point x="328" y="882"/>
      <point x="326" y="887"/>
      <point x="315" y="887" type="curve" smooth="yes"/>
      <point x="303" y="887"/>
      <point x="300" y="881"/>
      <point x="300" y="875" type="curve" smooth="yes"/>
      <point x="300" y="101" type="line"/>
      <point x="279" y="121"/>
      <point x="248" y="132"/>
      <point x="213" y="132" type="curve" smooth="yes"/>
      <point x="116" y="132"/>
      <point x="0" y="50"/>
      <point x="0" y="-42" type="curve" smooth="yes"/>
      <point x="0" y="-85"/>
      <point x="31" y="-133"/>
      <point x="112" y="-133" type="curve" smooth="yes"/>
      <point x="216" y="-133"/>
      <point x="325" y="-48"/>
      <point x="325" y="40" type="curve" smooth="yes"/>
      <point x="325" y="480" type="line"/>
      <point x="414" y="432"/>
      <point x="521" y="318"/>
      <point x="521" y="211" type="curve" smooth="yes"/>
      <point x="521" y="171"/>
      <point x="512" y="121"/>
      <point x="498" y="84" type="curve" smooth="yes"/>
      <point x="496" y="79"/>
      <point x="494" y="74"/>
      <point x="494" y="68" type="curve" smooth="yes"/>
      <point x="494" y="62"/>
      <point x="499" y="56"/>
      <point x="506" y="56" type="curve" smooth="yes"/>
      <point x="513" y="56"/>
      <point x="517" y="64"/>
      <point x="521" y="70" type="curve" smooth="yes"/>
      <point x="539" y="98"/>
      <point x="565" y="152"/>
      <point x="565" y="208" type="curve" smooth="yes"/>
      <point x="565" y="237"/>
      <point x="563" y="261"/>
      <point x="560" y="282" type="curve"/>
      <point x="570" y="319"/>
      <point x="579" y="356"/>
    </contour>
    <contour>
      <point x="534" y="364" type="curve"/>
      <point x="526" y="380"/>
      <point x="517" y="392"/>
      <point x="509" y="404" type="curve"/>
      <point x="482" y="439"/>
      <point x="452" y="470"/>
      <point x="403" y="519" type="curve" smooth="yes"/>
      <point x="369" y="554"/>
      <point x="343" y="591"/>
      <point x="336" y="639" type="curve"/>
      <point x="387" y="639"/>
      <point x="452" y="570"/>
      <point x="487" y="523" type="curve"/>
      <point x="527" y="472"/>
      <point x="535" y="431"/>
      <point x="535" y="393" type="curve" smooth="yes"/>
      <point x="535" y="383"/>
      <point x="535" y="373"/>
    </contour>
  </outline>
</glyph>
<glyph name="augmentationDot" format="2">
  <advance width="100"/>
  <unicode hex="E1E7"/>
  <outline>
    <contour>
      <point x="0" y="0" type="curve" smooth="yes"/>
      <point x="0" y="-28"/>
      <point x="22" y="-50"/>
      <point x="50" y="-50" type="curve" smooth="yes"/>
      <point x="78" y="-50"/>
      <point x="100" y="-28"/>
      <point x="100" y="0" type="curve" smooth="yes"/>
      <point x="100" y="28"/>
      <point x="78" y="50"/>
      <point x="50" y="50" type="curve" smooth="yes"/>
      <point x="22" y="50"/>
      <point x="0" y="28"/>
    </contour>
  </outline>
</glyph>
<glyph name="tremolo1" format="2">
  <advance width="145"/>
  <unicode hex="E220"/>
  <outline>
    <contour>
      <point x="-145" y="33" type="line"/>
      <point x="-145" y="-93" type="line"/>
      <point x="145" y="-30" type="line"/>
      <point x="145" y="96" type="line"/>
    </contour>
  </outline>
</glyph>
<glyph name="tremolo2" format="2">
  <advance width="145"/>
  <unicode hex="E221"/>
  <outline>
    <contour>
      <point x="-145" y="126" type="line"/>
      <point x="-145" y="1" type="line"/>
      <point x="145" y="63" type="line"/>
      <point x="145" y="189" type="line"/>
    </contour>
    <contour>
      <point x="-145" y="-62" type="line"/>
      <point x="-145" y="-188" type="line"/>
      <point x="145" y="-125" type="line"/>
      <point x="145" y="1" type="line"/>
    </contour>
  </outline>
</glyph>
<glyph name="tremolo3" format="2">
  <advance width="145"/>
  <unicode hex="E222"/>
  <outline>
    <contour>
      <point x="-145" y="220" type="line"/>
      <point x="-145" y="94" type="line"/>
      <point x="145" y="157" type="line"/>
      <point x="145" y="283" type="line"/>
    </contour>
    <contour>
      <point x="-145" y="-157" type="line"/>
      <point x="-145" y="-283" type="line"/>
      <point x="145" y="-220" type="line"/>
      <point x="145" y="-94" type="line"/>
    </contour>
    <contour>
      <point x="-145" y="31" type="line"/>
      <point x="-145" y="-94" type="line"/>
      <point x="145" y="-32" type="line"/>
      <point x="145" y="94" type="line"/>
    </contour>
  </outline>
</glyph>
<glyph name="tremoloFingered4" format="2">
  <advance width="145"/>
  <unicode hex="E228"/>
  <outline>
    <contour>
      <point x="-145" y="315" type="line"/>
      <point x="-145" y="189" type="line"/>
      <point x="145" y="252" type="line"/>
      <point x="145" y="378" type="line"/>
    </contour>
    <contour>
      <point x="-145" y="-62" type="line"/>
      <point x="-145" y="-188" type="line"/>
      <point x="145" y="-125" type="line"/>
      <point x="145" y="1" type="line"/>
    </contour>
    <contour>
      <point x="-145" y="126" type="line"/>
      <point x="-145" y="1" type="line"/>
      <point x="145" y="63" type="line"/>
      <point x="145" y="189" type="line"/>
    </contour>
    <contour>
      <point x="-145" y="-251" type="line"/>
      <point x="-145" y="-377" type="line"/>
      <point x="145" y="-314" type="line"/>
      <point x="145" y="-188" type="line"/>
    </contour>
  </outline>
</glyph>
<glyph name="tremoloFingered5" format="2">
  <advance width="145"/>
  <unicode hex="E229"/>
  <outline>
    <contour>
      <point x="-145" y="221" type="line"/>
      <point x="-145" y="95" type="line"/>
      <point x="145" y="158" type="line"/>
      <point x="145" y="284" type="line"/>
    </contour>
    <contour>
      <point x="-145" y="-345" type="line"/>
      <point x="-145" y="-471" type="line"/>
      <point x="145" y="-408" type="line"/>
      <point x="145" y="-282" type="line"/>
    </contour>
    <contour>
      <point x="-145" y="-156" type="line"/>
      <point x="-145" y="-282" type="line"/>
      <point x="145" y="-219" type="line"/>
      <point x="145" y="-94" type="line"/>
    </contour>
    <contour>
      <point x="-145" y="32" type="line"/>
      <point x="-145" y="-94" type="line"/>
      <point x="145" y="-31" type="line"/>
      <point x="145" y="95" type="line"/>
    </contour>
    <contour>
      <point x="-145" y="410" type="line"/>
      <point x="-145" y="284" type="line"/>
      <point x="145" y="347" type="line"/>
      <point x="145" y="473" type="line"/>
    </contour>
  </outline>
</glyph>
<glyph name="buzzRoll" format="2">
  <advance width="150"/>
  <unicode hex="E22A"/>
  <outline>
    <contour>
      <point x="-76" y="-85" type="line"/>
      <point x="150" y="75" type="line"/>
      <point x="150" y="140" type="line"/>
      <point x="-150" y="140" type="line"/>
      <point x="-150" y="85" type="line"/>
      <point x="76" y="85" type="line"/>
      <point x="-150" y="-72" type="line"/>
      <point x="-150" y="-140" type="line"/>
      <point x="150" y="-140" type="line"/>
      <point x="150" y="-85" type="line"/>
    </contour>
  </outline>
</glyph>
<glyph name="tremoloDivisiDots2" format="2">
  <advance width="246"/>
  <unicode hex="E22E"/>
  <outline>
    <contour>
      <point x="11" y="11" type="curve"/>
      <point x="19" y="4"/>
      <point x="29" y="0"/>
      <point x="39" y="0" type="curve" smooth="yes"/>
      <point x="49" y="0"/>
      <point x="59" y="4"/>
      <point x="67" y="11" type="curve"/>
      <point x="82" y="27"/>
      <point x="82" y="51"/>
      <point x="67" y="66" type="curve" smooth="yes"/>
      <point x="59" y="74"/>
      <point x="49" y="78"/>
      <point x="39" y="78" type="curve" smooth="yes"/>
      <point x="29" y="78"/>
      <point x="19" y="74"/>
      <point x="11" y="66" type="curve" smooth="yes"/>
      <point x="-4" y="51"/>
      <point x="-4" y="27"/>
    </contour>
    <contour>
      <point x="179" y="11" type="curve"/>
      <point x="187" y="4"/>
      <point x="197" y="0"/>
      <point x="207" y="0" type="curve" smooth="yes"/>
      <point x="217" y="0"/>
      <point x="227" y="4"/>
      <point x="235" y="11" type="curve"/>
      <point x="250" y="27"/>
      <point x="250" y="51"/>
      <point x="235" y="66" type="curve" smooth="yes"/>
      <point x="227" y="74"/>
      <point x="217" y="78"/>
      <point x="207" y="78" type="curve" smooth="yes"/>
      <point x="197" y="78"/>
      <point x="187" y="74"/>
      <point x="179" y="66" type="curve" smooth="yes"/>
      <point x="164" y="51"/>
      <point x="164" y="27"/>
    </contour>
  </outline>
</glyph>
<glyph name="tremoloDivisiDots4" format="2">
  <advance width="585"/>
  <unicode hex="E230"/>
  <outline>
    <contour>
      <point x="11" y="11" type="curve"/>
      <point x="19" y="4"/>
      <point x="29" y="0"/>
      <point x="39" y="0" type="curve" smooth="yes"/>
      <point x="49" y="0"/>
      <point x="59" y="4"/>
      <point x="67" y="11" type="curve"/>
      <point x="82" y="27"/>
      <point x="82" y="51"/>
      <point x="67" y="66" type="curve" smooth="yes"/>
      <point x="59" y="74"/>
      <point x="49" y="78"/>
      <point x="39" y="78" type="curve" smooth="yes"/>
      <point x="29" y="78"/>
      <point x="19" y="74"/>
      <point x="11" y="66" type="curve" smooth="yes"/>
      <point x="-4" y="51"/>
      <point x="-4" y="27"/>
    </contour>
    <contour>
      <point x="179" y="11" type="curve"/>
      <point x="187" y="4"/>
      <point x="197" y="0"/>
      <point x="207" y="0" type="curve" smooth="yes"/>
      <point x="217" y="0"/>
      <point x="227" y="4"/>
      <point x="235" y="11" type="curve"/>
      <point x="250" y="27"/>
      <point x="250" y="51"/>
      <point x="235" y="66" type="curve" smooth="yes"/>
      <point x="227" y="74"/>
      <point x="217" y="78"/>
      <point x="207" y="78" type="curve" smooth="yes"/>
      <point x="197" y="78"/>
      <point x="187" y="74"/>
      <point x="179" y="66" type="curve" smooth="yes"/>
      <point x="164" y="51"/>
      <point x="164" y="27"/>
    </contour>
    <contour>
      <point x="350" y="11" type="curve"/>
      <point x="358" y="4"/>
      <point x="368" y="0"/>
      <point x="378" y="0" type="curve" smooth="yes"/>
      <point x="388" y="0"/>
      <point x="398" y="4"/>
      <point x="406" y="11" type="curve"/>
      <point x="421" y="27"/>
      <point x="421" y="51"/>
      <point x="406" y="66" type="curve" smooth="yes"/>
      <point x="398" y="74"/>
      <point x="388" y="78"/>
      <point x="378" y="78" type="curve" smooth="yes"/>
      <point x="368" y="78"/>
      <point x="358" y="74"/>
      <point x="350" y="66" type="curve" smooth="yes"/>
      <point x="335" y="51"/>
      <point x="335" y="27"/>
    </contour>
    <contour>
      <point x="518" y="11" type="curve"/>
      <point x="526" y="4"/>
      <point x="536" y="0"/>
      <point x="546" y="0" type="curve" smooth="yes"/>
      <point x="556" y="0"/>
      <point x="566" y="4"/>
      <point x="574" y="11" type="curve"/>
      <point x="589" y="27"/>
      <point x="589" y="51"/>
      <point x="574" y="66" type="curve" smooth="yes"/>
      <point x="566" y="74"/>
      <point x="556" y="78"/>
      <point x="546" y="78" type="curve" smooth="yes"/>
      <point x="536" y="78"/>
      <point x="526" y="74"/>
      <point x="518" y="66" type="curve" smooth="yes"/>
      <point x="503" y="51"/>
      <point x="503" y="27"/>
    </contour>
  </outline>
</glyph>
<glyph name="tremoloDivisiDots6" format="2">
  <advance width="417"/>
  <unicode hex="E231"/>
  <outline>
    <contour>
      <point x="11" y="179" type="curve"/>
      <point x="19" y="172"/>
      <point x="29" y="168"/>
      <point x="39" y="168" type="curve" smooth="yes"/>
      <point x="49" y="168"/>
      <point x="59" y="172"/>
      <point x="67" y="179" type="curve"/>
      <point x="82" y="195"/>
      <point x="82" y="219"/>
      <point x="67" y="234" type="curve" smooth="yes"/>
      <point x="59" y="242"/>
      <point x="49" y="246"/>
      <point x="39" y="246" type="curve" smooth="yes"/>
      <point x="29" y="246"/>
      <point x="19" y="242"/>
      <point x="11" y="234" type="curve" smooth="yes"/>
      <point x="-4" y="219"/>
      <point x="-4" y="195"/>
    </contour>
    <contour>
      <point x="11" y="11" type="curve"/>
      <point x="19" y="4"/>
      <point x="29" y="0"/>
      <point x="39" y="0" type="curve" smooth="yes"/>
      <point x="49" y="0"/>
      <point x="59" y="4"/>
      <point x="67" y="11" type="curve"/>
      <point x="82" y="27"/>
      <point x="82" y="51"/>
      <point x="67" y="66" type="curve" smooth="yes"/>
      <point x="59" y="74"/>
      <point x="49" y="78"/>
      <point x="39" y="78" type="curve" smooth="yes"/>
      <point x="29" y="78"/>
      <point x="19" y="74"/>
      <point x="11" y="66" type="curve" smooth="yes"/>
      <point x="-4" y="51"/>
      <point x="-4" y="27"/>
    </contour>
    <contour>
      <point x="179" y="179" type="curve"/>
      <point x="187" y="172"/>
      <point x="197" y="168"/>
      <point x="207" y="168" type="curve" smooth="yes"/>
      <point x="217" y="168"/>
      <point x="227" y="172"/>
      <point x="235" y="179" type="curve"/>
      <point x="250" y="195"/>
      <point x="250" y="219"/>
      <point x="235" y="234" type="curve" smooth="yes"/>
      <point x="227" y="242"/>
      <point x="217" y="246"/>
      <point x="207" y="246" type="curve" smooth="yes"/>
      <point x="197" y="246"/>
      <point x="187" y="242"/>
      <point x="179" y="234" type="curve" smooth="yes"/>
      <point x="164" y="219"/>
      <point x="164" y="195"/>
    </contour>
    <contour>
      <point x="179" y="11" type="curve"/>
      <point x="187" y="4"/>
      <point x="197" y="0"/>
      <point x="207" y="0" type="curve" smooth="yes"/>
      <point x="217" y="0"/>
      <point x="227" y="4"/>
      <point x="235" y="11" type="curve"/>
      <point x="250" y="27"/>
      <point x="250" y="51"/>
      <point x="235" y="66" type="curve" smooth="yes"/>
      <point x="227" y="74"/>
      <point x="217" y="78"/>
      <point x="207" y="78" type="curve" smooth="yes"/>
      <point x="197" y="78"/>
      <point x="187" y="74"/>
      <point x="179" y="66" type="curve" smooth="yes"/>
      <point x="164" y="51"/>
      <point x="164" y="27"/>
    </contour>
    <contour>
      <point x="350" y="179" type="curve"/>
      <point x="358" y="172"/>
      <point x="368" y="168"/>
      <point x="378" y="168" type="curve" smooth="yes"/>
      <point x="388" y="168"/>
      <point x="398" y="172"/>
      <point x="406" y="179" type="curve"/>
      <point x="421" y="195"/>
      <point x="421" y="219"/>
      <point x="406" y="234" type="curve" smooth="yes"/>
      <point x="398" y="242"/>
      <point x="388" y="246"/>
      <point x="378" y="246" type="curve" smooth="yes"/>
      <point x="368" y="246"/>
      <point x="358" y="242"/>
      <point x="350" y="234" type="curve" smooth="yes"/>
      <point x="335" y="219"/>
      <point x="335" y="195"/>
    </contour>
    <contour>
      <point x="350" y="11" type="curve"/>
      <point x="358" y="4"/>
      <point x="368" y="0"/>
      <point x="378" y="0" type="curve" smooth="yes"/>
      <point x="388" y="0"/>
      <point x="398" y="4"/>
      <point x="406" y="11" type="curve"/>
      <point x="421" y="27"/>
      <point x="421" y="51"/>
      <point x="406" y="66" type="curve" smooth="yes"/>
      <point x="398" y="74"/>
      <point x="388" y="78"/>
      <point x="378" y="78" type="curve" smooth="yes"/>
      <point x="368" y="78"/>
      <point x="358" y="74"/>
      <point x="350" y="66" type="curve" smooth="yes"/>
      <point x="335" y="51"/>
      <point x="335" y="27"/>
    </contour>
  </outline>
</glyph>
<glyph name="oneHandedRollStevens" format="2">
  <advance width="273"/>
  <unicode hex="E233"/>
  <outline>
    <contour>
      <point x="0" y="195" type="curve" smooth="yes"/>
      <point x="67" y="195"/>
      <point x="129" y="185"/>
      <point x="176" y="168" type="curve"/>
      <point x="216" y="152"/>
      <point x="240" y="132"/>
      <point x="240" y="114" type="curve" smooth="yes"/>
      <point x="240" y="96"/>
      <point x="216" y="76"/>
      <point x="176" y="60" type="curve"/>
      <point x="129" y="43"/>
      <point x="67" y="33"/>
      <point x="0" y="33" type="curve" smooth="yes"/>
      <point x="-67" y="33"/>
      <point x="-129" y="43"/>
      <point x="-176" y="60" type="curve"/>
      <point x="-216" y="76"/>
      <point x="-240" y="96"/>
      <point x="-240" y="114" type="curve" smooth="yes"/>
      <point x="-240" y="132"/>
      <point x="-216" y="152"/>
      <point x="-176" y="168" type="curve"/>
      <point x="-129" y="185"/>
      <point x="-67" y="195"/>
    </contour>
    <contour>
      <point x="0" y="0" type="curve" smooth="yes"/>
      <point x="64" y="0"/>
      <point x="273" y="20"/>
      <point x="273" y="114" type="curve" smooth="yes"/>
      <point x="273" y="147"/>
      <point x="243" y="177"/>
      <point x="187" y="198" type="curve" smooth="yes"/>
      <point x="137" y="218"/>
      <point x="71" y="228"/>
      <point x="0" y="228" type="curve" smooth="yes"/>
      <point x="-71" y="228"/>
      <point x="-137" y="218"/>
      <point x="-187" y="198" type="curve" smooth="yes"/>
      <point x="-243" y="177"/>
      <point x="-273" y="147"/>
      <point x="-273" y="114" type="curve" smooth="yes"/>
      <point x="-273" y="20"/>
      <point x="-64" y="0"/>
    </contour>
  </outline>
</glyph>
<glyph name="flag8thUp" format="2">
  <advance width="289"/>
  <unicode hex="E240"/>
  <outline>
    <contour>
      <point x="0" y="-227" type="line" smooth="yes"/>
      <point x="0" y="-230"/>
      <point x="1" y="-235"/>
      <point x="8" y="-238" type="curve"/>
      <point x="51" y="-252"/>
      <point x="137" y="-306"/>
      <point x="202" y="-417" type="curve" smooth="yes"/>
      <point x="220" y="-448"/>
      <point x="249" y="-491"/>
      <point x="249" y="-574" type="curve" smooth="yes"/>
      <point x="249" y="-646"/>
      <point x="230" y="-720"/>
      <point x="204" y="-792" type="curve" smooth="yes"/>
      <point x="202" y="-798"/>
      <point x="200" y="-803"/>
      <point x="201" y="-807" type="curve"/>
      <point x="201" y="-813"/>
      <point x="205" y="-817"/>
      <point x="211" y="-817" type="curve" smooth="yes"/>
      <point x="218" y="-817"/>
      <point x="223" y="-813"/>
      <point x="227" y="-806" type="curve" smooth="yes"/>
      <point x="272" y="-726"/>
      <point x="289" y="-633"/>
      <point x="289" y="-542" type="curve"/>
      <point x="284" y="-413"/>
      <point x="210" y="-318"/>
      <point x="210" y="-318" type="curve"/>
      <point x="213" y="-318"/>
      <point x="118" y="-195"/>
      <point x="91" y="-153" type="curve" smooth="yes"/>
      <point x="54" y="-96"/>
      <point x="37" y="-39"/>
      <point x="35" y="-35" type="curve"/>
      <point x="34" y="-32"/>
      <point x="25" y="4"/>
      <point x="25" y="4" type="curve"/>
      <point x="24" y="8"/>
      <point x="19" y="12"/>
      <point x="13" y="12" type="curve" smooth="yes"/>
      <point x="6" y="12"/>
      <point x="0" y="6"/>
      <point x="0" y="-1" type="curve" smooth="yes"/>
    </contour>
  </outline>
</glyph>
<glyph name="flag16thDown" format="2">
  <advance width="309"/>
  <unicode hex="E243"/>
  <outline>
    <contour>
      <point x="37" y="240" type="curve"/>
      <point x="38" y="245"/>
      <point x="39" y="249"/>
      <point x="39" y="252" type="curve"/>
      <point x="46" y="277"/>
      <point x="54" y="314"/>
      <point x="113" y="359" type="curve" smooth="yes"/>
      <point x="171" y="404"/>
      <point x="240" y="460"/>
      <point x="267" y="508" type="curve"/>
      <point x="263" y="354"/>
      <point x="183" y="279"/>
    </contour>
    <contour>
      <point x="0" y="-10" type="line" smooth="yes"/>
      <point x="0" y="-18"/>
      <point x="7" y="-26"/>
      <point x="15" y="-26" type="curve" smooth="yes"/>
      <point x="23" y="-26"/>
      <point x="28" y="-18"/>
      <point x="30" y="-10" type="curve"/>
      <point x="45" y="93"/>
      <point x="76" y="123"/>
      <point x="116" y="161" type="curve" smooth="yes"/>
      <point x="169" y="212"/>
      <point x="309" y="289"/>
      <point x="309" y="474" type="curve" smooth="yes"/>
      <point x="309" y="507"/>
      <point x="306" y="544"/>
      <point x="300" y="581" type="curve"/>
      <point x="304" y="594"/>
      <point x="306" y="612"/>
      <point x="306" y="638" type="curve" smooth="yes"/>
      <point x="306" y="717"/>
      <point x="260" y="772"/>
      <point x="227" y="798" type="curve" smooth="yes"/>
      <point x="223" y="801"/>
      <point x="217" y="803"/>
      <point x="211" y="803" type="curve" smooth="yes"/>
      <point x="207" y="803"/>
      <point x="194" y="800"/>
      <point x="194" y="795" type="curve" smooth="yes"/>
      <point x="194" y="792"/>
      <point x="200" y="788"/>
      <point x="204" y="784" type="curve"/>
      <point x="239" y="747"/>
      <point x="265" y="713"/>
      <point x="265" y="646" type="curve" smooth="yes"/>
      <point x="265" y="633"/>
      <point x="264" y="620"/>
      <point x="260" y="608" type="curve" smooth="yes"/>
      <point x="259" y="605" type="line"/>
      <point x="238" y="521"/>
      <point x="92" y="432"/>
      <point x="15" y="415" type="curve"/>
      <point x="8" y="412"/>
      <point x="0" y="390"/>
      <point x="0" y="388" type="curve" smooth="yes"/>
    </contour>
  </outline>
</glyph>
<glyph name="flag32ndUp" format="2">
  <advance width="279"/>
  <unicode hex="E244"/>
  <outline>
    <contour>
      <point x="188" y="-180" type="curve" smooth="yes"/>
      <point x="227" y="-231"/>
      <point x="236" y="-272"/>
      <point x="236" y="-310" type="curve" smooth="yes"/>
      <point x="236" y="-316"/>
      <point x="235" y="-321"/>
      <point x="235" y="-326" type="curve"/>
      <point x="234" y="-324"/>
      <point x="232" y="-322"/>
      <point x="231" y="-320" type="curve"/>
      <point x="184" y="-258"/>
      <point x="101" y="-188"/>
      <point x="63" y="-133" type="curve" smooth="yes"/>
      <point x="48" y="-111"/>
      <point x="40" y="-86"/>
      <point x="35" y="-64" type="curve"/>
      <point x="86" y="-64"/>
      <point x="152" y="-133"/>
    </contour>
    <contour>
      <point x="209" y="-474" type="curve"/>
      <point x="182" y="-439"/>
      <point x="152" y="-408"/>
      <point x="103" y="-358" type="curve" smooth="yes"/>
      <point x="64" y="-319"/>
      <point x="46" y="-285"/>
      <point x="39" y="-259" type="curve"/>
      <point x="38" y="-254"/>
      <point x="37" y="-246"/>
      <point x="35" y="-238" type="curve"/>
      <point x="87" y="-238"/>
      <point x="152" y="-300"/>
      <point x="188" y="-347" type="curve" smooth="yes"/>
      <point x="227" y="-399"/>
      <point x="236" y="-439"/>
      <point x="236" y="-477" type="curve" smooth="yes"/>
      <point x="236" y="-489"/>
      <point x="235" y="-501"/>
      <point x="234" y="-513" type="curve"/>
      <point x="226" y="-497"/>
      <point x="217" y="-485"/>
    </contour>
    <contour>
      <point x="0" y="-382" type="line" smooth="yes"/>
      <point x="0" y="-385"/>
      <point x="8" y="-389"/>
      <point x="15" y="-392" type="curve"/>
      <point x="41" y="-401"/>
      <point x="119" y="-451"/>
      <point x="179" y="-540" type="curve" smooth="yes"/>
      <point x="213" y="-591"/>
      <point x="221" y="-627"/>
      <point x="221" y="-661" type="curve" smooth="yes"/>
      <point x="221" y="-667"/>
      <point x="221" y="-672"/>
      <point x="220" y="-678" type="curve"/>
      <point x="220" y="-702"/>
      <point x="213" y="-753"/>
      <point x="198" y="-793" type="curve"/>
      <point x="197" y="-798"/>
      <point x="194" y="-804"/>
      <point x="194" y="-809" type="curve" smooth="yes"/>
      <point x="194" y="-813"/>
      <point x="196" y="-817"/>
      <point x="201" y="-820" type="curve"/>
      <point x="203" y="-821"/>
      <point x="204" y="-821"/>
      <point x="206" y="-821" type="curve" smooth="yes"/>
      <point x="213" y="-821"/>
      <point x="217" y="-813"/>
      <point x="221" y="-807" type="curve" smooth="yes"/>
      <point x="239" y="-779"/>
      <point x="265" y="-725"/>
      <point x="265" y="-669" type="curve" smooth="yes"/>
      <point x="265" y="-640"/>
      <point x="263" y="-616"/>
      <point x="260" y="-595" type="curve"/>
      <point x="270" y="-557"/>
      <point x="279" y="-514"/>
      <point x="279" y="-464" type="curve" smooth="yes"/>
      <point x="279" y="-439"/>
      <point x="275" y="-414"/>
      <point x="268" y="-391" type="curve"/>
      <point x="275" y="-360"/>
      <point x="279" y="-329"/>
      <point x="279" y="-297" type="curve" smooth="yes"/>
      <point x="279" y="-245"/>
      <point x="265" y="-198"/>
      <point x="231" y="-153" type="curve" smooth="yes"/>
      <point x="184" y="-91"/>
      <point x="133" y="-39"/>
      <point x="95" y="16" type="curve" smooth="yes"/>
      <point x="57" y="71"/>
      <point x="29" y="174"/>
      <point x="29" y="174" type="curve"/>
      <point x="27" y="181"/>
      <point x="26" y="186"/>
      <point x="15" y="186" type="curve" smooth="yes"/>
      <point x="3" y="186"/>
      <point x="0" y="181"/>
      <point x="0" y="174" type="curve" smooth="yes"/>
    </contour>
  </outline>
</glyph>
<glyph name="flag32ndDown" format="2">
  <advance width="309"/>
  <unicode hex="E245"/>
  <outline>
    <contour>
      <point x="113" y="359" type="curve" smooth="yes"/>
      <point x="172" y="409"/>
      <point x="227" y="446"/>
      <point x="254" y="481" type="curve" smooth="yes"/>
      <point x="258" y="486"/>
      <point x="262" y="492"/>
      <point x="265" y="497" type="curve"/>
      <point x="266" y="492"/>
      <point x="266" y="486"/>
      <point x="266" y="481" type="curve" smooth="yes"/>
      <point x="266" y="347"/>
      <point x="147" y="280"/>
      <point x="37" y="238" type="curve"/>
      <point x="38" y="244"/>
      <point x="39" y="249"/>
      <point x="39" y="252" type="curve"/>
      <point x="46" y="278"/>
      <point x="56" y="312"/>
    </contour>
    <contour>
      <point x="35" y="51" type="curve"/>
      <point x="40" y="73"/>
      <point x="49" y="98"/>
      <point x="63" y="119" type="curve" smooth="yes"/>
      <point x="101" y="174"/>
      <point x="189" y="220"/>
      <point x="241" y="279" type="curve" smooth="yes"/>
      <point x="251" y="290"/>
      <point x="260" y="302"/>
      <point x="267" y="315" type="curve"/>
      <point x="267" y="241"/>
      <point x="251" y="199"/>
      <point x="225" y="166" type="curve" smooth="yes"/>
      <point x="163" y="90"/>
      <point x="85" y="65"/>
    </contour>
    <contour>
      <point x="0" y="-200" type="line" smooth="yes"/>
      <point x="0" y="-207"/>
      <point x="7" y="-216"/>
      <point x="15" y="-216" type="curve" smooth="yes"/>
      <point x="23" y="-216"/>
      <point x="28" y="-208"/>
      <point x="30" y="-200" type="curve"/>
      <point x="45" y="-96"/>
      <point x="76" y="-66"/>
      <point x="116" y="-28" type="curve" smooth="yes"/>
      <point x="169" y="22"/>
      <point x="309" y="99"/>
      <point x="309" y="284" type="curve" smooth="yes"/>
      <point x="309" y="321"/>
      <point x="305" y="361"/>
      <point x="299" y="401" type="curve"/>
      <point x="302" y="418"/>
      <point x="305" y="435"/>
      <point x="306" y="452" type="curve"/>
      <point x="306" y="457"/>
      <point x="306" y="463"/>
      <point x="306" y="469" type="curve" smooth="yes"/>
      <point x="306" y="500"/>
      <point x="302" y="530"/>
      <point x="295" y="561" type="curve"/>
      <point x="302" y="583"/>
      <point x="306" y="608"/>
      <point x="306" y="638" type="curve" smooth="yes"/>
      <point x="306" y="717"/>
      <point x="260" y="772"/>
      <point x="227" y="798" type="curve" smooth="yes"/>
      <point x="223" y="801"/>
      <point x="218" y="803"/>
      <point x="212" y="803" type="curve" smooth="yes"/>
      <point x="208" y="803"/>
      <point x="194" y="800"/>
      <point x="194" y="795" type="curve" smooth="yes"/>
      <point x="194" y="792"/>
      <point x="200" y="789"/>
      <point x="204" y="784" type="curve"/>
      <point x="239" y="747"/>
      <point x="265" y="713"/>
      <point x="265" y="646" type="curve" smooth="yes"/>
      <point x="265" y="609"/>
      <point x="253" y="578"/>
      <point x="227" y="548" type="curve" smooth="yes"/>
      <point x="157" y="467"/>
      <point x="60" y="425"/>
      <point x="15" y="415" type="curve"/>
      <point x="8" y="412"/>
      <point x="0" y="390"/>
      <point x="0" y="388" type="curve" smooth="yes"/>
    </contour>
  </outline>
</glyph>
<glyph name="flag64thDown" format="2">
  <advance width="309"/>
  <unicode hex="E247"/>
  <outline>
    <contour>
      <point x="35" y="48" type="curve"/>
      <point x="39" y="71"/>
      <point x="48" y="97"/>
      <point x="63" y="119" type="curve" smooth="yes"/>
      <point x="101" y="174"/>
      <point x="189" y="221"/>
      <point x="241" y="279" type="curve" smooth="yes"/>
      <point x="250" y="289"/>
      <point x="258" y="300"/>
      <point x="265" y="312" type="curve"/>
      <point x="266" y="305"/>
      <point x="266" y="298"/>
      <point x="266" y="292" type="curve" smooth="yes"/>
      <point x="266" y="156"/>
      <point x="147" y="90"/>
    </contour>
    <contour>
      <point x="113" y="359" type="curve" smooth="yes"/>
      <point x="172" y="409"/>
      <point x="227" y="447"/>
      <point x="254" y="481" type="curve"/>
      <point x="258" y="487"/>
      <point x="262" y="492"/>
      <point x="265" y="498" type="curve"/>
      <point x="266" y="492"/>
      <point x="266" y="487"/>
      <point x="266" y="481" type="curve" smooth="yes"/>
      <point x="266" y="347"/>
      <point x="147" y="280"/>
      <point x="37" y="238" type="curve"/>
      <point x="38" y="244"/>
      <point x="39" y="249"/>
      <point x="39" y="252" type="curve"/>
      <point x="46" y="278"/>
      <point x="56" y="312"/>
    </contour>
    <contour>
      <point x="36" y="-136" type="curve"/>
      <point x="41" y="-115"/>
      <point x="49" y="-91"/>
      <point x="63" y="-71" type="curve" smooth="yes"/>
      <point x="101" y="-16"/>
      <point x="189" y="31"/>
      <point x="241" y="89" type="curve"/>
      <point x="251" y="101"/>
      <point x="260" y="113"/>
      <point x="267" y="125" type="curve"/>
      <point x="267" y="53"/>
      <point x="251" y="11"/>
      <point x="225" y="-21" type="curve" smooth="yes"/>
      <point x="163" y="-97"/>
      <point x="86" y="-122"/>
    </contour>
    <contour>
      <point x="0" y="-387" type="line" smooth="yes"/>
      <point x="0" y="-394"/>
      <point x="7" y="-403"/>
      <point x="15" y="-403" type="curve" smooth="yes"/>
      <point x="23" y="-403"/>
      <point x="28" y="-394"/>
      <point x="30" y="-387" type="curve"/>
      <point x="45" y="-283"/>
      <point x="76" y="-253"/>
      <point x="116" y="-215" type="curve" smooth="yes"/>
      <point x="169" y="-165"/>
      <point x="309" y="-87"/>
      <point x="309" y="97" type="curve" smooth="yes"/>
      <point x="309" y="133"/>
      <point x="305" y="173"/>
      <point x="299" y="213" type="curve"/>
      <point x="303" y="230"/>
      <point x="305" y="246"/>
      <point x="306" y="262" type="curve"/>
      <point x="306" y="269"/>
      <point x="306" y="276"/>
      <point x="306" y="282" type="curve" smooth="yes"/>
      <point x="306" y="315"/>
      <point x="301" y="347"/>
      <point x="294" y="379" type="curve"/>
      <point x="300" y="404"/>
      <point x="304" y="429"/>
      <point x="306" y="452" type="curve"/>
      <point x="306" y="458"/>
      <point x="306" y="463"/>
      <point x="306" y="469" type="curve" smooth="yes"/>
      <point x="306" y="500"/>
      <point x="302" y="530"/>
      <point x="295" y="561" type="curve"/>
      <point x="302" y="583"/>
      <point x="306" y="608"/>
      <point x="306" y="638" type="curve" smooth="yes"/>
      <point x="306" y="717"/>
      <point x="260" y="772"/>
      <point x="227" y="798" type="curve" smooth="yes"/>
      <point x="223" y="801"/>
      <point x="218" y="803"/>
      <point x="212" y="804" type="curve"/>
      <point x="208" y="804"/>
      <point x="203" y="803"/>
      <point x="199" y="800" type="curve"/>
      <point x="195" y="799"/>
      <point x="194" y="797"/>
      <point x="194" y="795" type="curve" smooth="yes"/>
      <point x="194" y="792"/>
      <point x="200" y="789"/>
      <point x="204" y="784" type="curve"/>
      <point x="239" y="747"/>
      <point x="265" y="713"/>
      <point x="265" y="646" type="curve" smooth="yes"/>
      <point x="265" y="609"/>
      <point x="253" y="578"/>
      <point x="227" y="548" type="curve" smooth="yes"/>
      <point x="157" y="467"/>
      <point x="60" y="425"/>
      <point x="15" y="415" type="curve"/>
      <point x="8" y="412"/>
      <point x="0" y="391"/>
      <point x="0" y="388" type="curve" smooth="yes"/>
    </contour>
  </outline>
</glyph>
